<?xml version="1.0" ?><svg id="Layer_1" style="enable-background:new 0 0 512 512;" version="1.1" viewBox="0 0 512 512" xml:space="preserve" xmlns="http://www.w3.org/2000/svg" xmlns:xlink="http://www.w3.org/1999/xlink"><style type="text/css">
	.st0{fill:#F15842;}
	.st1{fill:#FFFFFF;}
</style><g><circle class="st0" cx="256" cy="256" id="XMLID_9_" r="256"/><g><g><g><g><path class="st1" d="M283.5,228.5c36.6,36.6,95.9,36.6,132.5,0c-18.3-18.3-42.3-27.5-66.3-27.5       C325.7,201.1,301.8,210.2,283.5,228.5z" id="XMLID_8_"/><path class="st1" d="M283.5,96c-36.6,36.6-36.6,95.9,0,132.5C320.1,191.9,320.1,132.6,283.5,96z" id="XMLID_7_"/></g><g><path class="st1" d="M228.5,228.5c-36.6,36.6-95.9,36.6-132.5,0c18.3-18.3,42.3-27.5,66.3-27.5       C186.3,201.1,210.2,210.2,228.5,228.5z" id="XMLID_6_"/><path class="st1" d="M228.5,96c36.6,36.6,36.6,95.9,0,132.5C191.9,191.9,191.9,132.6,228.5,96z" id="XMLID_5_"/></g></g><g><g><path class="st1" d="M228.5,283.5c-36.6-36.6-95.9-36.6-132.5,0c18.3,18.3,42.3,27.5,66.3,27.5       C186.3,310.9,210.2,301.8,228.5,283.5z" id="XMLID_4_"/><path class="st1" d="M228.5,416c36.6-36.6,36.6-95.9,0-132.5C191.9,320.1,191.9,379.4,228.5,416z" id="XMLID_3_"/></g><g><path class="st1" d="M283.5,283.5c36.6-36.6,95.9-36.6,132.5,0c-18.3,18.3-42.3,27.5-66.3,27.5       C325.7,310.9,301.8,301.8,283.5,283.5z" id="XMLID_2_"/><path class="st1" d="M283.5,416c-36.6-36.6-36.6-95.9,0-132.5C320.1,320.1,320.1,379.4,283.5,416z" id="XMLID_1_"/></g></g></g><g><path class="st1" d="M258.6,216.6h-5.2l-1.2,3.6h-1.9l5-13.9h1.6l4.9,13.9h-1.9L258.6,216.6z M253.9,215h4.2     l-2-6H256L253.9,215z" id="XMLID_1640_"/><path class="st1" d="M292.5,261.6v-13.9h4.5c1.5,0,2.6,0.3,3.4,0.9c0.8,0.6,1.2,1.6,1.2,2.8     c0,0.6-0.2,1.1-0.6,1.6c-0.4,0.5-0.9,0.8-1.5,1.1c0.9,0.1,1.6,0.5,2.2,1.2c0.5,0.7,0.8,1.4,0.8,2.3c0,1.3-0.4,2.2-1.2,2.9     c-0.8,0.7-1.9,1-3.4,1H292.5z M294.4,253.6h3c0.7,0,1.3-0.2,1.7-0.6c0.4-0.4,0.7-0.9,0.7-1.6c0-0.8-0.2-1.3-0.7-1.7     c-0.5-0.4-1.2-0.6-2-0.6h-2.7V253.6z M294.4,255v5h3.6c0.9,0,1.5-0.2,2-0.6c0.5-0.4,0.7-1,0.7-1.8c0-0.8-0.2-1.4-0.7-1.9     c-0.5-0.5-1.1-0.7-2-0.8h-0.1H294.4z" id="XMLID_1634_"/><path class="st1" d="M262.2,301.2L262.2,301.2c0,1.3-0.4,2.4-1.3,3.2c-0.9,0.9-2.1,1.3-3.6,1.3     c-1.5,0-2.8-0.5-3.7-1.6c-1-1.1-1.4-2.5-1.4-4.1v-2.4c0-1.7,0.5-3,1.4-4.1c1-1.1,2.2-1.6,3.7-1.6c1.5,0,2.7,0.4,3.6,1.2     c0.9,0.8,1.3,1.9,1.3,3.2l0,0.1h-1.8c0-0.9-0.3-1.7-0.8-2.2c-0.6-0.6-1.3-0.8-2.4-0.8c-1,0-1.8,0.4-2.4,1.2     c-0.6,0.8-0.9,1.8-0.9,3.1v2.4c0,1.2,0.3,2.3,0.9,3.1c0.6,0.8,1.4,1.2,2.4,1.2c1,0,1.8-0.3,2.4-0.8c0.6-0.5,0.8-1.3,0.8-2.3     H262.2z" id="XMLID_1630_"/><path class="st1" d="M209.4,261.5v-13.9h4.4c1.8,0,3.3,0.6,4.4,1.7c1.1,1.1,1.7,2.6,1.7,4.3v1.9     c0,1.8-0.6,3.2-1.7,4.3c-1.1,1.1-2.6,1.7-4.4,1.7H209.4z M211.3,249.1V260h2.5c1.3,0,2.3-0.4,3-1.3c0.7-0.8,1.1-1.9,1.1-3.3v-1.9     c0-1.3-0.4-2.4-1.1-3.2c-0.7-0.8-1.8-1.3-3-1.3H211.3z" id="XMLID_1622_"/></g></g></g></svg>