<?xml version="1.0" ?><svg id="Layer_1" style="enable-background:new 0 0 512 512;" version="1.1" viewBox="0 0 512 512" xml:space="preserve" xmlns="http://www.w3.org/2000/svg" xmlns:xlink="http://www.w3.org/1999/xlink"><style type="text/css">
	.st0{fill:#51647F;}
	.st1{fill:#FFFFFF;}
</style><g><circle class="st0" cx="256" cy="256" id="XMLID_45_" r="256"/><g><g><g><g id="XMLID_112_"><path class="st1" d="M346.9,218.4c0,13.6-5.2,27.2-15.6,37.6c10.4,10.4,15.6,24,15.6,37.6       c9.6-9.6,15.6-22.9,15.6-37.6C362.5,241.3,356.5,228,346.9,218.4z" id="XMLID_120_"/><path class="st1" d="M165.1,218.4c-9.6,9.6-15.6,22.9-15.6,37.6c0,14.7,6,28,15.6,37.6       c0-13.6,5.2-27.2,15.6-37.6C170.3,245.6,165.1,232,165.1,218.4z" id="XMLID_119_"/><path class="st1" d="M256,331.3c-10.4,10.4-24,15.6-37.6,15.6c9.6,9.6,22.9,15.6,37.6,15.6       c14.7,0,28-6,37.6-15.6C280,346.9,266.4,341.7,256,331.3z" id="XMLID_118_"/><path class="st1" d="M293.6,165.1c-9.6-9.6-22.9-15.6-37.6-15.6c-14.7,0-28,6-37.6,15.6       c13.6,0,27.2,5.2,37.6,15.6C266.4,170.3,280,165.1,293.6,165.1z" id="XMLID_117_"/><path class="st1" d="M293.6,346.9c13.6,0,27.2-5.2,37.6-15.6c10.4-10.4,15.6-24,15.6-37.6       c-9.6,9.6-22.9,15.6-37.6,15.6C309.2,323.9,303.3,337.2,293.6,346.9z" id="XMLID_116_"/><path class="st1" d="M218.4,165.1c-13.6,0-27.2,5.2-37.6,15.6c-10.4,10.4-15.6,24-15.6,37.6       c9.6-9.6,22.9-15.6,37.6-15.6C202.8,188.1,208.7,174.8,218.4,165.1z" id="XMLID_115_"/><path class="st1" d="M165.1,293.6c0,13.6,5.2,27.2,15.6,37.6c10.4,10.4,24,15.6,37.6,15.6       c-9.6-9.6-15.6-22.9-15.6-37.6C188.1,309.2,174.8,303.3,165.1,293.6z" id="XMLID_114_"/><path class="st1" d="M346.9,218.4c0-13.6-5.2-27.2-15.6-37.6c-10.4-10.4-24-15.6-37.6-15.6       c9.6,9.6,15.6,22.9,15.6,37.6C323.9,202.8,337.2,208.7,346.9,218.4z" id="XMLID_113_"/></g></g><g><path class="st1" d="M315.2,231.5c0,8.9-3.4,17.7-10.2,24.5c6.8,6.8,10.2,15.6,10.2,24.5      c6.3-6.3,10.2-14.9,10.2-24.5C325.3,246.4,321.5,237.8,315.2,231.5z" id="XMLID_36_"/><path class="st1" d="M196.8,231.5c-6.3,6.3-10.2,14.9-10.2,24.5c0,9.6,3.9,18.2,10.2,24.5      c0-8.9,3.4-17.7,10.2-24.5C200.2,249.2,196.8,240.4,196.8,231.5z" id="XMLID_35_"/><path class="st1" d="M256,305c-6.8,6.8-15.6,10.2-24.5,10.2c6.3,6.3,14.9,10.2,24.5,10.2      c9.6,0,18.2-3.9,24.5-10.2C271.6,315.2,262.8,311.8,256,305z" id="XMLID_34_"/><path class="st1" d="M280.5,196.8c-6.3-6.3-14.9-10.2-24.5-10.2c-9.6,0-18.2,3.9-24.5,10.2      c8.9,0,17.7,3.4,24.5,10.2C262.8,200.2,271.6,196.8,280.5,196.8z" id="XMLID_33_"/><path class="st1" d="M280.5,315.2c8.9,0,17.7-3.4,24.5-10.2c6.8-6.8,10.2-15.6,10.2-24.5      c-6.3,6.3-14.9,10.2-24.5,10.2C290.7,300.2,286.8,308.9,280.5,315.2z" id="XMLID_32_"/><path class="st1" d="M231.5,196.8c-8.9,0-17.7,3.4-24.5,10.2c-6.8,6.8-10.2,15.6-10.2,24.5      c6.3-6.3,14.9-10.2,24.5-10.2C221.3,211.8,225.2,203.1,231.5,196.8z" id="XMLID_31_"/><path class="st1" d="M196.8,280.5c0,8.9,3.4,17.7,10.2,24.5c6.8,6.8,15.6,10.2,24.5,10.2      c-6.3-6.3-10.2-14.9-10.2-24.5C211.8,290.7,203.1,286.8,196.8,280.5z" id="XMLID_30_"/><path class="st1" d="M315.2,231.5c0-8.9-3.4-17.7-10.2-24.5c-6.8-6.8-15.6-10.2-24.5-10.2      c6.3,6.3,10.2,14.9,10.2,24.5C300.2,221.3,308.9,225.2,315.2,231.5z" id="XMLID_29_"/></g><g><g id="XMLID_121_"><path class="st1" d="M295.6,239.6c0,5.9-2.3,11.9-6.8,16.4c4.5,4.5,6.8,10.5,6.8,16.4c4.2-4.2,6.8-10,6.8-16.4       C302.4,249.6,299.8,243.8,295.6,239.6z" id="XMLID_129_"/><path class="st1" d="M216.4,239.6c-4.2,4.2-6.8,10-6.8,16.4c0,6.4,2.6,12.2,6.8,16.4c0-5.9,2.3-11.9,6.8-16.4       C218.6,251.5,216.4,245.5,216.4,239.6z" id="XMLID_128_"/><path class="st1" d="M256,288.8c-4.5,4.5-10.5,6.8-16.4,6.8c4.2,4.2,10,6.8,16.4,6.8s12.2-2.6,16.4-6.8       C266.5,295.6,260.5,293.4,256,288.8z" id="XMLID_127_"/><path class="st1" d="M272.4,216.4c-4.2-4.2-10-6.8-16.4-6.8s-12.2,2.6-16.4,6.8c5.9,0,11.9,2.3,16.4,6.8       C260.5,218.6,266.5,216.4,272.4,216.4z" id="XMLID_126_"/><path class="st1" d="M272.4,295.6c5.9,0,11.9-2.3,16.4-6.8c4.5-4.5,6.8-10.5,6.8-16.4       c-4.2,4.2-10,6.8-16.4,6.8C279.2,285.6,276.6,291.4,272.4,295.6z" id="XMLID_125_"/><path class="st1" d="M239.6,216.4c-5.9,0-11.9,2.3-16.4,6.8c-4.5,4.5-6.8,10.5-6.8,16.4       c4.2-4.2,10-6.8,16.4-6.8C232.8,226.4,235.4,220.6,239.6,216.4z" id="XMLID_124_"/><path class="st1" d="M216.4,272.4c0,5.9,2.3,11.9,6.8,16.4c4.5,4.5,10.5,6.8,16.4,6.8       c-4.2-4.2-6.8-10-6.8-16.4C226.4,279.2,220.6,276.6,216.4,272.4z" id="XMLID_123_"/><path class="st1" d="M295.6,239.6c0-5.9-2.3-11.9-6.8-16.4c-4.5-4.5-10.5-6.8-16.4-6.8       c4.2,4.2,6.8,10,6.8,16.4C285.6,232.8,291.4,235.4,295.6,239.6z" id="XMLID_122_"/></g></g></g><g><path class="st1" d="M256,96c-22.1,0-42.1,9-56.6,23.4c20.5,0,40.9,7.8,56.6,23.4c15.6-15.6,36.1-23.4,56.6-23.4     C298.1,105,278.1,96,256,96z M252.8,128.4v-17h-4.3v-3.2l8.4-0.7v20.9H252.8z"/><path class="st1" d="M369.1,142.9c-15.6-15.6-36.1-23.4-56.6-23.4C327,133.9,336,153.9,336,176c22.1,0,42.1,9,56.6,23.4     C392.6,179,384.8,158.5,369.1,142.9z M359.3,169.3h-13.8v-2.7l6.4-7.2c1-1.1,1.6-2.1,2-2.9c0.4-0.8,0.6-1.5,0.6-2.1     c0-0.8-0.2-1.5-0.6-2c-0.4-0.5-1.1-0.8-1.9-0.8c-0.9,0-1.6,0.3-2.1,1c-0.5,0.7-0.7,1.5-0.7,2.5h-4l0-0.1c0-1.8,0.6-3.4,1.8-4.6     c1.3-1.3,2.9-1.9,5.1-1.9c2.1,0,3.8,0.5,4.9,1.6c1.2,1.1,1.8,2.5,1.8,4.4c0,1.2-0.3,2.4-1,3.4c-0.7,1-1.8,2.4-3.4,4.2l-3.4,4.1     l0,0.1h8.4V169.3z"/><path class="st1" d="M392.6,199.4c0,20.5-7.8,40.9-23.4,56.6c15.6,15.6,23.4,36.1,23.4,56.6C407,298.1,416,278.1,416,256     C416,233.9,407,213.9,392.6,199.4z M396.5,266.9c-1.4,1.1-3.1,1.6-5.2,1.6c-1.9,0-3.5-0.5-4.9-1.5c-1.4-1-2.1-2.4-2-4.3l0-0.1h4     c0,0.8,0.3,1.4,0.8,1.9c0.5,0.5,1.2,0.8,2.1,0.8c0.9,0,1.7-0.3,2.3-0.8c0.6-0.6,0.9-1.3,0.9-2.1c0-1.1-0.3-1.9-0.8-2.4     c-0.5-0.5-1.3-0.8-2.4-0.8h-2.3v-3.1h2.3c1,0,1.7-0.3,2.2-0.8c0.5-0.5,0.7-1.2,0.7-2.2c0-0.8-0.3-1.4-0.8-1.9     c-0.5-0.5-1.2-0.8-2.1-0.8c-0.8,0-1.4,0.2-1.9,0.7c-0.5,0.5-0.8,1.1-0.8,1.8h-4l0-0.1c-0.1-1.6,0.6-2.9,1.9-4     c1.3-1,2.9-1.6,4.8-1.6c2.1,0,3.8,0.5,5.1,1.5c1.3,1,1.9,2.4,1.9,4.3c0,0.9-0.3,1.8-0.8,2.6c-0.5,0.8-1.3,1.4-2.2,1.9     c1.1,0.4,1.9,1,2.5,1.8c0.6,0.8,0.9,1.8,0.9,3C398.5,264.3,397.8,265.8,396.5,266.9z"/><g><polygon class="st1" id="XMLID_14_" points="355.7,348 351.4,354.6 356.2,354.6 356.2,347.1 356.1,347.1     "/><path class="st1" d="M336,336c0,22.1-9,42.1-23.4,56.6c20.5,0,40.9-7.8,56.6-23.4c15.6-15.6,23.4-36.1,23.4-56.6      C378.1,327,358.1,336,336,336z M362.7,357.8h-2.3v4.5h-4.1v-4.5h-8.4l-0.2-2.5l8.5-13.7h4.2v12.9h2.3V357.8z"/></g><path class="st1" d="M256,369.1c-15.6,15.6-36.1,23.4-56.6,23.4C213.9,407,233.9,416,256,416s42.1-9,56.6-23.4     C292.1,392.6,271.6,384.8,256,369.1z M255.9,404.5c-1.9,0-3.5-0.5-4.9-1.5c-1.3-1-2-2.4-2-4.1l0-0.1l4-0.2c0,0.9,0.3,1.5,0.8,2     c0.5,0.5,1.2,0.7,2,0.7c1,0,1.7-0.3,2.1-1c0.4-0.6,0.7-1.6,0.7-2.7c0-1.2-0.2-2.1-0.7-2.8c-0.5-0.7-1.2-1.1-2.2-1.1     c-0.8,0-1.4,0.1-1.8,0.4s-0.7,0.7-0.9,1.2l-3.6-0.2l1.2-11.5h11.5v3.3h-8.1l-0.6,4.8c0.4-0.3,0.9-0.5,1.5-0.7     c0.6-0.2,1.2-0.3,1.9-0.3c1.9,0,3.4,0.6,4.5,1.8c1.1,1.2,1.6,2.9,1.6,5.1c0,2-0.6,3.7-1.7,5C260,403.9,258.3,404.5,255.9,404.5z"/><g><path class="st1" d="M165.4,358.6c-0.7,0-1.4,0.1-1.9,0.4c-0.5,0.2-0.9,0.6-1.2,1v1.1c0,1.6,0.3,2.8,0.9,3.7      c0.6,0.9,1.3,1.3,2.3,1.3c0.9,0,1.5-0.4,2.1-1.1c0.5-0.7,0.8-1.6,0.8-2.7c0-1.1-0.3-2-0.8-2.7      C167,358.9,166.3,358.6,165.4,358.6z" id="XMLID_9_"/><path class="st1" d="M176,336c-22.1,0-42.1-9-56.6-23.4c0,20.5,7.8,40.9,23.4,56.6c15.6,15.6,36.1,23.4,56.6,23.4      C185,378.1,176,358.1,176,336z M170.5,367.3c-1.3,1.3-3,1.9-5,1.9c-2.2,0-3.9-0.7-5.3-2.2c-1.4-1.5-2-3.5-2-6v-4.3      c0-2.6,0.8-4.7,2.3-6.3c1.5-1.6,3.5-2.4,5.8-2.4c0.8,0,1.5,0.1,2.2,0.2c0.7,0.1,1.4,0.4,2,0.6l-0.7,3c-0.6-0.2-1.2-0.4-1.7-0.5      c-0.5-0.1-1.1-0.2-1.8-0.2c-1.2,0-2.2,0.5-2.9,1.4c-0.7,0.9-1.1,2.2-1.1,3.9v0.7c0.5-0.5,1.2-1,2-1.3c0.8-0.3,1.6-0.4,2.5-0.4      c1.8,0,3.1,0.6,4.1,1.9c1,1.3,1.5,2.9,1.5,4.9C172.4,364.3,171.8,366,170.5,367.3z"/></g><path class="st1" d="M119.4,199.4C105,213.9,96,233.9,96,256c0,22.1,9,42.1,23.4,56.6c0-20.5,7.8-40.9,23.4-56.6     C127.2,240.4,119.4,219.9,119.4,199.4z M123.2,261.3c-0.8,2.2-1.3,4.7-1.3,7.5v2.5h-4.1v-2.5c0-2.9,0.5-5.5,1.6-7.8     c1.1-2.4,2.6-4.7,4.6-7h-10.5v-3.2H128v3.2C125.6,256.7,124.1,259.2,123.2,261.3z"/><g><path class="st1" d="M156.9,165.5c-0.9,0-1.7,0.3-2.3,0.9c-0.6,0.6-0.9,1.3-0.9,2.3c0,0.9,0.3,1.7,0.9,2.2      c0.6,0.6,1.4,0.8,2.3,0.8c0.8,0,1.6-0.3,2.1-0.8c0.6-0.6,0.8-1.3,0.8-2.2c0-0.9-0.3-1.7-0.9-2.3      C158.4,165.8,157.7,165.5,156.9,165.5z" id="XMLID_4_"/><path class="st1" d="M156.9,162.3c0.7,0,1.2-0.3,1.6-0.8c0.4-0.5,0.6-1.2,0.6-2c0-0.8-0.2-1.5-0.6-1.9      c-0.4-0.5-1-0.7-1.7-0.7c-0.8,0-1.4,0.2-1.9,0.7c-0.5,0.5-0.7,1.1-0.7,1.9c0,0.8,0.2,1.5,0.7,2      C155.5,162.1,156.1,162.3,156.9,162.3z" id="XMLID_3_"/><path class="st1" d="M142.9,142.9c-15.6,15.6-23.4,36.1-23.4,56.6C133.9,185,153.9,176,176,176c0-22.1,9-42.1,23.4-56.6      C179,119.4,158.5,127.2,142.9,142.9z M162,173.3c-1.3,1.1-3,1.6-5.1,1.6c-2.2,0-3.9-0.5-5.3-1.6c-1.4-1.1-2.1-2.5-2.1-4.5      c0-1.1,0.3-2.1,1-3c0.7-0.9,1.6-1.5,2.8-2c-1-0.4-1.7-1.1-2.3-1.8c-0.6-0.8-0.8-1.7-0.8-2.7c0-1.8,0.6-3.2,1.9-4.2      c1.2-1,2.8-1.5,4.8-1.5c1.9,0,3.4,0.5,4.6,1.5c1.2,1,1.8,2.4,1.8,4.2c0,1-0.3,1.9-0.8,2.7c-0.5,0.8-1.3,1.4-2.2,1.8      c1.1,0.5,2,1.1,2.7,2c0.7,0.9,1,1.9,1,3C164,170.7,163.3,172.2,162,173.3z"/></g></g></g></g></svg>