<?xml version="1.0" ?><svg id="Layer_1" style="enable-background:new 0 0 512 512;" version="1.1" viewBox="0 0 512 512" xml:space="preserve" xmlns="http://www.w3.org/2000/svg" xmlns:xlink="http://www.w3.org/1999/xlink"><style type="text/css">
	.st0{fill:#51647F;}
	.st1{fill:#FFFFFF;}
</style><g><circle class="st0" cx="256" cy="256" id="XMLID_29_" r="256"/><g><g><path class="st1" d="M392.6,199.4c0,20.5-7.8,40.9-23.4,56.6c15.6,15.6,23.4,36.1,23.4,56.6     C407,298.1,416,278.1,416,256S407,213.9,392.6,199.4z" id="XMLID_28_"/><path class="st1" d="M119.4,199.4C105,213.9,96,233.9,96,256s9,42.1,23.4,56.6c0-20.5,7.8-40.9,23.4-56.6     C127.2,240.4,119.4,219.9,119.4,199.4z" id="XMLID_27_"/><path class="st1" d="M199.4,392.6C213.9,407,233.9,416,256,416s42.1-9,56.6-23.4c-20.5,0-40.9-7.8-56.6-23.4     C240.4,384.8,219.9,392.6,199.4,392.6z" id="XMLID_26_"/><path class="st1" d="M312.6,119.4C298.1,105,278.1,96,256,96s-42.1,9-56.6,23.4c20.5,0,40.9,7.8,56.6,23.4     C271.6,127.2,292.1,119.4,312.6,119.4z" id="XMLID_25_"/><path class="st1" d="M312.6,392.6c20.5,0,40.9-7.8,56.6-23.4c15.6-15.6,23.4-36.1,23.4-56.6     C378.1,327,358.1,336,336,336C336,358.1,327,378.1,312.6,392.6z" id="XMLID_24_"/><path class="st1" d="M176,176c0-22.1,9-42.1,23.4-56.6c-20.5,0-40.9,7.8-56.6,23.4     c-15.6,15.6-23.4,36.1-23.4,56.6C133.9,185,153.9,176,176,176z" id="XMLID_23_"/><path class="st1" d="M119.4,312.6c0,20.5,7.8,40.9,23.4,56.6c15.6,15.6,36.1,23.4,56.6,23.4     C185,378.1,176,358.1,176,336C153.9,336,133.9,327,119.4,312.6z" id="XMLID_22_"/><path class="st1" d="M336,176c22.1,0,42.1,9,56.6,23.4c0-20.5-7.8-40.9-23.4-56.6c-15.6-15.6-36.1-23.4-56.6-23.4     C327,133.9,336,153.9,336,176z" id="XMLID_21_"/></g><g><path class="st1" d="M256,142.9c-15.6,15.6-23.4,36.1-23.4,56.6C247,213.9,256,233.9,256,256c0-22.1,9-42.1,23.4-56.6     C279.4,179,271.6,158.5,256,142.9z M253.9,173.4v-11h-2.8v-2l5.4-0.5v13.5H253.9z"/><path class="st1" d="M279.4,199.4c0,20.5-7.8,40.9-23.4,56.6c15.6-15.6,36.1-23.4,56.6-23.4C327,218.1,336,198.1,336,176     C313.9,176,293.9,185,279.4,199.4z M313.9,199.9v-1.7l4.1-4.7c0.6-0.7,1.1-1.3,1.3-1.8c0.3-0.5,0.4-1,0.4-1.4     c0-0.5-0.1-1-0.4-1.3c-0.3-0.3-0.7-0.5-1.2-0.5c-0.6,0-1,0.2-1.3,0.6c-0.3,0.4-0.5,1-0.5,1.6h-2.6l0-0.1c0-1.2,0.4-2.2,1.2-3     c0.8-0.8,1.9-1.2,3.3-1.2c1.4,0,2.4,0.3,3.2,1c0.8,0.7,1.1,1.6,1.1,2.8c0,0.8-0.2,1.5-0.6,2.2c-0.4,0.7-1.2,1.6-2.2,2.7l-2.2,2.6     l0,0h5.5v2.1H313.9z"/><path class="st1" d="M312.6,232.6C298.1,247,278.1,256,256,256c22.1,0,42.1,9,56.6,23.4c20.5,0,40.9-7.8,56.6-23.4     C353.5,240.4,333,232.6,312.6,232.6z M346.9,263c-0.9,0.7-2,1-3.4,1c-1.2,0-2.3-0.3-3.2-1c-0.9-0.7-1.3-1.6-1.3-2.8l0-0.1h2.6     c0,0.5,0.2,0.9,0.5,1.3c0.4,0.3,0.8,0.5,1.4,0.5c0.6,0,1.1-0.2,1.5-0.5c0.4-0.4,0.6-0.8,0.6-1.4c0-0.7-0.2-1.2-0.5-1.6     c-0.4-0.3-0.9-0.5-1.6-0.5H342v-2h1.5c0.6,0,1.1-0.2,1.4-0.5c0.3-0.3,0.5-0.8,0.5-1.4c0-0.5-0.2-0.9-0.5-1.2     c-0.3-0.3-0.8-0.5-1.4-0.5c-0.5,0-0.9,0.1-1.2,0.4c-0.3,0.3-0.5,0.7-0.5,1.1h-2.6l0-0.1c0-1,0.4-1.9,1.2-2.6c0.8-0.7,1.9-1,3.1-1     c1.4,0,2.5,0.3,3.3,1s1.2,1.6,1.2,2.8c0,0.6-0.2,1.2-0.5,1.7c-0.4,0.5-0.8,0.9-1.4,1.2c0.7,0.3,1.2,0.7,1.6,1.2     c0.4,0.5,0.6,1.2,0.6,1.9C348.2,261.4,347.8,262.3,346.9,263z"/><g><polygon class="st1" id="XMLID_14_" points="320.5,315.6 317.7,319.8 320.9,319.8 320.9,315 320.8,315     "/><path class="st1" d="M312.6,279.4c-20.5,0-40.9-7.8-56.6-23.4c15.6,15.6,23.4,36.1,23.4,56.6C293.9,327,313.9,336,336,336      C336,313.9,327,293.9,312.6,279.4z M323.5,321.9v2.9h-2.7v-2.9h-5.4l-0.1-1.6l5.5-8.8h2.7v8.4h1.5v2.1H323.5z"/></g><path class="st1" d="M256,256c0,22.1-9,42.1-23.4,56.6c0,20.5,7.8,40.9,23.4,56.6c15.6-15.6,23.4-36.1,23.4-56.6     C265,298.1,256,278.1,256,256z M256,352.1c-1.2,0-2.3-0.3-3.2-1c-0.9-0.7-1.3-1.5-1.3-2.7l0,0l2.6-0.1c0,0.6,0.2,1,0.5,1.3     c0.3,0.3,0.8,0.5,1.3,0.5c0.6,0,1.1-0.2,1.4-0.6c0.3-0.4,0.4-1,0.4-1.8c0-0.8-0.2-1.4-0.5-1.8c-0.3-0.5-0.8-0.7-1.4-0.7     c-0.5,0-0.9,0.1-1.2,0.3c-0.3,0.2-0.5,0.4-0.6,0.8l-2.4-0.2l0.8-7.5h7.4v2.1h-5.2l-0.4,3.1c0.3-0.2,0.6-0.3,0.9-0.5     c0.4-0.1,0.8-0.2,1.2-0.2c1.2,0,2.2,0.4,2.9,1.1c0.7,0.8,1,1.9,1,3.3c0,1.3-0.4,2.4-1.1,3.2C258.6,351.7,257.5,352.1,256,352.1z"/><g><path class="st1" d="M197.4,322.4c-0.5,0-0.9,0.1-1.2,0.2c-0.3,0.2-0.6,0.4-0.8,0.6v0.7c0,1,0.2,1.8,0.6,2.4      c0.4,0.6,0.9,0.8,1.5,0.8c0.6,0,1-0.2,1.3-0.7c0.3-0.5,0.5-1.1,0.5-1.8c0-0.7-0.2-1.3-0.5-1.7      C198.4,322.6,197.9,322.4,197.4,322.4z" id="XMLID_9_"/><path class="st1" d="M199.4,279.4C185,293.9,176,313.9,176,336c22.1,0,42.1-9,56.6-23.4c0-20.5,7.8-40.9,23.4-56.6      C240.4,271.6,219.9,279.4,199.4,279.4z M200.6,328c-0.8,0.8-1.9,1.3-3.3,1.3c-1.4,0-2.5-0.5-3.4-1.4c-0.9-1-1.3-2.3-1.3-3.9      v-2.8c0-1.7,0.5-3,1.5-4.1c1-1,2.2-1.5,3.8-1.5c0.5,0,1,0,1.4,0.1c0.4,0.1,0.9,0.2,1.3,0.4l-0.5,2c-0.4-0.1-0.8-0.2-1.1-0.3      c-0.3-0.1-0.7-0.1-1.1-0.1c-0.8,0-1.4,0.3-1.9,0.9c-0.5,0.6-0.7,1.4-0.7,2.5v0.4c0.4-0.3,0.8-0.6,1.3-0.8c0.5-0.2,1-0.3,1.6-0.3      c1.1,0,2,0.4,2.7,1.2c0.6,0.8,1,1.9,1,3.2C201.9,326.1,201.5,327.2,200.6,328z"/></g><path class="st1" d="M199.4,232.6c-20.5,0-40.9,7.8-56.6,23.4c15.6,15.6,36.1,23.4,56.6,23.4C213.9,265,233.9,256,256,256     C233.9,256,213.9,247,199.4,232.6z M173.1,254.7c-1.5,1.8-2.5,3.4-3.1,4.8c-0.5,1.4-0.8,3-0.8,4.9v1.6h-2.7v-1.6     c0-1.9,0.3-3.5,1-5.1s1.7-3,3-4.5h-6.8v-2.1h9.4V254.7z"/><g><path class="st1" d="M191.8,197.4c-0.6,0-1.1,0.2-1.5,0.6c-0.4,0.4-0.6,0.9-0.6,1.5c0,0.6,0.2,1.1,0.6,1.4      c0.4,0.4,0.9,0.5,1.5,0.5c0.5,0,1-0.2,1.4-0.5c0.4-0.4,0.5-0.8,0.5-1.4c0-0.6-0.2-1.1-0.6-1.5      C192.8,197.6,192.4,197.4,191.8,197.4z" id="XMLID_4_"/><path class="st1" d="M191.9,195.4c0.4,0,0.8-0.2,1.1-0.5c0.3-0.3,0.4-0.8,0.4-1.3c0-0.5-0.1-0.9-0.4-1.3      c-0.3-0.3-0.6-0.5-1.1-0.5c-0.5,0-0.9,0.2-1.2,0.5c-0.3,0.3-0.4,0.7-0.4,1.3c0,0.5,0.2,1,0.5,1.3S191.4,195.4,191.9,195.4z" id="XMLID_3_"/><path class="st1" d="M232.6,199.4C218.1,185,198.1,176,176,176c0,22.1,9,42.1,23.4,56.6c20.5,0,40.9,7.8,56.6,23.4      C240.4,240.4,232.6,219.9,232.6,199.4z M195.1,202.5c-0.9,0.7-2,1-3.3,1c-1.4,0-2.5-0.3-3.4-1c-0.9-0.7-1.3-1.6-1.3-2.9      c0-0.7,0.2-1.4,0.7-1.9c0.4-0.6,1-1,1.8-1.3c-0.6-0.3-1.1-0.7-1.5-1.2c-0.4-0.5-0.5-1.1-0.5-1.8c0-1.2,0.4-2.1,1.2-2.7      c0.8-0.6,1.8-0.9,3.1-0.9c1.2,0,2.2,0.3,3,0.9c0.8,0.6,1.2,1.5,1.2,2.7c0,0.7-0.2,1.2-0.5,1.8c-0.3,0.5-0.8,0.9-1.4,1.2      c0.7,0.3,1.3,0.7,1.7,1.3c0.4,0.6,0.6,1.2,0.6,1.9C196.4,200.8,196,201.8,195.1,202.5z"/></g></g></g></g></svg>