<?xml version="1.0" ?><svg id="Layer_1" style="enable-background:new 0 0 512 512;" version="1.1" viewBox="0 0 512 512" xml:space="preserve" xmlns="http://www.w3.org/2000/svg" xmlns:xlink="http://www.w3.org/1999/xlink"><style type="text/css">
	.st0{fill:#51647F;}
	.st1{fill:#FFFFFF;}
</style><g><circle class="st0" cx="256" cy="256" id="XMLID_60_" r="256"/><g><g><g><path class="st1" d="M163,230.4c0,4.6-1.8,9.3-5.3,12.8c3.5,3.5,5.3,8.2,5.3,12.8c3.3-3.3,5.3-7.8,5.3-12.8      C168.3,238.2,166.3,233.7,163,230.4z" id="XMLID_59_"/><path class="st1" d="M101.3,230.4c-3.3,3.3-5.3,7.8-5.3,12.8c0,5,2,9.5,5.3,12.8c0-4.6,1.8-9.3,5.3-12.8      C103.1,239.7,101.3,235.1,101.3,230.4z" id="XMLID_58_"/><path class="st1" d="M132.1,268.8c-3.5,3.5-8.2,5.3-12.8,5.3c3.3,3.3,7.8,5.3,12.8,5.3s9.5-2,12.8-5.3      C140.3,274.1,135.7,272.3,132.1,268.8z" id="XMLID_57_"/><path class="st1" d="M144.9,212.4c-3.3-3.3-7.8-5.3-12.8-5.3s-9.5,2-12.8,5.3c4.6,0,9.3,1.8,12.8,5.3      C135.7,214.1,140.3,212.4,144.9,212.4z" id="XMLID_56_"/><path class="st1" d="M144.9,274.1c4.6,0,9.3-1.8,12.8-5.3c3.5-3.5,5.3-8.2,5.3-12.8c-3.3,3.3-7.8,5.3-12.8,5.3      C150.2,266.3,148.2,270.8,144.9,274.1z" id="XMLID_55_"/><path class="st1" d="M119.4,212.4c-4.6,0-9.3,1.8-12.8,5.3c-3.5,3.5-5.3,8.2-5.3,12.8c3.3-3.3,7.8-5.3,12.8-5.3      C114.1,220.2,116.1,215.6,119.4,212.4z" id="XMLID_54_"/><path class="st1" d="M101.3,256c0,4.6,1.8,9.3,5.3,12.8c3.5,3.5,8.2,5.3,12.8,5.3c-3.3-3.3-5.3-7.8-5.3-12.8      C109.1,261.3,104.6,259.3,101.3,256z" id="XMLID_53_"/><path class="st1" d="M163,230.4c0-4.6-1.8-9.3-5.3-12.8c-3.5-3.5-8.2-5.3-12.8-5.3c3.3,3.3,5.3,7.8,5.3,12.8      C155.2,225.1,159.7,227.2,163,230.4z" id="XMLID_52_"/></g><g><path class="st1" d="M245.6,256c0,4.6-1.8,9.3-5.3,12.8c3.5,3.5,5.3,8.2,5.3,12.8c3.3-3.3,5.3-7.8,5.3-12.8      C250.9,263.8,248.8,259.3,245.6,256z" id="XMLID_51_"/><path class="st1" d="M183.9,256c-3.3,3.3-5.3,7.8-5.3,12.8c0,5,2,9.5,5.3,12.8c0-4.6,1.8-9.3,5.3-12.8      C185.6,265.3,183.9,260.6,183.9,256z" id="XMLID_50_"/><path class="st1" d="M214.7,294.3c-3.5,3.5-8.2,5.3-12.8,5.3c3.3,3.3,7.8,5.3,12.8,5.3c5,0,9.5-2,12.8-5.3      C222.9,299.6,218.2,297.9,214.7,294.3z" id="XMLID_49_"/><path class="st1" d="M227.5,237.9c-3.3-3.3-7.8-5.3-12.8-5.3c-5,0-9.5,2-12.8,5.3c4.6,0,9.3,1.8,12.8,5.3      C218.2,239.7,222.9,237.9,227.5,237.9z" id="XMLID_48_"/><path class="st1" d="M227.5,299.6c4.6,0,9.3-1.8,12.8-5.3c3.5-3.5,5.3-8.2,5.3-12.8c-3.3,3.3-7.8,5.3-12.8,5.3      C232.8,291.8,230.8,296.4,227.5,299.6z" id="XMLID_47_"/><path class="st1" d="M201.9,237.9c-4.6,0-9.3,1.8-12.8,5.3c-3.5,3.5-5.3,8.2-5.3,12.8c3.3-3.3,7.8-5.3,12.8-5.3      C196.6,245.7,198.7,241.2,201.9,237.9z" id="XMLID_46_"/><path class="st1" d="M183.9,281.6c0,4.6,1.8,9.3,5.3,12.8c3.5,3.5,8.2,5.3,12.8,5.3c-3.3-3.3-5.3-7.8-5.3-12.8      C191.7,286.9,187.1,284.8,183.9,281.6z" id="XMLID_45_"/><path class="st1" d="M245.6,256c0-4.6-1.8-9.3-5.3-12.8c-3.5-3.5-8.2-5.3-12.8-5.3c3.3,3.3,5.3,7.8,5.3,12.8      C237.8,250.7,242.3,252.7,245.6,256z" id="XMLID_44_"/></g><g><path class="st1" d="M328.1,230.4c0,4.6-1.8,9.3-5.3,12.8c3.5,3.5,5.3,8.2,5.3,12.8c3.3-3.3,5.3-7.8,5.3-12.8      C333.4,238.2,331.4,233.7,328.1,230.4z" id="XMLID_43_"/><path class="st1" d="M266.4,230.4c-3.3,3.3-5.3,7.8-5.3,12.8c0,5,2,9.5,5.3,12.8c0-4.6,1.8-9.3,5.3-12.8      C268.2,239.7,266.4,235.1,266.4,230.4z" id="XMLID_42_"/><path class="st1" d="M297.3,268.8c-3.5,3.5-8.2,5.3-12.8,5.3c3.3,3.3,7.8,5.3,12.8,5.3c5,0,9.5-2,12.8-5.3      C305.4,274.1,300.8,272.3,297.3,268.8z" id="XMLID_41_"/><path class="st1" d="M310.1,212.4c-3.3-3.3-7.8-5.3-12.8-5.3c-5,0-9.5,2-12.8,5.3c4.6,0,9.3,1.8,12.8,5.3      C300.8,214.1,305.4,212.4,310.1,212.4z" id="XMLID_36_"/><path class="st1" d="M310.1,274.1c4.6,0,9.3-1.8,12.8-5.3c3.5-3.5,5.3-8.2,5.3-12.8c-3.3,3.3-7.8,5.3-12.8,5.3      C315.4,266.3,313.3,270.8,310.1,274.1z" id="XMLID_31_"/><path class="st1" d="M284.5,212.4c-4.6,0-9.3,1.8-12.8,5.3c-3.5,3.5-5.3,8.2-5.3,12.8c3.3-3.3,7.8-5.3,12.8-5.3      C279.2,220.2,281.2,215.6,284.5,212.4z" id="XMLID_26_"/><path class="st1" d="M266.4,256c0,4.6,1.8,9.3,5.3,12.8c3.5,3.5,8.2,5.3,12.8,5.3c-3.3-3.3-5.3-7.8-5.3-12.8      C274.2,261.3,269.7,259.3,266.4,256z" id="XMLID_25_"/><path class="st1" d="M328.1,230.4c0-4.6-1.8-9.3-5.3-12.8c-3.5-3.5-8.2-5.3-12.8-5.3c3.3,3.3,5.3,7.8,5.3,12.8      C320.3,225.1,324.9,227.2,328.1,230.4z" id="XMLID_21_"/></g><g><path class="st1" d="M410.7,256c0,4.6-1.8,9.3-5.3,12.8c3.5,3.5,5.3,8.2,5.3,12.8c3.3-3.3,5.3-7.8,5.3-12.8      C416,263.8,414,259.3,410.7,256z" id="XMLID_20_"/><path class="st1" d="M349,256c-3.3,3.3-5.3,7.8-5.3,12.8c0,5,2,9.5,5.3,12.8c0-4.6,1.8-9.3,5.3-12.8      C350.8,265.3,349,260.6,349,256z" id="XMLID_19_"/><path class="st1" d="M379.9,294.3c-3.5,3.5-8.2,5.3-12.8,5.3c3.3,3.3,7.8,5.3,12.8,5.3s9.5-2,12.8-5.3      C388,299.6,383.4,297.9,379.9,294.3z" id="XMLID_18_"/><path class="st1" d="M392.6,237.9c-3.3-3.3-7.8-5.3-12.8-5.3s-9.5,2-12.8,5.3c4.6,0,9.3,1.8,12.8,5.3      C383.4,239.7,388,237.9,392.6,237.9z" id="XMLID_17_"/><path class="st1" d="M392.6,299.6c4.6,0,9.3-1.8,12.8-5.3c3.5-3.5,5.3-8.2,5.3-12.8c-3.3,3.3-7.8,5.3-12.8,5.3      C397.9,291.8,395.9,296.4,392.6,299.6z" id="XMLID_16_"/><path class="st1" d="M367.1,237.9c-4.6,0-9.3,1.8-12.8,5.3c-3.5,3.5-5.3,8.2-5.3,12.8c3.3-3.3,7.8-5.3,12.8-5.3      C361.8,245.7,363.8,241.2,367.1,237.9z" id="XMLID_15_"/><path class="st1" d="M349,281.6c0,4.6,1.8,9.3,5.3,12.8c3.5,3.5,8.2,5.3,12.8,5.3c-3.3-3.3-5.3-7.8-5.3-12.8      C356.8,286.9,352.3,284.8,349,281.6z" id="XMLID_14_"/><path class="st1" d="M410.7,256c0-4.6-1.8-9.3-5.3-12.8c-3.5-3.5-8.2-5.3-12.8-5.3c3.3,3.3,5.3,7.8,5.3,12.8      C402.9,250.7,407.4,252.7,410.7,256z" id="XMLID_13_"/></g></g><g><polygon class="st1" id="XMLID_12_" points="132.2,236.5 128.8,246.1 135.5,246.1 132.3,236.5    "/><path class="st1" d="M132.1,217.8c-14,0-25.4,11.4-25.4,25.4c0,14,11.4,25.4,25.4,25.4s25.4-11.4,25.4-25.4     C157.6,229.2,146.2,217.8,132.1,217.8z M138.3,254.4l-2-5.8h-8.4l-2,5.8h-3.1l8.1-22.4h2.6l7.9,22.4H138.3z"/></g><g><path class="st1" d="M215.5,269.3h-0.2h-5.7v8.1h5.8c1.4,0,2.5-0.3,3.2-1c0.8-0.7,1.1-1.6,1.1-2.9     c0-1.2-0.4-2.2-1.2-3C217.9,269.8,216.8,269.4,215.5,269.3z" id="XMLID_9_"/><path class="st1" d="M217.3,266c0.7-0.6,1.1-1.5,1.1-2.6c0-1.2-0.4-2.1-1.1-2.7c-0.8-0.6-1.9-0.9-3.3-0.9h-4.3v7.1     h4.9C215.6,267,216.6,266.7,217.3,266z" id="XMLID_8_"/><path class="st1" d="M214.7,243.4c-14,0-25.4,11.4-25.4,25.4c0,14,11.4,25.4,25.4,25.4s25.4-11.4,25.4-25.4     C240.1,254.7,228.8,243.4,214.7,243.4z M220.9,278.2c-1.3,1.1-3.1,1.6-5.4,1.6h-8.9v-22.4h7.3c2.3,0,4.2,0.5,5.5,1.5     c1.3,1,2,2.5,2,4.5c0,1-0.3,1.8-0.9,2.6c-0.6,0.8-1.4,1.3-2.4,1.7c1.5,0.2,2.6,0.8,3.5,1.9c0.9,1.1,1.3,2.3,1.3,3.8     C222.9,275.6,222.2,277.1,220.9,278.2z"/></g><path class="st1" d="M297.3,217.8c-14,0-25.4,11.4-25.4,25.4c0,14,11.4,25.4,25.4,25.4c14,0,25.4-11.4,25.4-25.4    C322.7,229.2,311.3,217.8,297.3,217.8z M290.9,250.1c1,1.3,2.3,2,3.9,2c1.6,0,2.9-0.4,3.8-1.3c0.9-0.9,1.3-2.1,1.3-3.7h2.8l0,0.1    c0,2-0.7,3.8-2.2,5.1c-1.5,1.4-3.4,2.1-5.8,2.1c-2.5,0-4.5-0.9-6-2.6c-1.6-1.7-2.3-4-2.3-6.6v-3.9c0-2.7,0.8-4.9,2.3-6.6    c1.6-1.7,3.6-2.6,6-2.6c2.5,0,4.4,0.7,5.9,2c1.5,1.3,2.2,3,2.1,5.2l0,0.1h-2.8c0-1.5-0.4-2.7-1.3-3.6c-0.9-0.9-2.2-1.3-3.8-1.3    c-1.6,0-3,0.7-3.9,2c-1,1.3-1.5,3-1.5,4.9v3.9C289.4,247.1,289.9,248.8,290.9,250.1z"/><g><path class="st1" d="M380.4,259.4h-4V277h4c2.1,0,3.7-0.7,4.9-2c1.2-1.4,1.8-3.1,1.8-5.2v-3.1     c0-2.1-0.6-3.9-1.8-5.2C384.1,260,382.5,259.4,380.4,259.4z" id="XMLID_3_"/><path class="st1" d="M379.9,243.4c-14,0-25.4,11.4-25.4,25.4c0,14,11.4,25.4,25.4,25.4c14,0,25.4-11.4,25.4-25.4     C405.3,254.7,393.9,243.4,379.9,243.4z M390.1,269.7c0,2.9-0.9,5.2-2.7,7c-1.8,1.8-4.1,2.7-7.1,2.7h-7V257h7     c2.9,0,5.3,0.9,7.1,2.7c1.8,1.8,2.7,4.1,2.7,7V269.7z"/></g></g></g></svg>