<?xml version="1.0" ?><svg id="Layer_1" style="enable-background:new 0 0 512 512;" version="1.1" viewBox="0 0 512 512" xml:space="preserve" xmlns="http://www.w3.org/2000/svg" xmlns:xlink="http://www.w3.org/1999/xlink"><style type="text/css">
	.st0{fill:#54A27C;}
	.st1{fill:#FFFFFF;}
</style><g><circle class="st0" cx="256" cy="256" id="XMLID_17_" r="256"/><g><g><path class="st1" d="M256,256c-21.9,21.9-30.7,51.8-26.4,80.2c8.3,2.7,17.2,4.2,26.4,4.2c9.2,0,18.1-1.5,26.4-4.2     C286.7,307.8,277.9,277.9,256,256z" id="XMLID_16_"/><path class="st1" d="M256,256c-21.9-21.9-51.8-30.7-80.2-26.4c-2.7,8.3-4.2,17.2-4.2,26.4     c0,9.2,1.5,18.1,4.2,26.4C204.2,286.7,234.1,277.9,256,256z" id="XMLID_15_"/><path class="st1" d="M336.2,229.6c-28.4-4.3-58.4,4.5-80.2,26.4c21.9,21.9,51.8,30.7,80.2,26.4     c2.7-8.3,4.2-17.2,4.2-26.4C340.5,246.8,339,237.9,336.2,229.6z" id="XMLID_14_"/><path class="st1" d="M256,256c21.9-21.9,30.7-51.8,26.4-80.2c-8.3-2.7-17.2-4.2-26.4-4.2     c-9.2,0-18.1,1.5-26.4,4.2C225.3,204.2,234.1,234.1,256,256z" id="XMLID_13_"/></g><g><polygon class="st1" id="XMLID_12_" points="171.6,149.5 168.2,159.1 174.9,159.1 171.7,149.5    "/><path class="st1" d="M123.5,123.5c-36.6,36.6-36.6,95.9,0,132.5c14.7-14.7,33.2-23.5,52.3-26.4c8.4-25.4,28.4-45.5,53.8-53.8     c2.9-19.1,11.7-37.6,26.4-52.3C219.4,86.8,160.1,86.8,123.5,123.5z M177.7,167.4l-2-5.8h-8.4l-2,5.8h-3.1l8.1-22.4h2.6l7.9,22.4     H177.7z"/></g><g><path class="st1" d="M351.1,157.7c0.7-0.6,1.1-1.5,1.1-2.6c0-1.2-0.4-2.1-1.1-2.7c-0.8-0.6-1.9-0.9-3.3-0.9h-4.3     v7.1h4.9C349.5,158.7,350.4,158.4,351.1,157.7z" id="XMLID_9_"/><path class="st1" d="M349.4,161h-0.2h-5.7v8.1h5.8c1.4,0,2.5-0.3,3.2-1c0.8-0.7,1.1-1.6,1.1-2.9     c0-1.2-0.4-2.2-1.2-3C351.7,161.5,350.7,161.1,349.4,161z" id="XMLID_8_"/><path class="st1" d="M388.5,123.5c-36.6-36.6-95.9-36.6-132.5,0c14.7,14.7,23.5,33.2,26.4,52.3c25.4,8.4,45.5,28.4,53.8,53.8     c19.1,2.9,37.6,11.7,52.3,26.4C425.2,219.4,425.2,160.1,388.5,123.5z M354.7,169.9c-1.3,1.1-3.1,1.6-5.4,1.6h-8.9v-22.4h7.3     c2.3,0,4.2,0.5,5.5,1.5c1.3,1,2,2.5,2,4.5c0,1-0.3,1.8-0.9,2.6c-0.6,0.8-1.4,1.3-2.4,1.7c1.5,0.2,2.6,0.8,3.5,1.9     s1.3,2.3,1.3,3.8C356.7,167.3,356.1,168.8,354.7,169.9z"/></g><path class="st1" d="M388.5,256c-14.7,14.7-33.2,23.5-52.3,26.4c-8.4,25.4-28.4,45.5-53.8,53.8c-2.9,19.1-11.7,37.6-26.4,52.3    c36.6,36.6,95.9,36.6,132.5,0C425.2,351.9,425.2,292.6,388.5,256z M340.6,351.2c1,1.3,2.3,2,3.9,2c1.6,0,2.9-0.4,3.8-1.3    c0.9-0.9,1.3-2.1,1.3-3.7h2.8l0,0.1c0,2-0.7,3.8-2.2,5.1c-1.5,1.4-3.4,2.1-5.8,2.1c-2.5,0-4.5-0.9-6-2.6c-1.6-1.7-2.3-4-2.3-6.6    v-3.9c0-2.7,0.8-4.9,2.3-6.6c1.6-1.7,3.6-2.6,6-2.6s4.4,0.7,5.9,2c1.5,1.3,2.2,3,2.1,5.2l0,0.1h-2.8c0-1.5-0.4-2.7-1.3-3.6    c-0.9-0.9-2.2-1.3-3.8-1.3c-1.6,0-3,0.7-3.9,2c-1,1.3-1.5,3-1.5,4.9v3.9C339.1,348.2,339.6,349.9,340.6,351.2z"/><g><path class="st1" d="M171.1,335.5h-4v17.6h4c2.1,0,3.7-0.7,4.9-2c1.2-1.4,1.8-3.1,1.8-5.2v-3.1     c0-2.1-0.6-3.9-1.8-5.2C174.8,336.2,173.2,335.5,171.1,335.5z" id="XMLID_3_"/><path class="st1" d="M229.6,336.2c-25.4-8.4-45.5-28.4-53.8-53.8c-19.1-2.9-37.6-11.7-52.3-26.4c-36.6,36.6-36.6,95.9,0,132.5     c36.6,36.6,95.9,36.6,132.5,0C241.3,373.8,232.5,355.4,229.6,336.2z M180.8,345.9c0,2.9-0.9,5.2-2.7,7c-1.8,1.8-4.1,2.7-7.1,2.7     h-7v-22.4h7c2.9,0,5.3,0.9,7.1,2.7c1.8,1.8,2.7,4.1,2.7,7V345.9z"/></g></g></g></svg>