<?xml version="1.0" ?><svg id="Layer_1" style="enable-background:new 0 0 512 512;" version="1.1" viewBox="0 0 512 512" xml:space="preserve" xmlns="http://www.w3.org/2000/svg" xmlns:xlink="http://www.w3.org/1999/xlink"><style type="text/css">
	.st0{fill:#F15842;}
	.st1{fill:#FFFFFF;}
</style><g><circle class="st0" cx="256" cy="256" id="XMLID_18_" r="256"/><g><g><path class="st1" d="M345.1,219.1c-9.4-9.4-22.5-15.3-36.9-15.3c0-14.4-5.8-27.5-15.3-36.9c-13.4,0-26.7,5.1-36.9,15.3     c-10.2-10.2-23.5-15.3-36.9-15.3c-9.4,9.4-15.3,22.5-15.3,36.9c-14.4,0-27.5,5.8-36.9,15.3c0,13.4,5.1,26.7,15.3,36.9     c-10.2,10.2-15.3,23.5-15.3,36.9c9.4,9.4,22.5,15.3,36.9,15.3c0,14.4,5.8,27.5,15.3,36.9c13.4,0,26.7-5.1,36.9-15.3     c10.2,10.2,23.5,15.3,36.9,15.3c9.4-9.4,15.3-22.5,15.3-36.9c14.4,0,27.5-5.8,36.9-15.3c0-13.4-5.1-26.7-15.3-36.9     C340,245.8,345.1,232.5,345.1,219.1z M329.9,286.6c-6.3,4.5-13.9,6.9-21.8,6.9h-14.6v14.6c0,7.9-2.4,15.5-6.9,21.8     c-7.7-1.3-14.7-4.9-20.3-10.5L256,309.1l-10.3,10.3c-5.6,5.6-12.6,9.2-20.3,10.5c-4.5-6.3-6.9-13.9-6.9-21.8v-14.6h-14.6     c-7.9,0-15.5-2.4-21.8-6.9c1.3-7.7,4.9-14.7,10.5-20.3l10.3-10.3l-10.3-10.3c-5.6-5.6-9.2-12.6-10.5-20.3     c6.3-4.5,13.9-6.9,21.8-6.9h14.6v-14.6c0-7.9,2.4-15.5,6.9-21.8c7.7,1.3,14.7,4.9,20.3,10.5l10.3,10.3l10.3-10.3     c5.6-5.6,12.6-9.2,20.3-10.5c4.5,6.3,6.9,13.9,6.9,21.8v14.6h14.6c7.9,0,15.5,2.4,21.8,6.9c-1.3,7.7-4.9,14.7-10.5,20.3     L309.1,256l10.3,10.3C325.1,271.9,328.7,279,329.9,286.6z"/><circle class="st1" cx="256" cy="256" id="XMLID_15_" r="35.8"/></g><g><path class="st1" d="M171.4,184c0.7,0,1.3-0.2,1.8-0.7c0.5-0.5,0.7-1.1,0.7-1.9c0-0.8-0.2-1.4-0.7-1.9     c-0.5-0.5-1.1-0.8-1.8-0.8c-0.8,0-1.4,0.3-2,0.8c-0.5,0.5-0.8,1.1-0.8,1.9c0,0.8,0.3,1.4,0.8,1.9     C169.9,183.8,170.6,184,171.4,184z" id="XMLID_14_"/><polygon class="st1" id="XMLID_13_" points="341.1,334.6 337.4,340.2 341.6,340.2 341.6,333.8 341.5,333.8    "/><path class="st1" d="M171.4,176c0.6,0,1-0.2,1.4-0.7c0.4-0.4,0.5-1,0.5-1.7c0-0.7-0.2-1.2-0.5-1.6     c-0.4-0.4-0.8-0.6-1.4-0.6c-0.7,0-1.2,0.2-1.6,0.6c-0.4,0.4-0.6,1-0.6,1.7c0,0.7,0.2,1.3,0.6,1.7     C170.2,175.8,170.7,176,171.4,176z" id="XMLID_12_"/><path class="st1" d="M178.7,343.6c-0.6,0-1.2,0.1-1.6,0.3c-0.4,0.2-0.8,0.5-1,0.9v0.9c0,1.4,0.2,2.4,0.7,3.1     c0.5,0.7,1.1,1.1,2,1.1c0.7,0,1.3-0.3,1.8-0.9c0.4-0.6,0.7-1.4,0.7-2.3c0-1-0.2-1.7-0.7-2.3C180,343.9,179.4,343.6,178.7,343.6z" id="XMLID_11_"/><path class="st1" d="M416,189.7c-17-17-40.4-27.5-66.3-27.5c0-25.9-10.5-49.3-27.5-66.3c-24,0-48,9.2-66.3,27.5     C237.7,105.2,213.7,96,189.7,96c-17,17-27.5,40.4-27.5,66.3c-25.9,0-49.3,10.5-66.3,27.5c0,24,9.2,48,27.5,66.3     C105.2,274.3,96,298.3,96,322.3c17,17,40.4,27.5,66.3,27.5c0,25.9,10.5,49.3,27.5,66.3c24,0,48-9.2,66.3-27.5     c18.3,18.3,42.3,27.5,66.3,27.5c17-17,27.5-40.4,27.5-66.3c25.9,0,49.3-10.5,66.3-27.5c0-24-9.2-48-27.5-66.3     C406.8,237.7,416,213.7,416,189.7z M333.6,165.8c1.1-1.1,2.5-1.6,4.3-1.6c1.8,0,3.2,0.5,4.2,1.4s1.5,2.2,1.5,3.7     c0,1.1-0.3,2-0.8,2.9c-0.6,0.9-1.5,2.1-2.9,3.6l-2.9,3.5l0,0.1h7.2v2.7h-11.8v-2.3l5.4-6.2c0.8-1,1.4-1.8,1.7-2.4     c0.3-0.7,0.5-1.3,0.5-1.8c0-0.7-0.2-1.3-0.5-1.7c-0.4-0.4-0.9-0.7-1.6-0.7c-0.8,0-1.4,0.3-1.8,0.8c-0.4,0.6-0.6,1.3-0.6,2.1h-3.4     l0-0.1C332,168.2,332.5,166.8,333.6,165.8z M249.6,129.8l7.2-0.6V147h-3.5v-14.5h-3.6V129.8z M166.4,175.8     c-0.5-0.7-0.7-1.4-0.7-2.3c0-1.5,0.5-2.7,1.6-3.6c1.1-0.8,2.4-1.3,4.1-1.3c1.6,0,2.9,0.4,4,1.3c1,0.8,1.5,2,1.5,3.6     c0,0.9-0.2,1.6-0.7,2.3c-0.5,0.7-1.1,1.2-1.9,1.6c1,0.4,1.7,1,2.3,1.7c0.6,0.7,0.8,1.6,0.8,2.5c0,1.6-0.6,2.9-1.7,3.8     c-1.1,0.9-2.6,1.4-4.3,1.4c-1.8,0-3.4-0.5-4.5-1.4c-1.2-0.9-1.8-2.2-1.8-3.8c0-1,0.3-1.8,0.9-2.5c0.6-0.7,1.4-1.3,2.4-1.7     C167.5,177,166.8,176.4,166.4,175.8z M183,351c-1.1,1.1-2.5,1.7-4.3,1.7c-1.8,0-3.3-0.6-4.5-1.9c-1.2-1.3-1.7-3-1.7-5.2v-3.7     c0-2.2,0.7-4,2-5.4c1.3-1.3,3-2,5-2c0.7,0,1.3,0.1,1.9,0.2c0.6,0.1,1.2,0.3,1.7,0.5l-0.6,2.6c-0.5-0.2-1-0.3-1.5-0.4     c-0.4-0.1-0.9-0.1-1.5-0.1c-1,0-1.9,0.4-2.5,1.2c-0.6,0.8-0.9,1.9-0.9,3.3v0.6c0.5-0.5,1-0.8,1.7-1.1c0.6-0.3,1.4-0.4,2.2-0.4     c1.5,0,2.7,0.5,3.5,1.6c0.8,1.1,1.3,2.5,1.3,4.2C184.6,348.5,184.1,349.9,183,351z M260.4,381.1c-1,1.1-2.5,1.7-4.5,1.7     c-1.6,0-3-0.4-4.2-1.3c-1.2-0.9-1.7-2-1.7-3.5l0-0.1l3.4-0.2c0,0.7,0.2,1.3,0.7,1.7c0.4,0.4,1,0.6,1.7,0.6c0.8,0,1.4-0.3,1.8-0.8     c0.4-0.5,0.6-1.3,0.6-2.3c0-1-0.2-1.8-0.6-2.4c-0.4-0.6-1-0.9-1.9-0.9c-0.7,0-1.2,0.1-1.6,0.4c-0.4,0.3-0.6,0.6-0.8,1l-3.1-0.2     l1-9.8h9.8v2.8h-6.9l-0.5,4.1c0.3-0.2,0.7-0.4,1.2-0.6c0.5-0.2,1-0.2,1.6-0.3c1.6,0,2.9,0.5,3.8,1.5c0.9,1,1.3,2.5,1.3,4.4     C261.9,378.6,261.4,380,260.4,381.1z M347.1,342.9h-2v3.8h-3.5v-3.8h-7.2l-0.2-2.1l7.3-11.7h3.6v11h2V342.9z M388.8,311     c-11.3,8.1-24.9,12.5-39.1,12.5h-26.2v26.2c0,14.2-4.4,27.8-12.5,39.1c-13.7-2.3-26.4-8.8-36.5-18.8L256,351.4L237.4,370     c-10.1,10.1-22.7,16.5-36.5,18.8c-8.1-11.3-12.5-24.9-12.5-39.1v-26.2h-26.2c-14.2,0-27.8-4.4-39.1-12.5     c2.3-13.7,8.8-26.4,18.8-36.5l18.6-18.6L142,237.4c-10.1-10.1-16.5-22.7-18.8-36.5c11.3-8.1,24.9-12.5,39.1-12.5h26.2v-26.2     c0-14.2,4.4-27.8,12.5-39.1c13.7,2.3,26.4,8.8,36.5,18.8l18.6,18.6l18.6-18.6c10.1-10.1,22.7-16.5,36.5-18.8     c8.1,11.3,12.5,24.9,12.5,39.1v26.2h26.2c14.2,0,27.8,4.4,39.1,12.5c-2.3,13.7-8.8,26.4-18.8,36.5L351.4,256l18.6,18.6     C380,284.6,386.5,297.3,388.8,311z M134.3,254.3v-2.7h12.4v2.7c-2,2.3-3.3,4.4-4.1,6.3c-0.7,1.9-1.1,4-1.1,6.4v2.2H138V267     c0-2.4,0.4-4.7,1.3-6.7c0.9-2,2.2-4,3.9-6H134.3z M373.5,259.4c-0.5-0.4-1.2-0.7-2.1-0.7h-1.9v-2.6h1.9c0.8,0,1.5-0.2,1.9-0.7     c0.4-0.4,0.6-1,0.6-1.8c0-0.7-0.2-1.2-0.6-1.6c-0.4-0.4-1-0.7-1.8-0.7c-0.6,0-1.2,0.2-1.6,0.6c-0.4,0.4-0.7,0.9-0.7,1.5h-3.4     l0-0.1c0-1.4,0.5-2.5,1.6-3.4c1.1-0.9,2.5-1.3,4.1-1.3c1.8,0,3.3,0.4,4.3,1.3c1.1,0.9,1.6,2.1,1.6,3.7c0,0.8-0.2,1.5-0.7,2.2     c-0.5,0.7-1.1,1.2-1.9,1.6c0.9,0.3,1.6,0.9,2.1,1.6c0.5,0.7,0.7,1.6,0.7,2.6c0,1.6-0.6,2.9-1.7,3.8c-1.2,0.9-2.7,1.4-4.5,1.4     c-1.6,0-3-0.4-4.2-1.3s-1.8-2.1-1.7-3.7l0-0.1h3.4c0,0.7,0.2,1.2,0.7,1.7c0.5,0.4,1.1,0.7,1.8,0.7c0.8,0,1.5-0.2,2-0.7     c0.5-0.5,0.7-1.1,0.7-1.8C374.2,260.5,373.9,259.8,373.5,259.4z"/></g></g></g></svg>