<?xml version="1.0" ?><svg id="Layer_1" style="enable-background:new 0 0 512 512;" version="1.1" viewBox="0 0 512 512" xml:space="preserve" xmlns="http://www.w3.org/2000/svg" xmlns:xlink="http://www.w3.org/1999/xlink"><style type="text/css">
	.st0{fill:#BF6149;}
	.st1{fill:#FFFFFF;}
</style><g><circle class="st0" cx="256" cy="256" id="XMLID_13_" r="256"/><g><g><path class="st1" d="M256,96c-41.7,0-76,31.9-79.7,72.7c11.7,0,23,2.3,33.7,6.9c10.4,4.4,19.7,10.7,27.8,18.7     c8,8,14.3,17.4,18.7,27.8c4.5,10.7,6.8,22,6.9,33.7C304.1,252,336,217.7,336,176C336,131.8,300.2,96,256,96z M289.4,221l-2-5.8     H279l-2,5.8h-3.1l8.1-22.4h2.6l7.9,22.4H289.4z"/><polygon class="st1" id="XMLID_10_" points="283.2,203.1 279.9,212.7 286.6,212.7 283.3,203.1    "/></g><g><path class="st1" d="M302.4,287h-0.2h-5.7v8.1h5.8c1.4,0,2.5-0.3,3.2-1c0.8-0.7,1.1-1.6,1.1-2.9     c0-1.2-0.4-2.2-1.2-3C304.7,287.4,303.7,287,302.4,287z" id="XMLID_9_"/><path class="st1" d="M304.1,283.7c0.7-0.6,1.1-1.5,1.1-2.6c0-1.2-0.4-2.1-1.1-2.7c-0.8-0.6-1.9-0.9-3.3-0.9h-4.3     v7.1h4.9C302.5,284.6,303.4,284.3,304.1,283.7z" id="XMLID_8_"/><path class="st1" d="M343.3,176.3c0,11.7-2.3,23-6.9,33.7c-4.4,10.4-10.7,19.7-18.7,27.8c-8,8-17.4,14.3-27.8,18.7     c-10.7,4.5-22,6.8-33.7,6.9C260,304.1,294.3,336,336,336c44.2,0,80-35.8,80-80C416,214.3,384.1,180,343.3,176.3z M307.7,295.9     c-1.3,1.1-3.1,1.6-5.4,1.6h-8.9v-22.4h7.3c2.3,0,4.2,0.5,5.5,1.5c1.3,1,2,2.5,2,4.5c0,1-0.3,1.8-0.9,2.6     c-0.6,0.8-1.4,1.3-2.4,1.7c1.5,0.2,2.6,0.8,3.5,1.9c0.9,1.1,1.3,2.3,1.3,3.8C309.7,293.2,309.1,294.8,307.7,295.9z"/></g><path class="st1" d="M276.9,320.3c-16-14.7-26-34.7-27.9-56.4l-0.7-7.6c-40.6,3.8-72.4,38-72.4,79.6c0,44.2,35.8,80,80,80    c41.7,0,76-31.9,79.7-72.7C313.8,343.2,293,335.1,276.9,320.3z M227.7,308.7c1,1.3,2.3,2,3.9,2c1.6,0,2.9-0.4,3.8-1.3    c0.9-0.9,1.3-2.1,1.3-3.7h2.8l0,0.1c0,2-0.7,3.8-2.2,5.1c-1.5,1.4-3.4,2.1-5.8,2.1c-2.5,0-4.5-0.9-6-2.6c-1.6-1.7-2.3-4-2.3-6.6    v-3.9c0-2.7,0.8-4.9,2.3-6.6c1.6-1.7,3.6-2.6,6-2.6s4.4,0.7,5.9,2c1.5,1.3,2.2,3,2.1,5.2l0,0.1h-2.8c0-1.5-0.4-2.7-1.3-3.6    c-0.9-0.9-2.2-1.3-3.8-1.3c-1.6,0-3,0.7-3.9,2c-1,1.3-1.5,3-1.5,4.9v3.9C226.2,305.8,226.7,307.4,227.7,308.7z"/><g><path class="st1" d="M214.1,220.3c-1.2-1.3-2.9-2-4.9-1.9l-4,0.1l0.4,17.6l4-0.1c2.1,0,3.7-0.8,4.9-2.2     c1.2-1.4,1.7-3.2,1.7-5.3l-0.1-3.1C216,223.3,215.4,221.6,214.1,220.3z" id="XMLID_3_"/><path class="st1" d="M176,176c-44.2,0-80,35.8-80,80c0,41.7,31.9,76,72.7,79.7c0.1-21.7,8.2-42.5,22.9-58.6     c14.7-16,34.6-26,56.1-28c0,0,7.9-0.7,8-0.7C251.8,207.7,217.6,176,176,176z M216.6,235.5c-1.7,1.8-4.1,2.8-7,2.8l-7,0.2     l-0.5-22.4l7-0.2c2.9-0.1,5.3,0.8,7.1,2.5c1.8,1.8,2.8,4.1,2.8,6.9l0.1,3.1C219.2,231.3,218.4,233.7,216.6,235.5z"/></g></g></g></svg>