<?xml version="1.0" ?><svg id="Layer_1" style="enable-background:new 0 0 512 512;" version="1.1" viewBox="0 0 512 512" xml:space="preserve" xmlns="http://www.w3.org/2000/svg" xmlns:xlink="http://www.w3.org/1999/xlink"><style type="text/css">
	.st0{fill:#FCAA3E;}
	.st1{fill:#FFFFFF;}
</style><g><circle class="st0" cx="256" cy="256" id="XMLID_13_" r="256"/><g><g><path class="st1" d="M277.4,97.4c-7-0.9-14.1-1.4-21.4-1.4s-14.4,0.5-21.4,1.4c14.2,17.8,21.4,39.4,21.4,61     C256,136.8,263.1,115.2,277.4,97.4z" id="XMLID_12_"/><path class="st1" d="M256,122.5c-2.5-6.9-5.8-13.5-9.7-19.8c3.3-0.2,6.5-0.3,9.7-0.3c3.2,0,6.5,0.1,9.7,0.3     C261.8,108.9,258.5,115.6,256,122.5z" id="XMLID_11_"/><path class="st1" d="M97.4,234.6c-0.9,7-1.4,14.1-1.4,21.4c0,7.2,0.5,14.4,1.4,21.4c17.8-14.2,39.4-21.4,61-21.4     C136.8,256,115.2,248.9,97.4,234.6z" id="XMLID_10_"/><path class="st1" d="M102.7,265.7c-0.2-3.3-0.3-6.5-0.3-9.7c0-3.2,0.1-6.5,0.3-9.7c6.2,3.9,12.9,7.2,19.8,9.7     C115.6,258.5,108.9,261.8,102.7,265.7z" id="XMLID_9_"/><path class="st1" d="M256,158.4c0,25-9.5,50-28.6,69s-44,28.6-69,28.6c25,0,50,9.5,69,28.6     c19.1,19.1,28.6,44,28.6,69c0-25,9.5-50,28.6-69c19.1-19.1,44-28.6,69-28.6c-25,0-50-9.5-69-28.6     C265.5,208.3,256,183.4,256,158.4z" id="XMLID_8_"/><path class="st1" d="M256,317.5c-5.1-13.9-13.3-26.7-24.1-37.5c-10.8-10.8-23.6-18.9-37.5-24.1     c13.9-5.1,26.7-13.3,37.5-24.1c10.8-10.8,18.9-23.6,24.1-37.5c5.1,13.9,13.3,26.7,24.1,37.5c10.8,10.8,23.6,18.9,37.5,24.1     c-13.9,5.1-26.7,13.3-37.5,24.1C269.3,290.9,261.1,303.6,256,317.5z" id="XMLID_7_"/><path class="st1" d="M256,301.9c-5.1-9.6-11.7-18.5-19.5-26.4c-7.9-7.9-16.7-14.4-26.4-19.5     c9.6-5.1,18.5-11.7,26.4-19.5c7.9-7.9,14.4-16.7,19.5-26.4c5.1,9.6,11.7,18.5,19.5,26.4c7.9,7.9,16.7,14.4,26.4,19.5     c-9.6,5.1-18.5,11.7-26.4,19.5C267.7,283.4,261.1,292.3,256,301.9z" id="XMLID_6_"/><path class="st1" d="M256,289.4c-4.3-6.6-9.4-12.7-15-18.4c-5.7-5.7-11.8-10.7-18.4-15c6.6-4.3,12.7-9.4,18.4-15     c5.7-5.7,10.7-11.8,15-18.4c4.3,6.6,9.4,12.7,15,18.4c5.7,5.7,11.8,10.7,18.4,15c-6.6,4.3-12.7,9.4-18.4,15     C265.4,276.7,260.3,282.8,256,289.4z" id="XMLID_5_"/><path class="st1" d="M414.6,277.4c0.9-7,1.4-14.1,1.4-21.4c0-7.2-0.5-14.4-1.4-21.4c-17.8,14.2-39.4,21.4-61,21.4     C375.2,256,396.8,263.1,414.6,277.4z" id="XMLID_4_"/><path class="st1" d="M409.3,265.7c-6.2-3.9-12.9-7.2-19.8-9.7c6.9-2.5,13.5-5.8,19.8-9.7c0.2,3.3,0.3,6.5,0.3,9.7     C409.6,259.2,409.5,262.5,409.3,265.7z" id="XMLID_3_"/><path class="st1" d="M234.6,414.6c7,0.9,14.1,1.4,21.4,1.4s14.4-0.5,21.4-1.4c-14.2-17.8-21.4-39.4-21.4-61     C256,375.2,248.9,396.8,234.6,414.6z" id="XMLID_2_"/><path class="st1" d="M256,409.6c-3.2,0-6.5-0.1-9.7-0.3c3.9-6.2,7.2-12.9,9.7-19.8c2.5,6.9,5.8,13.5,9.7,19.8     C262.5,409.5,259.2,409.6,256,409.6z" id="XMLID_1_"/></g><g><path class="st1" d="M213.7,210.7h-8.4l-2,5.8h-3.1l8.1-22.4h2.6l7.9,22.4h-3.1L213.7,210.7z M206.1,208.2h6.7     l-3.3-9.6h-0.1L206.1,208.2z" id="XMLID_1587_"/><path class="st1" d="M295.6,216.5v-22.4h7.3c2.3,0,4.2,0.5,5.5,1.5c1.3,1,2,2.5,2,4.5c0,1-0.3,1.8-0.9,2.6     c-0.6,0.8-1.4,1.3-2.4,1.7c1.5,0.2,2.6,0.8,3.5,1.9c0.9,1.1,1.3,2.3,1.3,3.8c0,2.1-0.7,3.6-2,4.7c-1.3,1.1-3.1,1.6-5.4,1.6H295.6     z M298.6,203.6h4.9c1.1,0,2-0.3,2.8-0.9c0.7-0.6,1.1-1.5,1.1-2.6c0-1.2-0.4-2.1-1.1-2.7c-0.8-0.6-1.9-0.9-3.3-0.9h-4.3V203.6z      M298.6,206v8.1h5.8c1.4,0,2.5-0.3,3.2-1c0.8-0.7,1.1-1.6,1.1-2.9c0-1.2-0.4-2.2-1.2-3c-0.8-0.8-1.8-1.2-3.2-1.2h-0.2H298.6z" id="XMLID_1583_"/><path class="st1" d="M311.8,310.6L311.8,310.6c0.1,2.1-0.6,3.8-2.1,5.2c-1.5,1.4-3.4,2.1-5.8,2.1     c-2.5,0-4.5-0.9-6-2.6c-1.6-1.7-2.3-4-2.3-6.6v-3.9c0-2.7,0.8-4.9,2.3-6.6c1.6-1.7,3.6-2.6,6-2.6c2.5,0,4.4,0.7,5.9,2     c1.5,1.3,2.2,3,2.1,5.2l0,0.1H309c0-1.5-0.4-2.7-1.3-3.6c-0.9-0.9-2.2-1.3-3.8-1.3c-1.6,0-3,0.7-3.9,2c-1,1.3-1.5,3-1.5,4.9v3.9     c0,2,0.5,3.6,1.5,5c1,1.3,2.3,2,3.9,2c1.6,0,2.9-0.4,3.8-1.3c0.9-0.9,1.3-2.1,1.3-3.7H311.8z" id="XMLID_1581_"/><path class="st1" d="M201,317.9v-22.4h7c2.9,0,5.3,0.9,7.1,2.7c1.8,1.8,2.7,4.1,2.7,7v3.1c0,2.9-0.9,5.2-2.7,7     c-1.8,1.8-4.1,2.7-7.1,2.7H201z M204.1,297.9v17.6h4c2.1,0,3.7-0.7,4.9-2c1.2-1.4,1.8-3.1,1.8-5.2v-3.1c0-2.1-0.6-3.9-1.8-5.2     c-1.2-1.4-2.8-2-4.9-2H204.1z" id="XMLID_1578_"/></g></g></g></svg>