<?xml version="1.0" ?><svg id="Layer_1" style="enable-background:new 0 0 512 512;" version="1.1" viewBox="0 0 512 512" xml:space="preserve" xmlns="http://www.w3.org/2000/svg" xmlns:xlink="http://www.w3.org/1999/xlink"><style type="text/css">
	.st0{fill:#BF6149;}
	.st1{fill:#FFFFFF;}
</style><g><circle class="st0" cx="256" cy="256" id="XMLID_22_" r="256"/><g><g><path class="st1" d="M189.1,331.8c-0.6,0-1,0.1-1.4,0.3c-0.4,0.2-0.7,0.4-0.9,0.7v0.8c0,1.2,0.2,2.1,0.6,2.7     c0.4,0.6,1,1,1.7,1c0.6,0,1.1-0.3,1.5-0.8c0.4-0.5,0.6-1.2,0.6-2c0-0.8-0.2-1.5-0.6-2C190.2,332,189.7,331.8,189.1,331.8z" id="XMLID_21_"/><polygon class="st1" id="XMLID_20_" points="329.7,324 326.5,328.9 330,328.9 330,323.3 330,323.3    "/><path class="st1" d="M182.8,186.8c0.5,0,0.9-0.2,1.2-0.6c0.3-0.4,0.5-0.9,0.5-1.5c0-0.6-0.2-1.1-0.5-1.4     c-0.3-0.4-0.7-0.5-1.2-0.5c-0.6,0-1,0.2-1.4,0.5c-0.3,0.3-0.5,0.8-0.5,1.4c0,0.6,0.2,1.1,0.5,1.5     C181.7,186.6,182.2,186.8,182.8,186.8z" id="XMLID_19_"/><path class="st1" d="M182.8,189.1c-0.7,0-1.3,0.2-1.7,0.7s-0.7,1-0.7,1.7c0,0.7,0.2,1.2,0.7,1.7     c0.4,0.4,1,0.6,1.7,0.6c0.6,0,1.1-0.2,1.6-0.6c0.4-0.4,0.6-1,0.6-1.7c0-0.7-0.2-1.2-0.6-1.7C183.9,189.4,183.4,189.1,182.8,189.1     z" id="XMLID_18_"/><path class="st1" d="M369.1,256c10.6-10.6,17.5-23.3,21-36.8c-3.1-11.3-7.6-22-13.3-32c-12-7.1-25.9-11.2-40.8-11.2     c0-14.9-4.1-28.9-11.2-40.8c-10-5.7-20.7-10.2-32-13.3c-13.5,3.4-26.3,10.4-36.8,21c-10.6-10.6-23.3-17.5-36.8-21     c-11.3,3.1-22,7.6-32,13.3c-7.1,12-11.2,25.9-11.2,40.8c-14.9,0-28.9,4.1-40.8,11.2c-5.7,10-10.2,20.7-13.3,32     c3.4,13.5,10.4,26.3,21,36.8c-10.6,10.6-17.5,23.3-21,36.8c3.1,11.3,7.6,22,13.3,32c12,7.1,25.9,11.2,40.8,11.2     c0,14.9,4.1,28.9,11.2,40.8c10,5.7,20.7,10.2,32,13.3c13.5-3.4,26.3-10.4,36.8-21c10.6,10.6,23.3,17.5,36.8,21     c11.3-3.1,22-7.6,32-13.3c7.1-12,11.2-25.9,11.2-40.8c14.9,0,28.9-4.1,40.8-11.2c5.7-10,10.2-20.7,13.3-32     C386.7,279.3,379.7,266.6,369.1,256z M161.4,254.5c-1.7,2-2.9,3.8-3.5,5.4c-0.6,1.6-0.9,3.5-0.9,5.5v1.9h-3.1v-1.9     c0-2.1,0.4-4.1,1.2-5.8c0.8-1.7,1.9-3.5,3.4-5.2h-7.8v-2.4h10.7V254.5z M178.8,194.9c-1-0.8-1.5-1.9-1.5-3.3     c0-0.8,0.3-1.6,0.8-2.2c0.5-0.6,1.2-1.1,2.1-1.5c-0.7-0.3-1.3-0.8-1.7-1.4c-0.4-0.6-0.6-1.2-0.6-2c0-1.3,0.5-2.4,1.4-3.1     c0.9-0.7,2.1-1.1,3.6-1.1c1.4,0,2.5,0.4,3.4,1.1c0.9,0.7,1.3,1.8,1.3,3.1c0,0.8-0.2,1.4-0.6,2c-0.4,0.6-0.9,1-1.6,1.4     c0.8,0.3,1.5,0.8,2,1.5c0.5,0.6,0.7,1.4,0.7,2.2c0,1.4-0.5,2.5-1.5,3.3c-1,0.8-2.2,1.2-3.8,1.2     C181.2,196.1,179.9,195.7,178.8,194.9z M192.8,338.2c-0.9,1-2.2,1.4-3.7,1.4c-1.6,0-2.9-0.5-3.9-1.6c-1-1.1-1.5-2.6-1.5-4.5v-3.2     c0-1.9,0.6-3.5,1.7-4.6c1.1-1.2,2.6-1.7,4.3-1.7c0.6,0,1.1,0.1,1.6,0.2c0.5,0.1,1,0.3,1.5,0.5l-0.5,2.2c-0.5-0.2-0.9-0.3-1.3-0.4     c-0.4-0.1-0.8-0.1-1.3-0.1c-0.9,0-1.6,0.3-2.2,1c-0.5,0.7-0.8,1.6-0.8,2.9v0.5c0.4-0.4,0.9-0.7,1.4-0.9c0.6-0.2,1.2-0.3,1.9-0.3     c1.3,0,2.3,0.5,3.1,1.4c0.7,0.9,1.1,2.1,1.1,3.6C194.2,336,193.8,337.3,192.8,338.2z M250.5,146.8l6.2-0.5v15.4h-3v-12.6h-3.1     V146.8z M259.8,364.3c-0.8,1-2.1,1.4-3.9,1.4c-1.4,0-2.6-0.4-3.6-1.1s-1.5-1.8-1.4-3.1l0-0.1l2.9-0.1c0,0.6,0.2,1.1,0.6,1.5     c0.4,0.4,0.9,0.5,1.5,0.5c0.7,0,1.3-0.2,1.6-0.7c0.3-0.5,0.5-1.1,0.5-2c0-0.9-0.2-1.6-0.5-2.1c-0.4-0.5-0.9-0.8-1.6-0.8     c-0.6,0-1,0.1-1.3,0.3c-0.3,0.2-0.5,0.5-0.7,0.9l-2.7-0.2l0.9-8.5h8.5v2.4h-6l-0.4,3.6c0.3-0.2,0.6-0.4,1.1-0.5     c0.4-0.1,0.9-0.2,1.4-0.2c1.4,0,2.5,0.4,3.3,1.3c0.8,0.9,1.2,2.2,1.2,3.8C261.1,362.1,260.7,363.3,259.8,364.3z M328.3,179.4     c-0.3-0.4-0.8-0.6-1.4-0.6c-0.7,0-1.2,0.2-1.5,0.7c-0.4,0.5-0.5,1.1-0.5,1.8h-3l0-0.1c0-1.4,0.4-2.5,1.3-3.4     c0.9-0.9,2.2-1.4,3.7-1.4c1.6,0,2.8,0.4,3.6,1.2c0.9,0.8,1.3,1.9,1.3,3.2c0,0.9-0.2,1.7-0.7,2.5c-0.5,0.8-1.3,1.8-2.5,3.1l-2.5,3     l0,0.1h6.2v2.3h-10.2v-2l4.7-5.3c0.7-0.8,1.2-1.5,1.5-2.1c0.3-0.6,0.4-1.1,0.4-1.6C328.8,180.3,328.6,179.8,328.3,179.4z      M334.8,331.2h-1.7v3.3H330v-3.3h-6.2l-0.1-1.8l6.3-10.1h3.1v9.6h1.7V331.2z M359.8,264c-1,0.8-2.3,1.2-3.9,1.2     c-1.4,0-2.6-0.4-3.6-1.1c-1-0.8-1.5-1.8-1.5-3.2l0-0.1h3c0,0.6,0.2,1.1,0.6,1.4c0.4,0.4,0.9,0.6,1.6,0.6c0.7,0,1.3-0.2,1.7-0.6     c0.4-0.4,0.6-0.9,0.6-1.6c0-0.8-0.2-1.4-0.6-1.8c-0.4-0.4-1-0.6-1.8-0.6h-1.7v-2.3h1.7c0.7,0,1.3-0.2,1.6-0.6     c0.4-0.4,0.5-0.9,0.5-1.6c0-0.6-0.2-1-0.6-1.4c-0.4-0.4-0.9-0.6-1.5-0.6c-0.6,0-1,0.2-1.4,0.5c-0.4,0.3-0.6,0.8-0.6,1.3H351     l0-0.1c0-1.2,0.4-2.2,1.4-2.9c1-0.8,2.2-1.2,3.6-1.2c1.6,0,2.8,0.4,3.8,1.1c0.9,0.7,1.4,1.8,1.4,3.2c0,0.7-0.2,1.3-0.6,1.9     c-0.4,0.6-0.9,1-1.6,1.4c0.8,0.3,1.4,0.8,1.8,1.4c0.4,0.6,0.6,1.3,0.6,2.2C361.3,262.1,360.8,263.2,359.8,264z"/></g><g><path class="st1" d="M392.6,199.4c0,6.6-0.8,13.3-2.5,19.8c3.2,11.7,4.9,24.1,4.9,36.8c0,12.7-1.7,25.1-4.9,36.8     c1.6,6.5,2.5,13.1,2.5,19.8C407,298.1,416,278.1,416,256C416,233.9,407,213.9,392.6,199.4z" id="XMLID_8_"/><path class="st1" d="M117,256c0-12.7,1.7-25.1,4.9-36.8c-1.6-6.5-2.5-13.1-2.5-19.8C105,213.9,96,233.9,96,256     c0,22.1,9,42.1,23.4,56.6c0-6.6,0.8-13.3,2.5-19.8C118.7,281.1,117,268.7,117,256z" id="XMLID_7_"/><path class="st1" d="M256,395c-12.7,0-25.1-1.7-36.8-4.9c-6.5,1.6-13.1,2.5-19.8,2.5C213.9,407,233.9,416,256,416     s42.1-9,56.6-23.4c-6.6,0-13.3-0.8-19.8-2.5C281.1,393.3,268.7,395,256,395z" id="XMLID_6_"/><path class="st1" d="M256,117c12.7,0,25.1,1.7,36.8,4.9c6.5-1.6,13.1-2.5,19.8-2.5C298.1,105,278.1,96,256,96     s-42.1,9-56.6,23.4c6.6,0,13.3,0.8,19.8,2.5C230.9,118.7,243.3,117,256,117z" id="XMLID_5_"/><path class="st1" d="M324.8,376.8c-3.4,5.7-7.5,11-12.2,15.7c20.5,0,40.9-7.8,56.6-23.4     c15.6-15.6,23.4-36.1,23.4-56.6c-4.7,4.7-10,8.8-15.7,12.2C364.5,346.5,346.5,364.5,324.8,376.8z" id="XMLID_4_"/><path class="st1" d="M187.2,135.2c3.4-5.7,7.5-11,12.2-15.7c-20.5,0-40.9,7.8-56.6,23.4     c-15.6,15.6-23.4,36.1-23.4,56.6c4.7-4.7,10-8.8,15.7-12.2C147.5,165.5,165.5,147.5,187.2,135.2z" id="XMLID_3_"/><path class="st1" d="M135.2,324.8c-5.7-3.4-11-7.5-15.7-12.2c0,20.5,7.8,40.9,23.4,56.6     c15.6,15.6,36.1,23.4,56.6,23.4c-4.7-4.7-8.8-10-12.2-15.7C165.5,364.5,147.5,346.5,135.2,324.8z" id="XMLID_2_"/><path class="st1" d="M376.8,187.2c5.7,3.4,11,7.5,15.7,12.2c0-20.5-7.8-40.9-23.4-56.6     c-15.6-15.6-36.1-23.4-56.6-23.4c4.7,4.7,8.8,10,12.2,15.7C346.5,147.5,364.5,165.5,376.8,187.2z" id="XMLID_1_"/></g></g></g></svg>