<?xml version="1.0" ?><svg id="Layer_1" style="enable-background:new 0 0 512 512;" version="1.1" viewBox="0 0 512 512" xml:space="preserve" xmlns="http://www.w3.org/2000/svg" xmlns:xlink="http://www.w3.org/1999/xlink"><style type="text/css">
	.st0{fill:#BF6149;}
	.st1{fill:#FFFFFF;}
</style><g><circle class="st0" cx="256" cy="256" id="XMLID_7_" r="256"/><g><g><path class="st1" d="M226.6,285.4c-19.6,19.6-45.4,29.4-71.1,29.4c-20.9,0-41.8-6.5-59.5-19.5     c14.6,59.3,61.3,106,120.6,120.6C187.6,376.7,191,321,226.6,285.4z" id="XMLID_6_"/><path class="st1" d="M226.6,226.6C191,191,187.6,135.3,216.6,96c-59.3,14.6-106,61.3-120.6,120.6     c17.6-13,38.6-19.5,59.5-19.5C181.2,197.1,206.9,206.9,226.6,226.6z" id="XMLID_5_"/><path class="st1" d="M256,155.5c0,25.7-9.8,51.5-29.4,71.1S181.2,256,155.5,256c25.7,0,51.5,9.8,71.1,29.4     c19.6,19.6,29.4,45.4,29.4,71.1c0-25.7,9.8-51.5,29.4-71.1c19.6-19.6,45.4-29.4,71.1-29.4c-25.7,0-51.5-9.8-71.1-29.4     C265.8,206.9,256,181.2,256,155.5z" id="XMLID_4_"/><path class="st1" d="M256,319.9c-5.3-14.5-13.7-27.8-24.9-39c-11.2-11.2-24.5-19.7-39-24.9     c14.5-5.3,27.8-13.7,39-24.9c11.2-11.2,19.7-24.5,24.9-39c5.3,14.5,13.7,27.8,24.9,39c11.2,11.2,24.5,19.7,39,24.9     c-14.5,5.3-27.8,13.7-39,24.9C269.7,292.1,261.3,305.4,256,319.9z" id="XMLID_3_"/><path class="st1" d="M285.4,226.6c19.6-19.6,45.4-29.4,71.1-29.4c20.9,0,41.8,6.5,59.5,19.5     c-14.6-59.3-61.3-106-120.6-120.6C324.4,135.3,321,191,285.4,226.6z" id="XMLID_2_"/><path class="st1" d="M285.4,285.4c35.6,35.6,38.9,91.2,10,130.6c59.3-14.6,106-61.3,120.6-120.6     c-17.6,13-38.6,19.5-59.5,19.5C330.8,314.9,305.1,305.1,285.4,285.4z" id="XMLID_1_"/></g><g><path class="st1" d="M263.1,150.5h-14.1l-3.4,9.7h-5.2l13.6-37.6h4.4l13.3,37.6h-5.2L263.1,150.5z M250.4,146.3     h11.2l-5.5-16.1H256L250.4,146.3z" id="XMLID_1599_"/><path class="st1" d="M346.9,274.9v-37.6h12.3c3.9,0,7,0.8,9.2,2.5c2.2,1.7,3.3,4.2,3.3,7.6     c0,1.6-0.5,3.1-1.5,4.4c-1,1.3-2.3,2.3-4,2.9c2.5,0.3,4.4,1.4,5.8,3.2c1.4,1.8,2.2,3.9,2.2,6.3c0,3.4-1.1,6.1-3.4,7.9     c-2.2,1.8-5.3,2.7-9.1,2.7H346.9z M352,253.3h8.2c1.9,0,3.4-0.5,4.6-1.6c1.2-1,1.8-2.5,1.8-4.4c0-2-0.6-3.5-1.9-4.6     c-1.3-1-3.1-1.5-5.5-1.5H352V253.3z M352,257.3v13.7h9.8c2.3,0,4.1-0.6,5.4-1.7c1.3-1.1,1.9-2.8,1.9-4.9c0-2.1-0.7-3.8-2-5     c-1.3-1.3-3.1-2-5.3-2h-0.3H352z" id="XMLID_1595_"/><path class="st1" d="M269.7,384.8l0.1,0.2c0.1,3.4-1.1,6.3-3.6,8.6c-2.5,2.3-5.7,3.5-9.8,3.5     c-4.1,0-7.5-1.5-10.1-4.4c-2.6-2.9-3.9-6.6-3.9-11.1V375c0-4.5,1.3-8.2,3.9-11.2c2.6-2.9,6-4.4,10.1-4.4c4.1,0,7.4,1.1,9.9,3.3     c2.4,2.2,3.6,5.1,3.6,8.7l-0.1,0.2h-4.7c0-2.6-0.8-4.6-2.3-6.1c-1.5-1.5-3.6-2.2-6.4-2.2c-2.8,0-5,1.1-6.6,3.3     c-1.6,2.2-2.5,5-2.5,8.3v6.5c0,3.3,0.8,6.1,2.5,8.3c1.6,2.2,3.8,3.3,6.6,3.3c2.7,0,4.9-0.7,6.4-2.2c1.5-1.5,2.3-3.5,2.3-6.1     H269.7z" id="XMLID_1593_"/><path class="st1" d="M122.1,274.7v-37.6h11.8c4.9,0,8.9,1.5,11.8,4.5c3,3,4.5,6.9,4.5,11.7v5.1     c0,4.8-1.5,8.7-4.5,11.7c-3,3-6.9,4.5-11.8,4.5H122.1z M127.2,241.1v29.6h6.7c3.5,0,6.2-1.1,8.2-3.4c2-2.3,3-5.2,3-8.8v-5.2     c0-3.5-1-6.5-3-8.8c-2-2.3-4.7-3.4-8.2-3.4H127.2z" id="XMLID_1590_"/></g></g></g></svg>