<?xml version="1.0" ?><svg id="Layer_1" style="enable-background:new 0 0 512 512;" version="1.1" viewBox="0 0 512 512" xml:space="preserve" xmlns="http://www.w3.org/2000/svg" xmlns:xlink="http://www.w3.org/1999/xlink"><style type="text/css">
	.st0{fill:#54A27C;}
	.st1{fill:#FFFFFF;}
</style><g><circle class="st0" cx="256" cy="256" id="XMLID_43_" r="256"/><g><g><path class="st1" d="M416,253.9c-0.5-43.3-18.3-82.5-46.8-111c15.6,15.6,23.4,36.1,23.4,56.5     C406.6,213.5,415.4,232.7,416,253.9z" id="XMLID_42_"/><path class="st1" d="M256,256c15.6-15.6,36.1-23.4,56.6-23.4c2.8-2.8,5.4-5.8,7.8-9.1     c-6.9-13.7-18.1-24.9-31.9-31.9c-3.2,2.4-6.2,5-9.1,7.8C279.4,219.9,271.6,240.4,256,256z" id="XMLID_41_"/><path class="st1" d="M256,256c0,22.1-9,42.1-23.4,56.6c0,4,0.3,8,0.9,11.9c7.1,2.3,14.7,3.6,22.5,3.6     c7.9,0,15.4-1.3,22.5-3.6c0.6-3.9,0.9-7.9,0.9-11.9C265,298.1,256,278.1,256,256z" id="XMLID_40_"/><path class="st1" d="M191.6,223.5c-9.8-13.3-15.6-29.7-15.6-47.5c-22.1,0-42.1,9-56.6,23.4     c0,20.5,7.8,40.9,23.4,56.6c12.6-12.6,28.3-20.1,44.7-22.5C188.6,230,190,226.7,191.6,223.5z" id="XMLID_39_"/><path class="st1" d="M256,96c-44.1,0-84.1,17.9-113,46.7c15.6-15.5,36-23.3,56.4-23.3C213.9,105,233.9,96,256,96z     " id="XMLID_38_"/><path class="st1" d="M233.5,187.5c2.4-16.3,10-32.1,22.5-44.7c-15.6-15.6-36.1-23.4-56.6-23.4     C185,133.9,176,153.9,176,176c17.8,0,34.2,5.8,47.5,15.6C226.7,190,230,188.6,233.5,187.5z" id="XMLID_37_"/><path class="st1" d="M369.1,142.8C340.1,113.9,300.2,96,256,96c22.1,0,42.1,9,56.6,23.4     C333,119.4,353.5,127.2,369.1,142.8z" id="XMLID_36_"/><path class="st1" d="M223.5,320.4c-13.3,9.8-29.7,15.6-47.5,15.6c0,22.1,9,42.1,23.4,56.6     c20.5,0,40.9-7.8,56.6-23.4c-12.6-12.6-20.1-28.3-22.5-44.7C230,323.4,226.7,322,223.5,320.4z" id="XMLID_35_"/><path class="st1" d="M187.5,278.5c-16.3-2.4-32.1-10-44.7-22.5c-15.6,15.6-23.4,36.1-23.4,56.6     C133.9,327,153.9,336,176,336c0-17.8,5.8-34.2,15.6-47.5C190,285.3,188.6,282,187.5,278.5z" id="XMLID_34_"/><path class="st1" d="M256,256c0-22.1,9-42.1,23.4-56.6c0-4-0.3-8-0.9-11.9c-7.1-2.3-14.7-3.6-22.5-3.6     c-7.9,0-15.4,1.3-22.5,3.6c-0.6,3.9-0.9,7.9-0.9,11.9C247,213.9,256,233.9,256,256z" id="XMLID_33_"/><path class="st1" d="M324.5,278.5c-1.1,3.4-2.5,6.8-4.1,9.9c9.8,13.3,15.6,29.7,15.6,47.5     c22.1,0,42.1-9,56.6-23.4c0-20.5-7.8-40.9-23.4-56.6C356.6,268.6,340.8,276.1,324.5,278.5z" id="XMLID_32_"/><path class="st1" d="M278.5,324.5c-2.4,16.3-10,32.1-22.5,44.7c15.6,15.6,36.1,23.4,56.6,23.4     C327,378.1,336,358.1,336,336c-17.8,0-34.2-5.8-47.5-15.6C285.3,322,282,323.4,278.5,324.5z" id="XMLID_31_"/><path class="st1" d="M142.7,143c-28.4,28.5-46.1,67.6-46.7,110.9c0.5-21.3,9.4-40.5,23.4-54.5     C119.4,179,127.2,158.6,142.7,143z" id="XMLID_30_"/><path class="st1" d="M324.5,233.5c-3.9-0.6-7.9-0.9-11.9-0.9C298.1,247,278.1,256,256,256     c22.1,0,42.1,9,56.6,23.4c4,0,8-0.3,11.9-0.9c2.3-7.1,3.6-14.7,3.6-22.5C328.1,248.1,326.8,240.6,324.5,233.5z" id="XMLID_29_"/><path class="st1" d="M143,369.3c28.9,28.9,68.9,46.7,113,46.7c-22.1,0-42.1-9-56.6-23.4     C179,392.6,158.6,384.8,143,369.3z" id="XMLID_28_"/><path class="st1" d="M256,256c15.6,15.6,23.4,36.1,23.4,56.6c2.8,2.8,5.8,5.4,9.1,7.8     c13.7-6.9,24.9-18.1,31.9-31.9c-2.4-3.2-5-6.2-7.8-9.1C292.1,279.4,271.6,271.6,256,256z" id="XMLID_27_"/><path class="st1" d="M256,256c-15.6-15.6-23.4-36.1-23.4-56.6c-2.8-2.8-5.8-5.4-9.1-7.8     c-13.7,6.9-24.9,18.1-31.9,31.9c2.4,3.2,5,6.2,7.8,9.1C219.9,232.6,240.4,240.4,256,256z" id="XMLID_26_"/><path class="st1" d="M256,256c-15.6,15.6-36.1,23.4-56.6,23.4c-2.8,2.8-5.4,5.8-7.8,9.1     c6.9,13.7,18.1,24.9,31.9,31.9c3.2-2.4,6.2-5,9.1-7.8C232.6,292.1,240.4,271.6,256,256z" id="XMLID_25_"/><path class="st1" d="M256,416c44.2,0,84.2-17.9,113.1-46.8c-15.6,15.6-36.1,23.4-56.5,23.4     C298.1,407,278.1,416,256,416z" id="XMLID_24_"/><path class="st1" d="M288.5,191.6c13.3-9.8,29.7-15.6,47.5-15.6c0-22.1-9-42.1-23.4-56.6     c-20.5,0-40.9,7.8-56.6,23.4c12.6,12.6,20.1,28.3,22.5,44.7C282,188.6,285.3,190,288.5,191.6z" id="XMLID_23_"/><path class="st1" d="M369.2,369.1c28.9-29,46.8-68.9,46.8-113.1c0,22.1-9,42.1-23.4,56.6     C392.6,333,384.8,353.5,369.2,369.1z" id="XMLID_22_"/><path class="st1" d="M96,256c0,44.1,17.9,84.1,46.7,113c-15.5-15.6-23.3-36-23.3-56.4C105,298.1,96,278.1,96,256z     " id="XMLID_21_"/><path class="st1" d="M256,256c-22.1,0-42.1-9-56.6-23.4c-4,0-8,0.3-11.9,0.9c-2.3,7.1-3.6,14.7-3.6,22.5     c0,7.9,1.3,15.4,3.6,22.5c3.9,0.6,7.9,0.9,11.9,0.9C213.9,265,233.9,256,256,256z" id="XMLID_20_"/><path class="st1" d="M324.5,233.5c16.3,2.4,32.1,10,44.7,22.5c15.6-15.6,23.4-36.1,23.4-56.6     C378.1,185,358.1,176,336,176c0,17.8-5.8,34.2-15.6,47.5C322,226.7,323.4,230,324.5,233.5z" id="XMLID_19_"/><path class="st1" d="M416,253.9c0,0.7,0,1.4,0,2.1C416,255.3,416,254.6,416,253.9z" id="XMLID_18_"/><path class="st1" d="M96,256c0-0.7,0-1.4,0-2.1C96,254.6,96,255.3,96,256z" id="XMLID_17_"/><path class="st1" d="M369.2,369.1C369.1,369.1,369.1,369.1,369.2,369.1C369.1,369.2,369.1,369.1,369.2,369.1     C369.1,369.1,369.1,369.1,369.2,369.1z" id="XMLID_16_"/><path class="st1" d="M143,142.7c0,0-0.1,0.1-0.1,0.1c0,0-0.1,0.1-0.1,0.1C142.8,142.9,142.9,142.8,143,142.7z" id="XMLID_15_"/><path class="st1" d="M142.7,369c0,0,0.1,0.1,0.1,0.1c0,0,0.1,0.1,0.1,0.1C142.9,369.2,142.8,369.1,142.7,369z" id="XMLID_14_"/><path class="st1" d="M369.2,142.9C369.2,142.9,369.2,142.9,369.2,142.9C369.1,142.8,369.1,142.8,369.2,142.9     C369.1,142.8,369.1,142.9,369.2,142.9z" id="XMLID_13_"/></g><g><path class="st1" d="M256.9,129.7h-4.1v-16.8h-4.2v-3.1l8.3-0.7V129.7z"/><path class="st1" d="M358.2,170.2h-13.7v-2.7l6.3-7.1c0.9-1.1,1.6-2.1,2-2.8c0.4-0.8,0.6-1.5,0.6-2.1c0-0.8-0.2-1.5-0.6-2     c-0.4-0.5-1.1-0.8-1.9-0.8c-0.9,0-1.6,0.3-2.1,1c-0.5,0.6-0.7,1.5-0.7,2.5h-4l0-0.1c0-1.8,0.6-3.3,1.8-4.6c1.2-1.3,2.9-1.9,5-1.9     c2.1,0,3.7,0.5,4.9,1.6c1.2,1.1,1.7,2.5,1.7,4.3c0,1.2-0.3,2.3-1,3.3c-0.6,1-1.8,2.4-3.4,4.2l-3.4,4l0,0.1h8.3V170.2z"/><path class="st1" d="M389.8,256.1c1,0,1.7-0.3,2.2-0.8c0.5-0.5,0.7-1.2,0.7-2.1c0-0.8-0.2-1.4-0.7-1.9c-0.5-0.5-1.2-0.8-2.1-0.8     c-0.7,0-1.4,0.2-1.9,0.7c-0.5,0.5-0.8,1-0.8,1.8h-3.9l0-0.1c-0.1-1.6,0.6-2.9,1.8-3.9c1.3-1,2.9-1.6,4.8-1.6c2.1,0,3.8,0.5,5,1.5     c1.2,1,1.9,2.4,1.9,4.3c0,0.9-0.3,1.8-0.8,2.6c-0.5,0.8-1.3,1.4-2.2,1.8c1.1,0.4,1.9,1,2.5,1.8c0.6,0.8,0.9,1.8,0.9,3     c0,1.9-0.7,3.3-2,4.4c-1.3,1.1-3.1,1.6-5.2,1.6c-1.9,0-3.5-0.5-4.9-1.5c-1.4-1-2.1-2.4-2-4.2l0-0.1h4c0,0.8,0.3,1.4,0.8,1.9     c0.5,0.5,1.2,0.8,2.1,0.8c0.9,0,1.7-0.3,2.3-0.8c0.6-0.6,0.9-1.2,0.9-2.1c0-1.1-0.3-1.9-0.8-2.4c-0.5-0.5-1.3-0.8-2.4-0.8h-2.3     v-3.1H389.8z"/><path class="st1" d="M359.3,353.6h2.3v3.2h-2.3v4.4h-4.1v-4.4h-8.3l-0.2-2.5l8.5-13.5h4.1V353.6z M350.4,353.6h4.8v-7.4l-0.1,0     l-0.4,0.9L350.4,353.6z"/><path class="st1" d="M249.6,393.7l1.2-11.4h11.4v3.3h-8l-0.6,4.8c0.4-0.3,0.9-0.5,1.4-0.7s1.2-0.3,1.9-0.3c1.9,0,3.4,0.6,4.4,1.8     c1,1.2,1.6,2.9,1.6,5c0,2-0.6,3.6-1.7,4.9c-1.1,1.3-2.9,1.9-5.2,1.9c-1.9,0-3.5-0.5-4.8-1.5c-1.3-1-2-2.4-1.9-4.1l0-0.1l3.9-0.2     c0,0.8,0.3,1.5,0.8,2c0.5,0.5,1.2,0.7,2,0.7c1,0,1.7-0.3,2.1-1c0.4-0.6,0.7-1.5,0.7-2.7c0-1.2-0.2-2.1-0.7-2.8     c-0.5-0.7-1.2-1-2.2-1c-0.8,0-1.4,0.1-1.8,0.4c-0.4,0.3-0.7,0.7-0.9,1.2L249.6,393.7z"/><path class="st1" d="M167.2,347c0.8,0,1.5,0.1,2.2,0.2c0.7,0.1,1.3,0.4,2,0.6l-0.7,3c-0.6-0.2-1.2-0.4-1.7-0.5     c-0.5-0.1-1.1-0.2-1.8-0.2c-1.2,0-2.2,0.5-2.9,1.4c-0.7,0.9-1.1,2.2-1.1,3.8v0.7c0.5-0.5,1.2-0.9,1.9-1.2     c0.8-0.3,1.6-0.4,2.5-0.4c1.7,0,3.1,0.6,4.1,1.9c1,1.2,1.5,2.9,1.5,4.8c0,2-0.6,3.7-1.9,5c-1.3,1.3-2.9,1.9-5,1.9     c-2.1,0-3.9-0.7-5.2-2.2c-1.3-1.5-2-3.4-2-6v-4.3c0-2.6,0.8-4.7,2.3-6.2C163,347.8,164.9,347,167.2,347z M166.4,357.5     c-0.7,0-1.4,0.1-1.9,0.4c-0.5,0.2-0.9,0.6-1.2,1v1.1c0,1.6,0.3,2.8,0.9,3.6c0.6,0.9,1.3,1.3,2.3,1.3c0.8,0,1.5-0.4,2-1.1     c0.5-0.7,0.8-1.6,0.8-2.7c0-1.1-0.3-2-0.8-2.6C167.9,357.8,167.2,357.5,166.4,357.5z"/><path class="st1" d="M129.3,254c-2.3,2.7-3.9,5.1-4.7,7.3c-0.8,2.2-1.2,4.6-1.2,7.4v2.5h-4.1v-2.5c0-2.8,0.5-5.4,1.6-7.8     c1-2.3,2.6-4.7,4.5-7H115v-3.2h14.3V254z"/><path class="st1" d="M164.2,160.3c0,1-0.3,1.9-0.8,2.7c-0.5,0.8-1.2,1.4-2.2,1.8c1.1,0.5,2,1.1,2.6,2c0.7,0.9,1,1.8,1,2.9     c0,1.9-0.7,3.4-2,4.4c-1.3,1.1-3,1.6-5,1.6c-2.1,0-3.9-0.5-5.3-1.6c-1.4-1.1-2.1-2.5-2.1-4.4c0-1.1,0.3-2.1,1-2.9     c0.7-0.9,1.6-1.5,2.8-2c-1-0.4-1.7-1-2.3-1.8c-0.5-0.8-0.8-1.7-0.8-2.7c0-1.8,0.6-3.2,1.8-4.1c1.2-1,2.8-1.4,4.8-1.4     c1.9,0,3.4,0.5,4.6,1.4C163.7,157.2,164.2,158.5,164.2,160.3z M160.8,169.6c0-0.9-0.3-1.7-0.8-2.2c-0.6-0.6-1.3-0.9-2.1-0.9     c-0.9,0-1.7,0.3-2.3,0.9c-0.6,0.6-0.9,1.3-0.9,2.2c0,0.9,0.3,1.7,0.9,2.2c0.6,0.6,1.4,0.8,2.3,0.8c0.8,0,1.5-0.3,2.1-0.8     C160.6,171.2,160.8,170.5,160.8,169.6z M160.2,160.5c0-0.8-0.2-1.4-0.6-1.9c-0.4-0.5-1-0.7-1.6-0.7c-0.8,0-1.4,0.2-1.8,0.7     c-0.5,0.5-0.7,1.1-0.7,1.9c0,0.8,0.2,1.5,0.7,2c0.5,0.5,1.1,0.8,1.8,0.8c0.7,0,1.2-0.3,1.6-0.8C160,162,160.2,161.4,160.2,160.5z     "/></g></g></g></svg>