<?xml version="1.0" ?><svg id="Layer_1" style="enable-background:new 0 0 512 512;" version="1.1" viewBox="0 0 512 512" xml:space="preserve" xmlns="http://www.w3.org/2000/svg" xmlns:xlink="http://www.w3.org/1999/xlink"><style type="text/css">
	.st0{fill:#FCAA3E;}
	.st1{fill:#FFFFFF;}
</style><g><circle class="st0" cx="256" cy="256" id="XMLID_45_" r="256"/><g><g><path class="st1" d="M392.6,199.4c0,20.5-7.8,40.9-23.4,56.6c15.6,15.6,23.4,36.1,23.4,56.6     C407,298.1,416,278.1,416,256C416,233.9,407,213.9,392.6,199.4z" id="XMLID_44_"/><path class="st1" d="M119.4,199.4C105,213.9,96,233.9,96,256c0,22.1,9,42.1,23.4,56.6c0-20.5,7.8-40.9,23.4-56.6     C127.2,240.4,119.4,219.9,119.4,199.4z" id="XMLID_43_"/><path class="st1" d="M256,369.1c-15.6,15.6-36.1,23.4-56.6,23.4C213.9,407,233.9,416,256,416s42.1-9,56.6-23.4     C292.1,392.6,271.6,384.8,256,369.1z" id="XMLID_42_"/><path class="st1" d="M312.6,119.4C298.1,105,278.1,96,256,96s-42.1,9-56.6,23.4c20.5,0,40.9,7.8,56.6,23.4     C271.6,127.2,292.1,119.4,312.6,119.4z" id="XMLID_41_"/><path class="st1" d="M312.6,392.6c20.5,0,40.9-7.8,56.6-23.4c15.6-15.6,23.4-36.1,23.4-56.6     C378.1,327,358.1,336,336,336C336,358.1,327,378.1,312.6,392.6z" id="XMLID_40_"/><path class="st1" d="M199.4,119.4c-20.5,0-40.9,7.8-56.6,23.4c-15.6,15.6-23.4,36.1-23.4,56.6     C133.9,185,153.9,176,176,176C176,153.9,185,133.9,199.4,119.4z" id="XMLID_39_"/><path class="st1" d="M119.4,312.6c0,20.5,7.8,40.9,23.4,56.6c15.6,15.6,36.1,23.4,56.6,23.4     C185,378.1,176,358.1,176,336C153.9,336,133.9,327,119.4,312.6z" id="XMLID_38_"/><path class="st1" d="M392.6,199.4c0-20.5-7.8-40.9-23.4-56.6c-15.6-15.6-36.1-23.4-56.6-23.4     C327,133.9,336,153.9,336,176C358.1,176,378.1,185,392.6,199.4z" id="XMLID_37_"/><path class="st1" d="M320.4,288.5c1.6-3.2,3-6.5,4.1-9.9c-3.9,0.6-7.9,0.9-11.9,0.9     C315.4,282.2,318,285.3,320.4,288.5z" id="XMLID_36_"/><path class="st1" d="M278.5,324.5c3.4-1.1,6.8-2.5,9.9-4.1c-3.2-2.4-6.2-5-9.1-7.8     C279.4,316.6,279.1,320.5,278.5,324.5z" id="XMLID_35_"/><path class="st1" d="M191.6,223.5c-1.6,3.2-3,6.5-4.1,9.9c3.9-0.6,7.9-0.9,11.9-0.9     C196.6,229.8,194,226.7,191.6,223.5z" id="XMLID_34_"/><path class="st1" d="M232.6,199.4c0-4,0.3-8,0.9-11.9c-3.4,1.1-6.8,2.5-9.9,4.1     C226.7,194,229.8,196.6,232.6,199.4z" id="XMLID_33_"/><path class="st1" d="M187.5,278.5c1.1,3.4,2.5,6.8,4.1,9.9c2.4-3.2,5-6.2,7.8-9.1     C195.4,279.4,191.5,279.1,187.5,278.5z" id="XMLID_32_"/><path class="st1" d="M223.5,320.4c3.2,1.6,6.5,3,9.9,4.1c-0.6-3.9-0.9-7.9-0.9-11.9     C229.8,315.4,226.7,318,223.5,320.4z" id="XMLID_31_"/><path class="st1" d="M256,256c0,22.1,9,42.1,23.4,56.6C279.4,292.1,271.6,271.6,256,256z" id="XMLID_30_"/><path class="st1" d="M256,256c-15.6,15.6-23.4,36.1-23.4,56.6C247,298.1,256,278.1,256,256z" id="XMLID_29_"/><path class="st1" d="M256,256c-22.1,0-42.1,9-56.6,23.4C219.9,279.4,240.4,271.6,256,256z" id="XMLID_28_"/><path class="st1" d="M256,256c-15.6-15.6-36.1-23.4-56.6-23.4C213.9,247,233.9,256,256,256z" id="XMLID_27_"/><path class="st1" d="M312.6,232.6c4,0,8,0.3,11.9,0.9c-1.1-3.4-2.5-6.8-4.1-9.9     C318,226.7,315.4,229.8,312.6,232.6z" id="XMLID_26_"/><path class="st1" d="M288.5,191.6c-3.2-1.6-6.5-3-9.9-4.1c0.6,3.9,0.9,7.9,0.9,11.9     C282.2,196.6,285.3,194,288.5,191.6z" id="XMLID_25_"/><path class="st1" d="M312.6,279.4C298.1,265,278.1,256,256,256C271.6,271.6,292.1,279.4,312.6,279.4z" id="XMLID_24_"/><path class="st1" d="M256,256c22.1,0,42.1-9,56.6-23.4C292.1,232.6,271.6,240.4,256,256z" id="XMLID_23_"/><path class="st1" d="M279.4,199.4C265,213.9,256,233.9,256,256C271.6,240.4,279.4,219.9,279.4,199.4z" id="XMLID_22_"/><path class="st1" d="M256,256c0-22.1-9-42.1-23.4-56.6C232.6,219.9,240.4,240.4,256,256z" id="XMLID_21_"/></g><g><path class="st1" d="M256,142.9c-12.6,12.6-20.1,28.3-22.5,44.7c7.1-2.3,14.7-3.6,22.5-3.6c7.9,0,15.4,1.3,22.5,3.6     C276.1,171.2,268.6,155.4,256,142.9z M253.8,168.9v-11.6h-2.9v-2.2l5.7-0.5v14.3H253.8z"/><path class="st1" d="M288.5,191.6c13.7,6.9,24.9,18.1,31.9,31.9c9.8-13.3,15.6-29.7,15.6-47.5C318.2,176,301.8,181.8,288.5,191.6     z M317.1,196.8V195l4.4-4.9c0.7-0.8,1.1-1.4,1.4-1.9c0.3-0.5,0.4-1,0.4-1.5c0-0.6-0.1-1-0.4-1.4c-0.3-0.3-0.7-0.5-1.3-0.5     c-0.6,0-1.1,0.2-1.4,0.7c-0.3,0.4-0.5,1-0.5,1.7h-2.7l0-0.1c0-1.2,0.4-2.3,1.2-3.2c0.9-0.9,2-1.3,3.4-1.3c1.4,0,2.6,0.4,3.4,1.1     c0.8,0.7,1.2,1.7,1.2,3c0,0.8-0.2,1.6-0.7,2.3c-0.4,0.7-1.2,1.7-2.3,2.9l-2.3,2.8l0,0h5.7v2.2H317.1z"/><path class="st1" d="M369.1,256c-12.6-12.6-28.3-20.1-44.7-22.5c2.3,7.1,3.6,14.7,3.6,22.5c0,7.9-1.3,15.4-3.6,22.5     C340.8,276.1,356.6,268.6,369.1,256z M343.6,260.5h2.7c0,0.5,0.2,1,0.6,1.3c0.4,0.4,0.8,0.5,1.4,0.5c0.6,0,1.2-0.2,1.6-0.6     c0.4-0.4,0.6-0.9,0.6-1.4c0-0.7-0.2-1.3-0.6-1.6c-0.4-0.4-0.9-0.5-1.6-0.5h-1.6v-2.1h1.6c0.7,0,1.2-0.2,1.5-0.5     c0.3-0.3,0.5-0.8,0.5-1.5c0-0.5-0.2-1-0.5-1.3c-0.3-0.3-0.8-0.5-1.4-0.5c-0.5,0-0.9,0.2-1.3,0.5c-0.4,0.3-0.5,0.7-0.5,1.2h-2.7     l0-0.1c0-1.1,0.4-2,1.3-2.7c0.9-0.7,2-1.1,3.3-1.1c1.5,0,2.6,0.3,3.5,1c0.9,0.7,1.3,1.7,1.3,3c0,0.6-0.2,1.2-0.6,1.8     c-0.4,0.5-0.9,1-1.5,1.3c0.7,0.3,1.3,0.7,1.7,1.3c0.4,0.6,0.6,1.2,0.6,2c0,1.3-0.5,2.3-1.4,3c-0.9,0.7-2.1,1.1-3.6,1.1     c-1.3,0-2.4-0.3-3.4-1C344,262.8,343.5,261.8,343.6,260.5L343.6,260.5z"/><g><polygon class="st1" id="XMLID_14_" points="324.1,318.8 321.1,323.3 324.4,323.3 324.4,318.2 324.4,318.2     "/><path class="st1" d="M320.4,288.5c-6.9,13.7-18.1,24.9-31.9,31.9c13.3,9.8,29.7,15.6,47.5,15.6      C336,318.2,330.2,301.8,320.4,288.5z M327.2,325.5v3.1h-2.8v-3.1h-5.7l-0.1-1.7l5.8-9.3h2.9v8.8h1.6v2.2H327.2z"/></g><path class="st1" d="M256,328.1c-7.9,0-15.4-1.3-22.5-3.6c2.4,16.3,10,32.1,22.5,44.7c12.6-12.6,20.1-28.3,22.5-44.7     C271.4,326.8,263.9,328.1,256,328.1z M256,357.4c-1.3,0-2.4-0.3-3.3-1c-0.9-0.7-1.4-1.6-1.3-2.8l0,0l2.7-0.1c0,0.6,0.2,1,0.5,1.4     c0.4,0.3,0.8,0.5,1.4,0.5c0.7,0,1.2-0.2,1.5-0.7c0.3-0.4,0.5-1.1,0.5-1.9c0-0.8-0.2-1.5-0.5-1.9c-0.3-0.5-0.8-0.7-1.5-0.7     c-0.5,0-1,0.1-1.2,0.3c-0.3,0.2-0.5,0.5-0.6,0.8l-2.5-0.2l0.8-7.9h7.8v2.3h-5.5l-0.4,3.3c0.3-0.2,0.6-0.4,1-0.5     c0.4-0.1,0.8-0.2,1.3-0.2c1.3,0,2.3,0.4,3,1.2c0.7,0.8,1.1,2,1.1,3.5c0,1.4-0.4,2.5-1.2,3.4C258.8,356.9,257.6,357.4,256,357.4z"/><g><path class="st1" d="M192.5,321.6c-0.5,0-0.9,0.1-1.3,0.2c-0.4,0.2-0.6,0.4-0.8,0.7v0.8c0,1.1,0.2,1.9,0.6,2.5      c0.4,0.6,0.9,0.9,1.6,0.9c0.6,0,1.1-0.2,1.4-0.7c0.3-0.5,0.5-1.1,0.5-1.9c0-0.8-0.2-1.4-0.5-1.8      C193.5,321.8,193.1,321.6,192.5,321.6z" id="XMLID_9_"/><path class="st1" d="M191.6,288.5c-9.8,13.3-15.6,29.7-15.6,47.5c17.8,0,34.2-5.8,47.5-15.6      C209.8,313.4,198.6,302.2,191.6,288.5z M195.9,327.5c-0.9,0.9-2,1.3-3.4,1.3c-1.5,0-2.7-0.5-3.6-1.5c-0.9-1-1.4-2.4-1.4-4.1      v-2.9c0-1.8,0.5-3.2,1.6-4.3c1-1.1,2.4-1.6,4-1.6c0.5,0,1.1,0,1.5,0.1c0.5,0.1,0.9,0.2,1.4,0.4l-0.5,2.1      c-0.4-0.1-0.8-0.3-1.2-0.3c-0.3-0.1-0.8-0.1-1.2-0.1c-0.8,0-1.5,0.3-2,0.9c-0.5,0.6-0.8,1.5-0.8,2.6v0.5      c0.4-0.4,0.8-0.7,1.3-0.9c0.5-0.2,1.1-0.3,1.7-0.3c1.2,0,2.1,0.4,2.8,1.3c0.7,0.9,1,2,1,3.3      C197.2,325.5,196.8,326.6,195.9,327.5z"/></g><path class="st1" d="M187.5,233.5c-16.3,2.4-32.1,10-44.7,22.5c12.6,12.6,28.3,20.1,44.7,22.5c-2.3-7.1-3.6-14.7-3.6-22.5     C183.9,248.1,185.2,240.6,187.5,233.5z M173.5,248.4c-1.6,1.9-2.7,3.5-3.2,5c-0.6,1.5-0.9,3.2-0.9,5.1v1.7h-2.8v-1.7     c0-2,0.4-3.7,1.1-5.4c0.7-1.6,1.8-3.2,3.1-4.8h-7.2v-2.2h9.9V248.4z"/><g><path class="st1" d="M191,194.2c-0.6,0-1.2,0.2-1.6,0.6c-0.4,0.4-0.6,0.9-0.6,1.5c0,0.6,0.2,1.1,0.6,1.5      c0.4,0.4,0.9,0.6,1.6,0.6c0.6,0,1.1-0.2,1.4-0.6c0.4-0.4,0.6-0.9,0.6-1.5c0-0.6-0.2-1.1-0.6-1.5      C192,194.4,191.6,194.2,191,194.2z" id="XMLID_4_"/><path class="st1" d="M191,192c0.5,0,0.8-0.2,1.1-0.5c0.3-0.3,0.4-0.8,0.4-1.4c0-0.6-0.1-1-0.4-1.3      c-0.3-0.3-0.7-0.5-1.1-0.5c-0.5,0-1,0.2-1.3,0.5c-0.3,0.3-0.5,0.8-0.5,1.3c0,0.6,0.2,1,0.5,1.4C190.1,191.9,190.5,192,191,192z" id="XMLID_3_"/><path class="st1" d="M176,176c0,17.8,5.8,34.2,15.6,47.5c6.9-13.7,18.1-24.9,31.9-31.9C210.2,181.8,193.8,176,176,176z       M194.5,199.5c-0.9,0.7-2.1,1.1-3.5,1.1c-1.5,0-2.7-0.4-3.6-1.1c-0.9-0.7-1.4-1.7-1.4-3c0-0.8,0.2-1.4,0.7-2      c0.5-0.6,1.1-1,1.9-1.4c-0.7-0.3-1.2-0.7-1.6-1.3c-0.4-0.5-0.6-1.2-0.6-1.9c0-1.2,0.4-2.2,1.3-2.9c0.8-0.7,1.9-1,3.3-1      c1.3,0,2.3,0.3,3.2,1c0.8,0.7,1.2,1.6,1.2,2.9c0,0.7-0.2,1.3-0.5,1.9c-0.4,0.5-0.9,1-1.5,1.3c0.8,0.3,1.4,0.8,1.8,1.4      c0.5,0.6,0.7,1.3,0.7,2C195.8,197.8,195.4,198.8,194.5,199.5z"/></g></g></g></g></svg>