<?xml version="1.0" ?><svg id="Layer_1" style="enable-background:new 0 0 512 512;" version="1.1" viewBox="0 0 512 512" xml:space="preserve" xmlns="http://www.w3.org/2000/svg" xmlns:xlink="http://www.w3.org/1999/xlink"><style type="text/css">
	.st0{fill:#F15842;}
	.st1{fill:#FFFFFF;}
</style><g><circle class="st0" cx="256" cy="256" id="XMLID_21_" r="256"/><g><g><g><polygon class="st1" id="XMLID_20_" points="255.9,171.5 255.9,216.7 299.1,194.1     "/><polygon class="st1" id="XMLID_19_" points="346.5,255.3 301.3,255.3 323.9,298.5     "/><polygon class="st1" id="XMLID_18_" points="256.1,346.6 256.1,301.4 212.9,324     "/><polygon class="st1" id="XMLID_17_" points="165.5,256.4 210.7,256.4 188.1,213.1     "/></g></g><path class="st1" d="M388.9,135.2c-5,0-9.2-4.2-9.2-9.2c0-2.3,0.9-4.4,2.3-6H262.5v47.8l50.4,26.3l-50.4,26.3V256    h129.4V134.6C391,135,390,135.2,388.9,135.2z" id="XMLID_16_"/><path class="st1" d="M381.3,389.9c0-5,4.2-9.2,9.2-9.2c0.5,0,1,0.1,1.4,0.1V262.4H350l-26.1,50l-26.1-50h-41.7    l-0.3,129.7h125.7C381.4,391.3,381.3,390.6,381.3,389.9z" id="XMLID_15_"/><path class="st1" d="M249.5,256H120.1v123.8c1.3-0.8,2.9-1.2,4.5-1.2c5,0,9.2,4.2,9.2,9.2c0,1.6-0.4,3-1.1,4.3    h116.8v-41.7L199,324l50.4-26.3V256z" id="XMLID_14_"/><path class="st1" d="M132.5,119.9c1.4,1.6,2.2,3.7,2.2,5.9c0,5-4.2,9.2-9.2,9.2c-2,0-3.9-0.7-5.5-1.9v116.4h41.8    l26.3-50.3l26.3,50.3h41.5l0.3-129.7H132.5z" id="XMLID_13_"/><g><path class="st1" d="M96.1,96v47.9H144V96H96.1z M126.3,129.3l-2-5.8h-8.4l-2,5.8h-3.1l8.1-22.4h2.6l7.9,22.4H126.3z"/><polygon class="st1" id="XMLID_10_" points="120.1,111.3 116.8,121 123.4,121 120.2,111.3    "/></g><g><path class="st1" d="M392.7,120.6h-0.2h-5.7v8.1h5.8c1.4,0,2.5-0.3,3.2-1c0.8-0.7,1.1-1.6,1.1-2.9     c0-1.2-0.4-2.2-1.2-3C395.1,121.1,394,120.7,392.7,120.6z" id="XMLID_9_"/><path class="st1" d="M394.5,117.3c0.7-0.6,1.1-1.5,1.1-2.6c0-1.2-0.4-2.1-1.1-2.7c-0.8-0.6-1.9-0.9-3.3-0.9h-4.3     v7.1h4.9C392.8,118.3,393.8,118,394.5,117.3z" id="XMLID_8_"/><path class="st1" d="M368,96v47.9h47.9V96H368z M398.1,129.5c-1.3,1.1-3.1,1.6-5.4,1.6h-8.9v-22.4h7.3c2.3,0,4.2,0.5,5.5,1.5     c1.3,1,2,2.5,2,4.5c0,1-0.3,1.8-0.9,2.6c-0.6,0.8-1.4,1.3-2.4,1.7c1.5,0.2,2.6,0.8,3.5,1.9c0.9,1.1,1.3,2.3,1.3,3.8     C400.1,126.9,399.4,128.4,398.1,129.5z"/></g><path class="st1" d="M368,368.1V416h47.9v-47.9H368z M388.2,399c1,1.3,2.3,2,3.9,2c1.6,0,2.9-0.4,3.8-1.3c0.9-0.9,1.3-2.1,1.3-3.7    h2.8l0,0.1c0,2-0.7,3.8-2.2,5.1c-1.5,1.4-3.4,2.1-5.8,2.1c-2.5,0-4.5-0.9-6-2.6c-1.6-1.7-2.3-4-2.3-6.6v-3.9    c0-2.7,0.8-4.9,2.3-6.6c1.6-1.7,3.6-2.6,6-2.6s4.4,0.7,5.9,2c1.5,1.3,2.2,3,2.1,5.2l0,0.1h-2.8c0-1.5-0.4-2.7-1.3-3.6    c-0.9-0.9-2.2-1.3-3.8-1.3c-1.6,0-3,0.7-3.9,2c-1,1.3-1.5,3-1.5,4.9v3.9C386.7,396,387.2,397.6,388.2,399z"/><g><path class="st1" d="M118.7,383.2h-4v17.6h4c2.1,0,3.7-0.7,4.9-2c1.2-1.4,1.8-3.1,1.8-5.2v-3.1     c0-2.1-0.6-3.9-1.8-5.2C122.4,383.9,120.8,383.2,118.7,383.2z" id="XMLID_3_"/><path class="st1" d="M96.1,368.1V416H144v-47.9H96.1z M128.5,393.6c0,2.9-0.9,5.2-2.7,7c-1.8,1.8-4.1,2.7-7.1,2.7h-7v-22.4h7     c2.9,0,5.3,0.9,7.1,2.7c1.8,1.8,2.7,4.1,2.7,7V393.6z"/></g></g></g></svg>