<?xml version="1.0" ?><svg id="Layer_1" style="enable-background:new 0 0 512 512;" version="1.1" viewBox="0 0 512 512" xml:space="preserve" xmlns="http://www.w3.org/2000/svg" xmlns:xlink="http://www.w3.org/1999/xlink"><style type="text/css">
	.st0{fill:#BF6149;}
	.st1{fill:#FFFFFF;}
</style><g><circle class="st0" cx="256" cy="256" id="XMLID_17_" r="256"/><g><g><g><polygon class="st1" id="XMLID_16_" points="329.9,263.4 326.6,273 333.3,273 330,263.4     "/><path class="st1" d="M302.3,255.8l26.6,50.9l26.6-50.9H302.3z M334.2,275.5h-8.4l-2,5.8h-3.1l8.1-22.4h2.6l7.9,22.4h-3.1      L334.2,275.5z"/></g><g><path class="st1" d="M242.1,333.2c0.7-0.6,1.1-1.5,1.1-2.6c0-1.2-0.4-2.1-1.1-2.7c-0.8-0.6-1.9-0.9-3.3-0.9h-4.3      v7.1h4.9C240.5,334.2,241.4,333.9,242.1,333.2z" id="XMLID_13_"/><path class="st1" d="M240.3,336.5h-0.2h-5.7v8.1h5.8c1.4,0,2.5-0.3,3.2-1c0.8-0.7,1.1-1.6,1.1-2.9      c0-1.2-0.4-2.2-1.2-3S241.7,336.6,240.3,336.5z" id="XMLID_12_"/><path class="st1" d="M206,335.8l50.9,26.6v-53.1L206,335.8z M245.7,345.4c-1.3,1.1-3.1,1.6-5.4,1.6h-8.9v-22.4h7.3      c2.3,0,4.2,0.5,5.5,1.5c1.3,1,2,2.5,2,4.5c0,1-0.3,1.8-0.9,2.6c-0.6,0.8-1.4,1.3-2.4,1.7c1.5,0.2,2.6,0.8,3.5,1.9      c0.9,1.1,1.3,2.3,1.3,3.8C247.7,342.8,247,344.3,245.7,345.4z"/></g><path class="st1" d="M176,205.3l-26.6,50.9h53.1L176,205.3z M182,245.6c-1.5,1.4-3.4,2.1-5.8,2.1c-2.5,0-4.5-0.9-6-2.6     c-1.6-1.7-2.3-4-2.3-6.6v-3.9c0-2.7,0.8-4.9,2.3-6.6c1.6-1.7,3.6-2.6,6-2.6c2.5,0,4.4,0.7,5.9,2c1.5,1.3,2.2,3,2.1,5.2l0,0.1     h-2.8c0-1.5-0.4-2.7-1.3-3.6s-2.2-1.3-3.8-1.3c-1.6,0-3,0.7-3.9,2c-1,1.3-1.5,3-1.5,4.9v3.9c0,2,0.5,3.6,1.5,5c1,1.3,2.3,2,3.9,2     c1.6,0,2.9-0.4,3.8-1.3c0.9-0.9,1.3-2.1,1.3-3.7h2.8l0,0.1C184.2,242.5,183.5,244.2,182,245.6z"/><g><path class="st1" d="M268.3,167.3h-4V185h4c2.1,0,3.7-0.7,4.9-2c1.2-1.4,1.8-3.1,1.8-5.2v-3.1      c0-2.1-0.6-3.9-1.8-5.2C272,168,270.4,167.3,268.3,167.3z" id="XMLID_7_"/><path class="st1" d="M255.5,149.6v53.1l50.9-26.6L255.5,149.6z M275.4,184.7c-1.8,1.8-4.1,2.7-7.1,2.7h-7V165h7      c2.9,0,5.3,0.9,7.1,2.7c1.8,1.8,2.7,4.1,2.7,7v3.1C278,180.6,277.1,182.9,275.4,184.7z"/></g></g><path class="st1" d="M192.1,335.8l63.9-33.3v-46.7H96v0c0,88.4,71.6,160,160,160l0,0v-46.7L192.1,335.8z" id="XMLID_4_"/><path class="st1" d="M145.7,249.4l30.3-58l30.3,58H256V96.2c-86.1,0-156.3,68-159.8,153.3H145.7z" id="XMLID_3_"/><path class="st1" d="M362.6,255.8l-33.8,64.7L295,255.8h-32.6v50.5l-6.4,3.3V362l6.4,3.3v50.4    c85.4-3.4,153.6-73.6,153.6-159.9v0H362.6z" id="XMLID_2_"/><path class="st1" d="M302.4,256.2h52.8l3.5-6.7h57.1c-3.4-83.1-70.3-149.9-153.5-153.2V146l57.8,30.2l-57.8,30.2    v43.1h36.5L302.4,256.2z" id="XMLID_1_"/></g></g></svg>