<?xml version="1.0" ?><svg id="Layer_1" style="enable-background:new 0 0 512 512;" version="1.1" viewBox="0 0 512 512" xml:space="preserve" xmlns="http://www.w3.org/2000/svg" xmlns:xlink="http://www.w3.org/1999/xlink"><style type="text/css">
	.st0{fill:#BF6149;}
	.st1{fill:#FFFFFF;}
</style><g><circle class="st0" cx="256" cy="256" id="XMLID_13_" r="256"/><g><g><path class="st1" d="M256,96c-88.4,0-160,71.6-160,160s71.6,160,160,160c88.4,0,160-71.6,160-160S344.4,96,256,96z M319.8,319.8     c0,35.2-28.6,63.8-63.8,63.8c-35.2,0-63.8-28.6-63.8-63.8c-35.2,0-63.8-28.6-63.8-63.8s28.6-63.8,63.8-63.8     c0-35.2,28.6-63.8,63.8-63.8c35.2,0,63.8,28.6,63.8,63.8c35.2,0,63.8,28.6,63.8,63.8S355.1,319.8,319.8,319.8z"/><path class="st1" d="M256,409.6c-41,0-79.6-16-108.6-45c-29-29-45-67.6-45-108.6s16-79.6,45-108.6s67.6-45,108.6-45     c41,0,79.6,16,108.6,45c29,29,45,67.6,45,108.6s-16,79.6-45,108.6C335.6,393.6,297,409.6,256,409.6z M186,326     c3.1,35.9,33.3,64.1,70,64.1s66.8-28.2,70-64.1c35.9-3.1,64.1-33.3,64.1-70s-28.2-66.8-64.1-70c-3.1-35.9-33.3-64.1-70-64.1     s-66.8,28.2-70,64.1c-35.9,3.1-64.1,33.3-64.1,70S150.2,322.8,186,326z"/><path class="st1" d="M281.9,307.3c10.6,7.8,23.7,12.5,37.9,12.5c0-14.2-4.6-27.3-12.5-37.9     C301.8,292.9,292.9,301.8,281.9,307.3z" id="XMLID_8_"/><path class="st1" d="M204.7,281.9c-7.8,10.6-12.5,23.7-12.5,37.9c14.2,0,27.3-4.6,37.9-12.5     C219.1,301.8,210.2,292.9,204.7,281.9z" id="XMLID_7_"/><path class="st1" d="M307.3,230.1c7.8-10.6,12.5-23.7,12.5-37.9c-14.2,0-27.3,4.6-37.9,12.5     C292.9,210.2,301.8,219.1,307.3,230.1z" id="XMLID_6_"/><path class="st1" d="M230.1,204.7c-10.6-7.8-23.7-12.5-37.9-12.5c0,14.2,4.6,27.3,12.5,37.9     C210.2,219.1,219.1,210.2,230.1,204.7z" id="XMLID_5_"/><path class="st1" d="M256,256c21.1,0,39.7,10.2,51.3,25.9c3.9-7.8,6.2-16.6,6.2-25.9c0-9.3-2.2-18.1-6.2-25.9     C295.7,245.8,277.1,256,256,256z" id="XMLID_4_"/><path class="st1" d="M256,256c-21.1,0-39.7-10.2-51.3-25.9c-3.9,7.8-6.2,16.6-6.2,25.9c0,9.3,2.2,18.1,6.2,25.9     C216.3,266.2,234.9,256,256,256z" id="XMLID_3_"/><path class="st1" d="M256,256c0,21.1-10.2,39.7-25.9,51.3c7.8,3.9,16.6,6.2,25.9,6.2c9.3,0,18.1-2.2,25.9-6.2     C266.2,295.7,256,277.1,256,256z" id="XMLID_2_"/><path class="st1" d="M256,256c0-21.1,10.2-39.7,25.9-51.3c-7.8-3.9-16.6-6.2-25.9-6.2c-9.3,0-18.1,2.2-25.9,6.2     C245.8,216.3,256,234.9,256,256z" id="XMLID_1_"/></g><g><path class="st1" d="M260.8,181.9h-9.5l-2.3,6.5h-3.5l9.1-25.3h2.9l8.9,25.3H263L260.8,181.9z M252.2,179h7.6     l-3.7-10.9H256L252.2,179z" id="XMLID_1891_"/><path class="st1" d="M323.3,268.6v-25.3h8.2c2.6,0,4.7,0.6,6.2,1.7s2.2,2.9,2.2,5.1c0,1.1-0.3,2.1-1,2.9     c-0.7,0.9-1.6,1.5-2.7,2c1.7,0.2,3,0.9,3.9,2.2c1,1.2,1.5,2.6,1.5,4.3c0,2.3-0.8,4.1-2.3,5.3c-1.5,1.2-3.5,1.8-6.1,1.8H323.3z      M326.7,254.1h5.5c1.3,0,2.3-0.4,3.1-1.1s1.2-1.7,1.2-2.9c0-1.4-0.4-2.4-1.3-3.1c-0.9-0.7-2.1-1-3.7-1h-4.8V254.1z M326.7,256.8     v9.2h6.6c1.6,0,2.8-0.4,3.6-1.2c0.9-0.8,1.3-1.9,1.3-3.3c0-1.4-0.4-2.5-1.3-3.4c-0.9-0.9-2.1-1.3-3.6-1.4h-0.2H326.7z" id="XMLID_1880_"/><path class="st1" d="M270.4,339.2l0,0.1c0,2.3-0.8,4.2-2.4,5.8c-1.7,1.6-3.9,2.3-6.6,2.3c-2.8,0-5-1-6.8-3     c-1.8-2-2.6-4.5-2.6-7.5v-4.4c0-3,0.9-5.5,2.6-7.5c1.8-2,4-3,6.8-3c2.8,0,5,0.7,6.6,2.2c1.6,1.5,2.4,3.4,2.4,5.9l0,0.1h-3.2     c0-1.7-0.5-3.1-1.5-4.1c-1-1-2.4-1.5-4.3-1.5c-1.9,0-3.3,0.7-4.4,2.2c-1.1,1.5-1.7,3.4-1.7,5.6v4.4c0,2.2,0.6,4.1,1.7,5.6     c1.1,1.5,2.6,2.2,4.4,2.2c1.8,0,3.3-0.5,4.3-1.5c1-1,1.5-2.4,1.5-4.1H270.4z" id="XMLID_1878_"/><path class="st1" d="M170.9,268.6v-25.3h8c3.3,0,6,1,8,3c2,2,3,4.7,3,7.9v3.5c0,3.2-1,5.9-3,7.9c-2,2-4.7,3-8,3     H170.9z M174.3,246V266h4.5c2.3,0,4.2-0.8,5.5-2.3c1.3-1.5,2-3.5,2-5.9v-3.5c0-2.4-0.7-4.3-2-5.9c-1.3-1.5-3.2-2.3-5.5-2.3H174.3     z" id="XMLID_1858_"/></g></g></g></svg>