<?xml version="1.0" ?><svg id="Layer_1" style="enable-background:new 0 0 512 512;" version="1.1" viewBox="0 0 512 512" xml:space="preserve" xmlns="http://www.w3.org/2000/svg" xmlns:xlink="http://www.w3.org/1999/xlink"><style type="text/css">
	.st0{fill:#FCAA3E;}
	.st1{fill:#FFFFFF;}
</style><g><circle class="st0" cx="256" cy="256" id="XMLID_30_" r="256"/><g><g><g><path class="st1" d="M369.2,369.1c28.9-29,46.8-68.9,46.8-113.1c0,22.1-9,42.1-23.4,56.6      C392.6,333,384.8,353.5,369.2,369.1z" id="XMLID_29_"/><path class="st1" d="M392.6,199.4C378.1,185,358.1,176,336,176c0-22.1-9-42.1-23.4-56.6c-20.5,0-40.9,7.8-56.6,23.4      c-15.6-15.6-36.1-23.4-56.6-23.4C185,133.9,176,153.9,176,176c-22.1,0-42.1,9-56.6,23.4c0,20.5,7.8,40.9,23.4,56.6      c-15.6,15.6-23.4,36.1-23.4,56.6C133.9,327,153.9,336,176,336c0,22.1,9,42.1,23.4,56.6c20.5,0,40.9-7.8,56.6-23.4      c15.6,15.6,36.1,23.4,56.6,23.4C327,378.1,336,358.1,336,336c22.1,0,42.1-9,56.6-23.4c0-20.5-7.8-40.9-23.4-56.6      C384.8,240.4,392.6,219.9,392.6,199.4z M369.4,303c-9.7,6.9-21.2,10.6-33.4,10.6h-22.4V336c0,12.1-3.7,23.7-10.6,33.4      c-11.7-2-22.5-7.5-31.1-16.1L256,337.5l-15.8,15.8c-8.6,8.6-19.4,14.1-31.1,16.1c-6.9-9.7-10.6-21.2-10.6-33.4v-22.4H176      c-12.1,0-23.7-3.7-33.4-10.6c2-11.7,7.5-22.5,16.1-31.1l15.8-15.8l-15.8-15.8c-8.6-8.6-14.1-19.4-16.1-31.1      c9.7-6.9,21.2-10.6,33.4-10.6h22.4V176c0-12.1,3.7-23.7,10.6-33.4c11.7,2,22.5,7.5,31.1,16.1l15.8,15.8l15.8-15.8      c8.6-8.6,19.4-14.1,31.1-16.1c6.9,9.7,10.6,21.2,10.6,33.4v22.4H336c12.1,0,23.7,3.7,33.4,10.6c-2,11.7-7.5,22.5-16.1,31.1      L337.5,256l15.8,15.8C361.9,280.4,367.4,291.2,369.4,303z"/><path class="st1" d="M142.7,143c-28.4,28.5-46.1,67.6-46.7,110.9c0.5-21.3,9.4-40.5,23.4-54.5      C119.4,179,127.2,158.6,142.7,143z" id="XMLID_26_"/><path class="st1" d="M416,253.9c-0.5-43.4-18.3-82.6-46.8-111.1c15.6,15.6,23.4,36.1,23.4,56.5      C406.6,213.5,415.4,232.7,416,253.9z" id="XMLID_25_"/><path class="st1" d="M369.1,142.8C340.2,113.9,300.2,96,256,96c22.1,0,42.1,9,56.6,23.4      C333,119.4,353.5,127.2,369.1,142.8z" id="XMLID_24_"/><path class="st1" d="M96,256c0,44.1,17.9,84.1,46.7,113c-15.5-15.6-23.3-36-23.3-56.4C105,298.1,96,278.1,96,256      z" id="XMLID_23_"/><path class="st1" d="M256,96c-44.1,0-84.1,17.9-113,46.7c15.6-15.5,36-23.3,56.4-23.3C213.9,105,233.9,96,256,96      z" id="XMLID_22_"/><path class="st1" d="M256,416c44.2,0,84.2-17.9,113.1-46.8c-15.6,15.6-36.1,23.4-56.5,23.4      C298.1,407,278.1,416,256,416z" id="XMLID_21_"/><path class="st1" d="M143,369.3c28.9,28.9,68.9,46.7,113,46.7c-22.1,0-42.1-9-56.6-23.4      C179,392.6,158.6,384.8,143,369.3z" id="XMLID_20_"/><path class="st1" d="M416,253.9c0,0.7,0,1.4,0,2.1C416,255.3,416,254.6,416,253.9z" id="XMLID_19_"/><path class="st1" d="M96,256c0-0.7,0-1.4,0-2.1C96,254.6,96,255.3,96,256z" id="XMLID_18_"/><path class="st1" d="M369.2,369.1C369.1,369.1,369.1,369.1,369.2,369.1C369.1,369.2,369.1,369.1,369.2,369.1      C369.1,369.1,369.1,369.1,369.2,369.1z" id="XMLID_17_"/><path class="st1" d="M143,142.7c0,0-0.1,0.1-0.1,0.1c0,0-0.1,0.1-0.1,0.1C142.8,142.9,142.9,142.8,143,142.7z" id="XMLID_16_"/><path class="st1" d="M142.7,369c0,0,0.1,0.1,0.1,0.1c0,0,0.1,0.1,0.1,0.1C142.9,369.2,142.8,369.1,142.7,369z" id="XMLID_15_"/><path class="st1" d="M369.2,142.9C369.1,142.9,369.1,142.9,369.2,142.9C369.1,142.9,369.1,142.8,369.2,142.9      C369.1,142.9,369.1,142.9,369.2,142.9z" id="XMLID_14_"/></g><path class="st1" d="M290.9,340.3c-1.1-0.9-2.2-1.9-3.3-2.9L256,305.8l-31.7,31.7c-1,1-2.1,2-3.3,2.9     c-0.2-1.4-0.3-2.9-0.3-4.3v-44.8H176c-1.5,0-2.9-0.1-4.3-0.3c0.9-1.1,1.9-2.2,2.9-3.3l31.7-31.7l-31.7-31.7c-1-1-2-2.1-2.9-3.3     c1.4-0.2,2.9-0.3,4.3-0.3h44.8V176c0-1.5,0.1-2.9,0.3-4.3c1.1,0.9,2.2,1.9,3.3,2.9l31.7,31.7l31.7-31.7c1-1,2.1-2,3.3-2.9     c0.2,1.4,0.3,2.9,0.3,4.3v44.8H336c1.5,0,2.9,0.1,4.3,0.3c-0.9,1.1-1.9,2.2-2.9,3.3L305.8,256l31.7,31.7c1,1,2,2.1,2.9,3.3     c-1.4,0.2-2.9,0.3-4.3,0.3h-44.8V336C291.2,337.5,291.1,338.9,290.9,340.3z" id="XMLID_13_"/></g><g><path class="st1" d="M256.9,130.8h-4v-16.7h-4.2V111l8.2-0.7V130.8z"/><path class="st1" d="M357.4,170.9h-13.6v-2.7l6.3-7.1c0.9-1.1,1.6-2,2-2.8c0.4-0.8,0.6-1.5,0.6-2.1c0-0.8-0.2-1.5-0.6-2     c-0.4-0.5-1-0.8-1.9-0.8c-0.9,0-1.6,0.3-2,1s-0.7,1.4-0.7,2.4h-3.9l0-0.1c0-1.8,0.5-3.3,1.8-4.6c1.2-1.2,2.9-1.9,5-1.9     s3.7,0.5,4.8,1.6c1.1,1.1,1.7,2.5,1.7,4.3c0,1.2-0.3,2.3-1,3.3c-0.6,1-1.8,2.4-3.3,4.2l-3.3,4l0,0.1h8.3V170.9z"/><path class="st1" d="M388.7,256.1c1,0,1.7-0.3,2.1-0.8c0.5-0.5,0.7-1.2,0.7-2.1c0-0.8-0.2-1.4-0.7-1.9c-0.5-0.5-1.2-0.8-2.1-0.8     c-0.7,0-1.4,0.2-1.9,0.7c-0.5,0.5-0.8,1-0.8,1.7h-3.9l0-0.1c-0.1-1.6,0.6-2.9,1.8-3.9c1.3-1,2.9-1.5,4.7-1.5c2.1,0,3.8,0.5,5,1.5     s1.8,2.4,1.8,4.2c0,0.9-0.3,1.8-0.8,2.5c-0.5,0.8-1.3,1.4-2.2,1.8c1.1,0.4,1.9,1,2.4,1.8c0.6,0.8,0.9,1.8,0.9,2.9     c0,1.9-0.7,3.3-2,4.4c-1.3,1.1-3.1,1.6-5.1,1.6c-1.8,0-3.5-0.5-4.8-1.5c-1.4-1-2-2.4-2-4.2l0-0.1h3.9c0,0.8,0.3,1.4,0.8,1.9     c0.5,0.5,1.2,0.8,2.1,0.8c0.9,0,1.7-0.3,2.3-0.8c0.6-0.5,0.9-1.2,0.9-2.1c0-1.1-0.3-1.9-0.8-2.4c-0.5-0.5-1.3-0.8-2.4-0.8h-2.2     v-3H388.7z"/><path class="st1" d="M358.4,352.8h2.3v3.1h-2.3v4.4h-4.1v-4.4h-8.2l-0.2-2.4l8.4-13.4h4.1V352.8z M349.6,352.8h4.8v-7.3l-0.1,0     l-0.4,0.9L349.6,352.8z"/><path class="st1" d="M249.6,392.5l1.2-11.3h11.3v3.3h-8l-0.6,4.7c0.4-0.3,0.9-0.5,1.4-0.7s1.2-0.3,1.9-0.3c1.9,0,3.3,0.6,4.4,1.7     c1,1.2,1.5,2.9,1.5,5c0,2-0.6,3.6-1.7,4.9c-1.1,1.3-2.8,1.9-5.1,1.9c-1.9,0-3.5-0.5-4.8-1.5c-1.3-1-2-2.3-1.9-4.1l0-0.1l3.9-0.2     c0,0.8,0.3,1.5,0.8,2c0.5,0.5,1.2,0.7,2,0.7c1,0,1.7-0.3,2.1-0.9c0.4-0.6,0.7-1.5,0.7-2.7c0-1.2-0.2-2.1-0.7-2.8     c-0.5-0.7-1.2-1-2.1-1c-0.8,0-1.4,0.1-1.8,0.4c-0.4,0.3-0.7,0.7-0.9,1.2L249.6,392.5z"/><path class="st1" d="M168,346.3c0.8,0,1.5,0.1,2.2,0.2c0.7,0.1,1.3,0.4,2,0.6l-0.7,3c-0.6-0.2-1.2-0.4-1.7-0.5     c-0.5-0.1-1.1-0.2-1.7-0.2c-1.2,0-2.1,0.5-2.9,1.4c-0.7,0.9-1.1,2.2-1.1,3.8v0.7c0.5-0.5,1.2-0.9,1.9-1.2     c0.7-0.3,1.6-0.4,2.5-0.4c1.7,0,3.1,0.6,4.1,1.8c1,1.2,1.5,2.8,1.5,4.8c0,2-0.6,3.7-1.9,4.9c-1.3,1.3-2.9,1.9-4.9,1.9     c-2.1,0-3.8-0.7-5.2-2.2c-1.3-1.4-2-3.4-2-5.9v-4.2c0-2.6,0.8-4.6,2.3-6.2C163.7,347.1,165.6,346.3,168,346.3z M167.1,356.7     c-0.7,0-1.4,0.1-1.9,0.4c-0.5,0.2-0.9,0.6-1.2,1v1.1c0,1.6,0.3,2.8,0.9,3.6c0.6,0.9,1.3,1.3,2.3,1.3c0.8,0,1.5-0.4,2-1.1     c0.5-0.7,0.7-1.6,0.7-2.7c0-1.1-0.3-2-0.8-2.6C168.6,357,168,356.7,167.1,356.7z"/><path class="st1" d="M130.4,254c-2.3,2.7-3.8,5.1-4.7,7.2c-0.8,2.1-1.2,4.6-1.2,7.4v2.5h-4.1v-2.5c0-2.8,0.5-5.4,1.5-7.7     c1-2.3,2.5-4.6,4.5-6.9h-10.3v-3.1h14.2V254z"/><path class="st1" d="M165,161.1c0,1-0.3,1.9-0.8,2.7c-0.5,0.8-1.2,1.4-2.1,1.8c1.1,0.5,2,1.1,2.6,2c0.6,0.8,1,1.8,1,2.9     c0,1.9-0.7,3.3-2,4.4c-1.3,1-3,1.6-5,1.6c-2.1,0-3.9-0.5-5.2-1.6c-1.4-1-2-2.5-2-4.4c0-1.1,0.3-2.1,1-2.9c0.7-0.8,1.6-1.5,2.7-2     c-1-0.4-1.7-1-2.2-1.8c-0.5-0.8-0.8-1.7-0.8-2.7c0-1.8,0.6-3.1,1.8-4.1c1.2-1,2.8-1.4,4.7-1.4c1.9,0,3.4,0.5,4.5,1.4     C164.4,158,165,159.3,165,161.1z M161.6,170.3c0-0.9-0.3-1.6-0.8-2.2c-0.6-0.6-1.3-0.9-2.1-0.9c-0.9,0-1.7,0.3-2.3,0.9     c-0.6,0.6-0.9,1.3-0.9,2.2c0,0.9,0.3,1.6,0.9,2.2c0.6,0.5,1.4,0.8,2.3,0.8c0.8,0,1.5-0.3,2.1-0.8     C161.3,171.9,161.6,171.2,161.6,170.3z M161,161.3c0-0.8-0.2-1.4-0.6-1.9c-0.4-0.5-1-0.7-1.6-0.7c-0.8,0-1.4,0.2-1.8,0.7     c-0.5,0.5-0.7,1.1-0.7,1.9c0,0.8,0.2,1.5,0.7,2c0.5,0.5,1.1,0.8,1.8,0.8c0.7,0,1.2-0.3,1.6-0.8C160.8,162.8,161,162.1,161,161.3z     "/></g></g></g></svg>