<?xml version="1.0" ?><svg id="Layer_1" style="enable-background:new 0 0 512 512;" version="1.1" viewBox="0 0 512 512" xml:space="preserve" xmlns="http://www.w3.org/2000/svg" xmlns:xlink="http://www.w3.org/1999/xlink"><style type="text/css">
	.st0{fill:#F15842;}
	.st1{fill:#FFFFFF;}
</style><g><circle class="st0" cx="256" cy="256" id="XMLID_13_" r="256"/><g><polygon class="st1" id="XMLID_12_" points="259.8,153.1 259.7,153.1 255.2,166 264.2,166   "/><path class="st1" d="M256,256c0-44.2,35.8-80,80-80c0-44.2-35.8-80-80-80s-80,35.8-80,80C220.2,176,256,211.8,256,256z M258,147    h3.5l10.6,30.1H268l-2.6-7.8H254l-2.7,7.8h-4.2L258,147z"/><path class="st1" d="M349.5,250.5c1-0.8,1.4-2,1.4-3.5c0-1.6-0.5-2.8-1.5-3.7c-1-0.8-2.5-1.2-4.4-1.2h-5.8v9.6h6.6    C347.3,251.8,348.6,251.4,349.5,250.5z" id="XMLID_9_"/><path class="st1" d="M347.1,255h-0.3h-7.7v10.9h7.9c1.9,0,3.3-0.5,4.3-1.4c1-0.9,1.5-2.2,1.5-3.9c0-1.7-0.5-3-1.6-4    S348.9,255,347.1,255z" id="XMLID_8_"/><path class="st1" d="M336,176c0,44.2-35.8,80-80,80c44.2,0,80,35.8,80,80c44.2,0,80-35.8,80-80C416,211.8,380.2,176,336,176z     M354.4,266.9c-1.8,1.5-4.2,2.2-7.3,2.2h-11.9V239h9.8c3.1,0,5.6,0.7,7.4,2c1.8,1.4,2.7,3.4,2.7,6.1c0,1.3-0.4,2.5-1.2,3.5    c-0.8,1-1.9,1.8-3.2,2.3c2,0.3,3.5,1.1,4.7,2.6c1.2,1.4,1.7,3.1,1.7,5.1C357.1,263.4,356.2,265.5,354.4,266.9z"/><path class="st1" d="M256,256c0,44.2-35.8,80-80,80c0,44.2,35.8,80,80,80s80-35.8,80-80C291.8,336,256,300.2,256,256z     M257.2,359.2c1.3,1.8,3.1,2.7,5.3,2.7c2.2,0,3.9-0.6,5.1-1.8c1.2-1.2,1.8-2.8,1.8-4.9h3.8l0,0.1c0.1,2.7-0.9,5-2.9,6.9    c-2,1.9-4.6,2.8-7.9,2.8c-3.3,0-6-1.2-8.1-3.5c-2.1-2.3-3.1-5.3-3.1-8.9v-5.2c0-3.6,1-6.6,3.1-8.9c2.1-2.4,4.8-3.5,8.1-3.5    c3.3,0,5.9,0.9,7.9,2.6c2,1.8,2.9,4.1,2.9,7l0,0.1h-3.8c0-2.1-0.6-3.7-1.8-4.9c-1.2-1.2-2.9-1.8-5.1-1.8c-2.2,0-4,0.9-5.3,2.7    c-1.3,1.8-2,4-2,6.6v5.2C255.2,355.2,255.9,357.4,257.2,359.2z"/><path class="st1" d="M164.4,242H159v23.7h5.4c2.8,0,5-0.9,6.6-2.8c1.6-1.8,2.4-4.2,2.4-7.1v-4.2    c0-2.8-0.8-5.2-2.4-7C169.4,242.9,167.2,242,164.4,242z" id="XMLID_3_"/><path class="st1" d="M256,256c-44.2,0-80-35.8-80-80c-44.2,0-80,35.8-80,80c0,44.2,35.8,80,80,80C176,291.8,211.8,256,256,256z     M177.5,255.9c0,3.8-1.2,7-3.6,9.4c-2.4,2.4-5.6,3.6-9.5,3.6h-9.5v-30.1h9.5c3.9,0,7.1,1.2,9.5,3.6c2.4,2.4,3.6,5.5,3.6,9.4V255.9    z"/></g></g></svg>