<?xml version="1.0" ?><svg id="Layer_1" style="enable-background:new 0 0 512 512;" version="1.1" viewBox="0 0 512 512" xml:space="preserve" xmlns="http://www.w3.org/2000/svg" xmlns:xlink="http://www.w3.org/1999/xlink"><style type="text/css">
	.st0{fill:#54A27C;}
	.st1{fill:#FFFFFF;}
</style><g><circle class="st0" cx="256" cy="256" id="XMLID_63_" r="256"/><g><g><g><path class="st1" d="M287.7,132.7c0-20.3-16.5-36.7-36.7-36.7s-36.7,16.5-36.7,36.7c0,20.3,16.5,36.7,36.7,36.7      S287.7,153,287.7,132.7z M236.3,147.4c-8.1,0-14.7-6.6-14.7-14.7c0-8.1,6.6-14.7,14.7-14.7c0-8.1,6.6-14.7,14.7-14.7      c8.1,0,14.7,6.6,14.7,14.7c8.1,0,14.7,6.6,14.7,14.7c0,8.1-6.6,14.7-14.7,14.7c0,8.1-6.6,14.7-14.7,14.7      C242.8,162.1,236.3,155.5,236.3,147.4z"/><path class="st1" d="M276.9,132.7c0-14.3-11.6-25.9-25.9-25.9c-14.3,0-25.9,11.6-25.9,25.9c0,14.3,11.6,25.9,25.9,25.9      C265.3,158.7,276.9,147.1,276.9,132.7z M240.6,143.1c-5.7,0-10.3-4.6-10.3-10.3c0-5.7,4.6-10.3,10.3-10.3      c0-5.7,4.6-10.3,10.3-10.3s10.3,4.6,10.3,10.3c5.7,0,10.3,4.6,10.3,10.3c0,5.7-4.6,10.3-10.3,10.3c0,5.7-4.6,10.3-10.3,10.3      S240.6,148.8,240.6,143.1z"/><path class="st1" d="M268.2,132.7c0-9.5-7.7-17.3-17.3-17.3s-17.3,7.7-17.3,17.3s7.7,17.3,17.3,17.3S268.2,142.3,268.2,132.7z       M244,139.6c-3.8,0-6.9-3.1-6.9-6.9s3.1-6.9,6.9-6.9c0-3.8,3.1-6.9,6.9-6.9c3.8,0,6.9,3.1,6.9,6.9c3.8,0,6.9,3.1,6.9,6.9      s-3.1,6.9-6.9,6.9c0,3.8-3.1,6.9-6.9,6.9C247.1,146.5,244,143.4,244,139.6z"/><path class="st1" d="M261.8,132.7c0-6-4.9-10.9-10.9-10.9c-6,0-10.9,4.9-10.9,10.9c0,6,4.9,10.9,10.9,10.9      C257,143.6,261.8,138.8,261.8,132.7z M246.6,137.1c-2.4,0-4.3-1.9-4.3-4.3c0-2.4,1.9-4.3,4.3-4.3c0-2.4,1.9-4.3,4.3-4.3      c2.4,0,4.3,1.9,4.3,4.3c2.4,0,4.3,1.9,4.3,4.3c0,2.4-1.9,4.3-4.3,4.3c0,2.4-1.9,4.3-4.3,4.3      C248.5,141.4,246.6,139.5,246.6,137.1z"/></g><g><g id="XMLID_171_"><path class="st1" d="M287.7,212.4c0-20.3-16.5-36.7-36.7-36.7s-36.7,16.5-36.7,36.7       c0,20.3,16.5,36.7,36.7,36.7S287.7,232.7,287.7,212.4z M236.3,227.1c-8.1,0-14.7-6.6-14.7-14.7c0-8.1,6.6-14.7,14.7-14.7       c0-8.1,6.6-14.7,14.7-14.7c8.1,0,14.7,6.6,14.7,14.7c8.1,0,14.7,6.6,14.7,14.7c0,8.1-6.6,14.7-14.7,14.7       c0,8.1-6.6,14.7-14.7,14.7C242.8,241.7,236.3,235.2,236.3,227.1z" id="XMLID_183_"/><g id="XMLID_178_"><g id="XMLID_179_"><path class="st1" d="M276.9,212.4c0-14.3-11.6-25.9-25.9-25.9c-14.3,0-25.9,11.6-25.9,25.9         c0,14.3,11.6,25.9,25.9,25.9C265.3,238.4,276.9,226.7,276.9,212.4z M240.6,222.8c-5.7,0-10.3-4.6-10.3-10.3         c0-5.7,4.6-10.3,10.3-10.3c0-5.7,4.6-10.3,10.3-10.3s10.3,4.6,10.3,10.3c5.7,0,10.3,4.6,10.3,10.3c0,5.7-4.6,10.3-10.3,10.3         c0,5.7-4.6,10.3-10.3,10.3S240.6,228.5,240.6,222.8z" id="XMLID_180_"/></g></g><path class="st1" d="M268.2,212.4c0-9.5-7.7-17.3-17.3-17.3s-17.3,7.7-17.3,17.3s7.7,17.3,17.3,17.3       S268.2,221.9,268.2,212.4z M244,219.3c-3.8,0-6.9-3.1-6.9-6.9s3.1-6.9,6.9-6.9c0-3.8,3.1-6.9,6.9-6.9c3.8,0,6.9,3.1,6.9,6.9       c3.8,0,6.9,3.1,6.9,6.9s-3.1,6.9-6.9,6.9c0,3.8-3.1,6.9-6.9,6.9C247.1,226.2,244,223.1,244,219.3z" id="XMLID_175_"/><path class="st1" d="M261.8,212.4c0-6-4.9-10.9-10.9-10.9c-6,0-10.9,4.9-10.9,10.9s4.9,10.9,10.9,10.9       C257,223.3,261.8,218.4,261.8,212.4z M246.6,216.8c-2.4,0-4.3-1.9-4.3-4.3s1.9-4.3,4.3-4.3c0-2.4,1.9-4.3,4.3-4.3       c2.4,0,4.3,1.9,4.3,4.3c2.4,0,4.3,1.9,4.3,4.3s-1.9,4.3-4.3,4.3c0,2.4-1.9,4.3-4.3,4.3C248.5,221.1,246.6,219.2,246.6,216.8z" id="XMLID_172_"/></g></g><g><path class="st1" d="M287.7,292.1c0-20.3-16.5-36.7-36.7-36.7s-36.7,16.5-36.7,36.7s16.5,36.7,36.7,36.7      S287.7,312.4,287.7,292.1z M236.3,306.7c-8.1,0-14.7-6.6-14.7-14.7c0-8.1,6.6-14.7,14.7-14.7c0-8.1,6.6-14.7,14.7-14.7      c8.1,0,14.7,6.6,14.7,14.7c8.1,0,14.7,6.6,14.7,14.7c0,8.1-6.6,14.7-14.7,14.7c0,8.1-6.6,14.7-14.7,14.7      C242.8,321.4,236.3,314.8,236.3,306.7z"/><path class="st1" d="M276.9,292.1c0-14.3-11.6-25.9-25.9-25.9c-14.3,0-25.9,11.6-25.9,25.9c0,14.3,11.6,25.9,25.9,25.9      C265.3,318,276.9,306.4,276.9,292.1z M240.6,302.4c-5.7,0-10.3-4.6-10.3-10.3c0-5.7,4.6-10.3,10.3-10.3      c0-5.7,4.6-10.3,10.3-10.3s10.3,4.6,10.3,10.3c5.7,0,10.3,4.6,10.3,10.3c0,5.7-4.6,10.3-10.3,10.3c0,5.7-4.6,10.3-10.3,10.3      S240.6,308.1,240.6,302.4z"/><path class="st1" d="M268.2,292.1c0-9.5-7.7-17.3-17.3-17.3s-17.3,7.7-17.3,17.3c0,9.5,7.7,17.3,17.3,17.3      S268.2,301.6,268.2,292.1z M244,299c-3.8,0-6.9-3.1-6.9-6.9s3.1-6.9,6.9-6.9c0-3.8,3.1-6.9,6.9-6.9c3.8,0,6.9,3.1,6.9,6.9      c3.8,0,6.9,3.1,6.9,6.9s-3.1,6.9-6.9,6.9c0,3.8-3.1,6.9-6.9,6.9C247.1,305.9,244,302.8,244,299z"/><path class="st1" d="M261.8,292.1c0-6-4.9-10.9-10.9-10.9c-6,0-10.9,4.9-10.9,10.9s4.9,10.9,10.9,10.9      C257,303,261.8,298.1,261.8,292.1z M246.6,296.4c-2.4,0-4.3-1.9-4.3-4.3c0-2.4,1.9-4.3,4.3-4.3c0-2.4,1.9-4.3,4.3-4.3      c2.4,0,4.3,1.9,4.3,4.3c2.4,0,4.3,1.9,4.3,4.3c0,2.4-1.9,4.3-4.3,4.3c0,2.4-1.9,4.3-4.3,4.3      C248.5,300.8,246.6,298.8,246.6,296.4z"/></g><g><path class="st1" d="M287.7,371.7c0-20.3-16.5-36.7-36.7-36.7s-36.7,16.5-36.7,36.7s16.5,36.7,36.7,36.7S287.7,392,287.7,371.7z       M236.3,386.4c-8.1,0-14.7-6.6-14.7-14.7c0-8.1,6.6-14.7,14.7-14.7c0-8.1,6.6-14.7,14.7-14.7c8.1,0,14.7,6.6,14.7,14.7      c8.1,0,14.7,6.6,14.7,14.7c0,8.1-6.6,14.7-14.7,14.7c0,8.1-6.6,14.7-14.7,14.7C242.8,401.1,236.3,394.5,236.3,386.4z"/><path class="st1" d="M276.9,371.7c0-14.3-11.6-25.9-25.9-25.9c-14.3,0-25.9,11.6-25.9,25.9c0,14.3,11.6,25.9,25.9,25.9      C265.3,397.7,276.9,386.1,276.9,371.7z M240.6,382.1c-5.7,0-10.3-4.6-10.3-10.3c0-5.7,4.6-10.3,10.3-10.3      c0-5.7,4.6-10.3,10.3-10.3s10.3,4.6,10.3,10.3c5.7,0,10.3,4.6,10.3,10.3c0,5.7-4.6,10.3-10.3,10.3c0,5.7-4.6,10.3-10.3,10.3      S240.6,387.8,240.6,382.1z"/><path class="st1" d="M268.2,371.7c0-9.5-7.7-17.3-17.3-17.3s-17.3,7.7-17.3,17.3c0,9.5,7.7,17.3,17.3,17.3      S268.2,381.3,268.2,371.7z M244,378.6c-3.8,0-6.9-3.1-6.9-6.9s3.1-6.9,6.9-6.9c0-3.8,3.1-6.9,6.9-6.9c3.8,0,6.9,3.1,6.9,6.9      c3.8,0,6.9,3.1,6.9,6.9s-3.1,6.9-6.9,6.9c0,3.8-3.1,6.9-6.9,6.9C247.1,385.5,244,382.4,244,378.6z"/><path class="st1" d="M261.8,371.7c0-6-4.9-10.9-10.9-10.9c-6,0-10.9,4.9-10.9,10.9s4.9,10.9,10.9,10.9      C257,382.6,261.8,377.8,261.8,371.7z M246.6,376.1c-2.4,0-4.3-1.9-4.3-4.3s1.9-4.3,4.3-4.3c0-2.4,1.9-4.3,4.3-4.3      c2.4,0,4.3,1.9,4.3,4.3c2.4,0,4.3,1.9,4.3,4.3s-1.9,4.3-4.3,4.3c0,2.4-1.9,4.3-4.3,4.3C248.5,380.4,246.6,378.5,246.6,376.1z"/></g></g><path class="st1" d="M292.9,172.5h-8.2l-2,5.6h-3l7.9-21.9h2.5l7.7,21.9h-3L292.9,172.5z M285.5,170h6.5    l-3.2-9.4h-0.1L285.5,170z" id="XMLID_1451_"/><path class="st1" d="M280.8,261.1v-21.9h7.1c2.3,0,4.1,0.5,5.4,1.5c1.3,1,1.9,2.5,1.9,4.4c0,0.9-0.3,1.8-0.9,2.5    c-0.6,0.7-1.4,1.3-2.3,1.7c1.4,0.2,2.6,0.8,3.4,1.9c0.8,1,1.3,2.3,1.3,3.7c0,2-0.7,3.5-2,4.6c-1.3,1.1-3.1,1.6-5.3,1.6H280.8z     M283.7,248.5h4.8c1.1,0,2-0.3,2.7-0.9s1-1.4,1-2.5c0-1.2-0.4-2.1-1.1-2.7c-0.7-0.6-1.8-0.9-3.2-0.9h-4.2V248.5z M283.7,250.8v7.9    h5.7c1.4,0,2.4-0.3,3.1-1c0.7-0.7,1.1-1.6,1.1-2.8c0-1.2-0.4-2.2-1.1-2.9c-0.8-0.7-1.8-1.1-3.1-1.2h-0.2H283.7z" id="XMLID_1175_"/><path class="st1" d="M296.7,332.7L296.7,332.7c0.1,2.1-0.6,3.8-2.1,5.1c-1.4,1.3-3.3,2-5.7,2    c-2.4,0-4.4-0.9-5.9-2.6c-1.5-1.7-2.3-3.9-2.3-6.5v-3.8c0-2.6,0.8-4.8,2.3-6.5c1.5-1.7,3.5-2.6,5.9-2.6c2.4,0,4.3,0.6,5.7,1.9    c1.4,1.3,2.1,3,2.1,5.1l0,0.1h-2.8c0-1.5-0.4-2.7-1.3-3.5c-0.9-0.9-2.1-1.3-3.7-1.3c-1.6,0-2.9,0.6-3.8,1.9    c-1,1.3-1.4,2.9-1.4,4.8v3.8c0,1.9,0.5,3.6,1.4,4.8c1,1.3,2.2,1.9,3.8,1.9c1.6,0,2.8-0.4,3.7-1.3c0.9-0.9,1.3-2.1,1.3-3.6H296.7z" id="XMLID_1098_"/><path class="st1" d="M280.5,416v-21.9h6.9c2.9,0,5.2,0.9,6.9,2.6c1.7,1.8,2.6,4,2.6,6.8v3c0,2.8-0.9,5.1-2.6,6.8    c-1.7,1.7-4,2.6-6.9,2.6H280.5z M283.5,396.5v17.2h3.9c2,0,3.6-0.7,4.8-2c1.2-1.3,1.8-3,1.8-5.1v-3c0-2.1-0.6-3.8-1.8-5.1    c-1.2-1.3-2.8-2-4.8-2H283.5z" id="XMLID_1073_"/></g></g></svg>