<?xml version="1.0" ?><svg id="Layer_1" style="enable-background:new 0 0 512 512;" version="1.1" viewBox="0 0 512 512" xml:space="preserve" xmlns="http://www.w3.org/2000/svg" xmlns:xlink="http://www.w3.org/1999/xlink"><style type="text/css">
	.st0{fill:#FCAA3E;}
	.st1{fill:#FFFFFF;}
</style><g><circle class="st0" cx="256" cy="256" id="XMLID_17_" r="256"/><g><g><path class="st1" d="M243.7,127.5L243.7,127.5c-6.9-6.9-6.9-18,0-24.8l0,0c6.9-6.9,18-6.9,24.8,0l0,0     c6.9,6.9,6.9,18,0,24.8l0,0C261.6,134.3,250.5,134.3,243.7,127.5z" id="XMLID_16_"/><path class="st1" d="M384.5,268.3L384.5,268.3c-6.9-6.9-6.9-18,0-24.8l0,0c6.9-6.9,18-6.9,24.8,0v0     c6.9,6.9,6.9,18,0,24.8v0C402.5,275.2,391.4,275.2,384.5,268.3z" id="XMLID_15_"/><path class="st1" d="M243.5,409.3L243.5,409.3c-6.9-6.9-6.9-18,0-24.8l0,0c6.9-6.9,18-6.9,24.8,0l0,0     c6.9,6.9,6.9,18,0,24.8h0C261.5,416.2,250.4,416.2,243.5,409.3z" id="XMLID_14_"/><path class="st1" d="M102.7,268.5L102.7,268.5c-6.9-6.9-6.9-18,0-24.8l0,0c6.9-6.9,18-6.9,24.8,0l0,0     c6.9,6.9,6.9,18,0,24.8l0,0C120.6,275.3,109.5,275.3,102.7,268.5z" id="XMLID_13_"/></g><g><polygon class="st1" id="XMLID_12_" points="257.6,180.3 254.2,190 260.9,190 257.6,180.3    "/><path class="st1" d="M316.8,175.8l-50.9-50.9c-5.4-5.4-14.1-5.4-19.5,0l-50.9,50.9c-5.4,5.4-5.4,14.1,0,19.5l50.9,50.9     c5.4,5.4,14.1,5.4,19.5,0l50.9-50.9C322.2,190,322.2,181.2,316.8,175.8z M263.8,198.4l-2-5.8h-8.5l-2,5.8h-3.1l8.2-22.6h2.6     l8,22.6H263.8z"/></g><g><path class="st1" d="M321.3,256.8h-0.2h-5.7v8.2h5.9c1.4,0,2.5-0.3,3.3-1c0.8-0.7,1.2-1.7,1.2-2.9     c0-1.3-0.4-2.3-1.2-3C323.7,257.2,322.6,256.8,321.3,256.8z" id="XMLID_9_"/><path class="st1" d="M323.1,253.4c0.7-0.6,1.1-1.5,1.1-2.6c0-1.2-0.4-2.1-1.2-2.7c-0.8-0.6-1.9-0.9-3.3-0.9h-4.3     v7.2h5C321.4,254.4,322.4,254.1,323.1,253.4z" id="XMLID_8_"/><path class="st1" d="M387.1,246.2l-50.9-50.9c-5.4-5.4-14.1-5.4-19.5,0l-50.9,50.9c-5.4,5.4-5.4,14.1,0,19.5l50.9,50.9     c5.4,5.4,14.1,5.4,19.5,0l50.9-50.9C392.5,260.3,392.5,251.6,387.1,246.2z M326.7,265.7c-1.3,1.1-3.2,1.6-5.5,1.6h-9v-22.6h7.4     c2.4,0,4.2,0.5,5.5,1.5s2,2.6,2,4.6c0,1-0.3,1.8-0.9,2.6s-1.4,1.4-2.4,1.8c1.5,0.2,2.7,0.8,3.5,1.9c0.9,1.1,1.3,2.3,1.3,3.8     C328.7,263.1,328,264.6,326.7,265.7z"/></g><path class="st1" d="M316.6,316.6l-50.9-50.9c-5.4-5.4-14.1-5.4-19.5,0l-50.9,50.9c-5.4,5.4-5.4,14.1,0,19.5l50.9,50.9    c5.4,5.4,14.1,5.4,19.5,0l50.9-50.9C322,330.8,322,322,316.6,316.6z M253.7,335c1,1.3,2.3,2,4,2c1.7,0,2.9-0.4,3.8-1.3    c0.9-0.9,1.4-2.1,1.4-3.7h2.9l0,0.1c0,2.1-0.7,3.8-2.2,5.2c-1.5,1.4-3.5,2.1-5.9,2.1c-2.5,0-4.5-0.9-6.1-2.6    c-1.6-1.8-2.3-4-2.3-6.7v-3.9c0-2.7,0.8-4.9,2.3-6.7c1.6-1.8,3.6-2.7,6.1-2.7s4.5,0.7,5.9,2c1.5,1.3,2.2,3.1,2.1,5.3l0,0.1h-2.9    c0-1.5-0.5-2.8-1.4-3.7c-0.9-0.9-2.2-1.3-3.8-1.3c-1.7,0-3,0.7-4,2c-1,1.3-1.5,3-1.5,5v3.9C252.3,332,252.8,333.7,253.7,335z"/><g><path class="st1" d="M184.1,247H180v17.8h4.1c2.1,0,3.7-0.7,4.9-2.1c1.2-1.4,1.8-3.1,1.8-5.3v-3.1     c0-2.1-0.6-3.9-1.8-5.3C187.8,247.7,186.2,247,184.1,247z" id="XMLID_3_"/><path class="st1" d="M246.3,246.3l-50.9-50.9c-5.4-5.4-14.1-5.4-19.5,0l-50.9,50.9c-5.4,5.4-5.4,14.1,0,19.5l50.9,50.9     c5.4,5.4,14.1,5.4,19.5,0l50.9-50.9C251.7,260.4,251.7,251.7,246.3,246.3z M193.9,257.5c0,2.9-0.9,5.2-2.7,7     c-1.8,1.8-4.2,2.7-7.1,2.7H177v-22.6h7.1c3,0,5.3,0.9,7.1,2.7c1.8,1.8,2.7,4.2,2.7,7V257.5z"/></g></g></g></svg>