<?xml version="1.0" ?><svg id="Layer_1" style="enable-background:new 0 0 512 512;" version="1.1" viewBox="0 0 512 512" xml:space="preserve" xmlns="http://www.w3.org/2000/svg" xmlns:xlink="http://www.w3.org/1999/xlink"><style type="text/css">
	.st0{fill:#F15842;}
	.st1{fill:#FFFFFF;}
</style><g><circle class="st0" cx="256" cy="256" id="XMLID_49_" r="256"/><g><g><path class="st1" d="M256,96c-88.4,0-160,71.6-160,160c0,88.4,71.6,160,160,160s160-71.6,160-160C416,167.6,344.4,96,256,96z      M367.8,302.3c0,16.8-6.4,33.5-19.2,46.3s-29.6,19.2-46.3,19.2C290.5,379.7,274.1,387,256,387c-18.1,0-34.5-7.3-46.3-19.2     c-16.8,0-33.5-6.4-46.3-19.2c-12.8-12.8-19.2-29.6-19.2-46.3C132.3,290.5,125,274.1,125,256c0-18.1,7.3-34.5,19.2-46.3     c0-16.8,6.4-33.5,19.2-46.3c12.8-12.8,29.6-19.2,46.3-19.2c11.9-11.9,28.2-19.2,46.3-19.2c18.1,0,34.5,7.3,46.3,19.2     c16.8,0,33.5,6.4,46.3,19.2c12.8,12.8,19.2,29.6,19.2,46.3c11.9,11.9,19.2,28.2,19.2,46.3C387,274.1,379.7,290.5,367.8,302.3z"/><path class="st1" d="M256,409.6c-41,0-79.6-16-108.6-45c-29-29-45-67.6-45-108.6s16-79.6,45-108.6c29-29,67.6-45,108.6-45     s79.6,16,108.6,45c29,29,45,67.6,45,108.6s-16,79.6-45,108.6C335.6,393.6,297,409.6,256,409.6z M207.1,374.2     c13.3,12.4,30.6,19.2,48.9,19.2c18.3,0,35.6-6.8,48.9-19.2c18.2-0.7,35.3-8.1,48.2-21c13-13,20.4-30,21-48.2     c12.4-13.3,19.2-30.6,19.2-48.9c0-18.3-6.8-35.6-19.2-48.9c-0.7-18.2-8.1-35.3-21-48.2c-13-13-30-20.4-48.2-21     c-13.3-12.4-30.6-19.2-48.9-19.2c-18.3,0-35.6,6.8-48.9,19.2c-18.2,0.7-35.3,8.1-48.2,21c-13,13-20.4,30-21,48.2     c-12.4,13.3-19.2,30.6-19.2,48.9c0,18.3,6.8,35.6,19.2,48.9c0.7,18.2,8.1,35.3,21,48.2C171.8,366.1,188.8,373.5,207.1,374.2z"/><path class="st1" d="M321.1,272.4c-1.6,6.4-4.1,12.4-7.4,17.9c5,9.3,7.9,19.9,7.9,31.1c18.1,0,34.5-7.3,46.3-19.2     c0-16.8-6.4-33.5-19.2-46.3C340.7,264,331.2,269.4,321.1,272.4z" id="XMLID_44_"/><path class="st1" d="M290.4,313.6c-5.5,3.3-11.5,5.8-17.9,7.4c-3,10.1-8.5,19.6-16.4,27.6     c12.8,12.8,29.6,19.2,46.3,19.2c11.9-11.9,19.2-28.2,19.2-46.3C310.2,321.5,299.6,318.6,290.4,313.6z" id="XMLID_43_"/><path class="st1" d="M190.9,239.6c1.6-6.4,4.1-12.4,7.4-17.9c-5-9.3-7.9-19.9-7.9-31.1     c-18.1,0-34.5,7.3-46.3,19.2c0,16.8,6.4,33.5,19.2,46.3C171.3,248,180.8,242.6,190.9,239.6z" id="XMLID_42_"/><path class="st1" d="M221.6,198.4c5.5-3.3,11.5-5.8,17.9-7.4c3-10.1,8.5-19.6,16.4-27.6     c-12.8-12.8-29.6-19.2-46.3-19.2c-11.9,11.9-19.2,28.2-19.2,46.3C201.8,190.5,212.4,193.4,221.6,198.4z" id="XMLID_41_"/><path class="st1" d="M198.4,290.4c-3.3-5.5-5.8-11.5-7.4-17.9c-10.1-3-19.6-8.5-27.6-16.4     c-12.8,12.8-19.2,29.6-19.2,46.3c11.9,11.9,28.2,19.2,46.3,19.2C190.5,310.2,193.4,299.6,198.4,290.4z" id="XMLID_40_"/><path class="st1" d="M239.6,321.1c-6.4-1.6-12.4-4.1-17.9-7.4c-9.3,5-19.9,7.9-31.1,7.9     c0,18.1,7.3,34.5,19.2,46.3c16.8,0,33.5-6.4,46.3-19.2C248,340.7,242.6,331.2,239.6,321.1z" id="XMLID_39_"/><path class="st1" d="M313.6,221.6c3.3,5.5,5.8,11.5,7.4,17.9c10.1,3,19.6,8.5,27.6,16.4     c12.8-12.8,19.2-29.6,19.2-46.3c-11.9-11.9-28.2-19.2-46.3-19.2C321.5,201.8,318.6,212.4,313.6,221.6z" id="XMLID_38_"/><path class="st1" d="M272.4,190.9c6.4,1.6,12.4,4.1,17.9,7.4c9.3-5,19.9-7.9,31.1-7.9c0-18.1-7.3-34.5-19.2-46.3     c-16.8,0-33.5,6.4-46.3,19.2C264,171.3,269.4,180.8,272.4,190.9z" id="XMLID_37_"/><path class="st1" d="M236.6,200.2c0.3-0.1,0.6-0.2,0.9-0.3l0,0C237.2,200,236.9,200.1,236.6,200.2z" id="XMLID_36_"/><path class="st1" d="M237.5,312.1L237.5,312.1c-0.3-0.1-0.6-0.2-0.9-0.3C236.9,311.9,237.2,312,237.5,312.1z" id="XMLID_35_"/><path class="st1" d="M312.1,274.5L312.1,274.5c-0.1,0.3-0.2,0.6-0.3,0.9C311.9,275.1,312,274.8,312.1,274.5z" id="XMLID_34_"/><path class="st1" d="M203.3,282.6C203.3,282.6,203.3,282.6,203.3,282.6c-0.1-0.3-0.3-0.6-0.4-0.9     C203,282,203.2,282.3,203.3,282.6z" id="XMLID_33_"/><path class="st1" d="M230.3,309.1c-0.3-0.1-0.6-0.3-0.9-0.4l0,0C229.7,308.8,230,309,230.3,309.1z" id="XMLID_32_"/><path class="st1" d="M281.7,202.9c0.3,0.1,0.6,0.3,0.9,0.4l0,0C282.3,203.2,282,203,281.7,202.9z" id="XMLID_31_"/><path class="st1" d="M308.7,229.4L308.7,229.4c0.1,0.3,0.3,0.6,0.4,0.9C309,230,308.8,229.7,308.7,229.4z" id="XMLID_30_"/><path class="st1" d="M274.5,199.9C274.5,199.9,274.5,199.9,274.5,199.9c0.3,0.1,0.6,0.2,0.9,0.3     C275.1,200.1,274.8,200,274.5,199.9z" id="XMLID_29_"/><path class="st1" d="M312.1,237.5L312.1,237.5c-0.1-0.3-0.2-0.6-0.3-0.9C311.9,236.9,312,237.2,312.1,237.5z" id="XMLID_28_"/><path class="st1" d="M199.9,237.5C199.9,237.5,199.9,237.5,199.9,237.5c0.1-0.3,0.2-0.6,0.3-0.9     C200.1,236.9,200,237.2,199.9,237.5z" id="XMLID_27_"/><path class="st1" d="M202.9,230.3c0.1-0.3,0.3-0.6,0.4-0.9c0,0,0,0,0,0C203.2,229.7,203,230,202.9,230.3z" id="XMLID_26_"/><path class="st1" d="M275.4,311.8c-0.3,0.1-0.6,0.2-0.9,0.3c0,0,0,0,0,0C274.8,312,275.1,311.9,275.4,311.8z" id="XMLID_25_"/><path class="st1" d="M282.6,308.7L282.6,308.7c-0.3,0.1-0.6,0.3-0.9,0.4C282,309,282.3,308.8,282.6,308.7z" id="XMLID_24_"/><g><path class="st1" d="M275.2,209.7c0-3.3-0.2-6.5-0.7-9.8c-0.1,0-0.1,0-0.2-0.1c0.1,0,0.1,0,0.2,0.1      c-0.5-3-1.1-6-2-9c-5.3-1.3-10.8-2-16.4-2s-11.2,0.7-16.4,2c-0.9,3-1.6,6-2,9c0.1,0,0.1,0,0.2-0.1c-0.1,0-0.1,0-0.2,0.1      c-0.5,3.2-0.7,6.5-0.7,9.8c11.9,11.9,19.2,28.2,19.2,46.3C256,237.9,263.3,221.5,275.2,209.7z" id="XMLID_23_"/><path class="st1" d="M275.2,302.3c2.3,2.3,4.8,4.4,7.4,6.4c0.1,0,0.1-0.1,0.2-0.1c-0.1,0-0.1,0.1-0.2,0.1      c2.5,1.8,5.1,3.5,7.8,4.9c9.5-5.7,17.5-13.7,23.3-23.3c-1.5-2.7-3.1-5.3-4.9-7.8c0,0.1-0.1,0.1-0.1,0.2c0-0.1,0.1-0.1,0.1-0.2      c-1.9-2.6-4.1-5.1-6.4-7.4c-16.8,0-33.5-6.4-46.3-19.2C268.8,268.8,275.2,285.6,275.2,302.3z" id="XMLID_22_"/><path class="st1" d="M302.3,236.8c2.3-2.3,4.4-4.8,6.4-7.4c0-0.1-0.1-0.1-0.1-0.2c0,0.1,0.1,0.1,0.1,0.2      c1.8-2.5,3.5-5.1,4.9-7.8c-5.7-9.5-13.7-17.5-23.3-23.3c-2.7,1.5-5.3,3.1-7.8,4.9c0.1,0,0.1,0.1,0.2,0.1c-0.1,0-0.1-0.1-0.2-0.1      c-2.6,1.9-5.1,4.1-7.4,6.4c0,16.8-6.4,33.5-19.2,46.3C268.8,243.2,285.6,236.8,302.3,236.8z" id="XMLID_21_"/><path class="st1" d="M321.1,272.4c1.3-5.3,2-10.8,2-16.4s-0.7-11.2-2-16.4c-3-0.9-6-1.6-9-2c0,0.1,0,0.1,0.1,0.2      c0-0.1,0-0.1-0.1-0.2c-3.2-0.5-6.5-0.7-9.8-0.7C290.5,248.7,274.1,256,256,256c18.1,0,34.5,7.3,46.3,19.2c3.3,0,6.5-0.2,9.8-0.7      c0-0.1,0-0.1,0.1-0.2c0,0.1,0,0.1-0.1,0.2C315.1,274,318.1,273.3,321.1,272.4z" id="XMLID_20_"/><path class="st1" d="M209.7,236.8c-3.3,0-6.5,0.2-9.8,0.7c0,0.1,0,0.1-0.1,0.2c0-0.1,0-0.1,0.1-0.2      c-3,0.5-6,1.1-9,2c-1.3,5.3-2,10.8-2,16.4s0.7,11.2,2,16.4c3,0.9,6,1.6,9,2c0-0.1,0-0.1-0.1-0.2c0,0.1,0,0.1,0.1,0.2      c3.2,0.5,6.5,0.7,9.8,0.7c11.9-11.9,28.2-19.2,46.3-19.2C237.9,256,221.5,248.7,209.7,236.8z" id="XMLID_19_"/><path class="st1" d="M209.7,275.2c-2.3,2.3-4.4,4.8-6.4,7.4c0,0.1,0.1,0.1,0.1,0.2c0-0.1-0.1-0.1-0.1-0.2      c-1.8,2.5-3.5,5.1-4.9,7.8c5.7,9.5,13.7,17.5,23.3,23.3c2.7-1.5,5.3-3.1,7.8-4.9c-0.1,0-0.1-0.1-0.2-0.1c0.1,0,0.1,0.1,0.2,0.1      c2.6-1.9,5.1-4.1,7.4-6.4c0-16.8,6.4-33.5,19.2-46.3C243.2,268.8,226.4,275.2,209.7,275.2z" id="XMLID_18_"/><path class="st1" d="M236.8,302.3c0,3.3,0.2,6.5,0.7,9.8c0.1,0,0.1,0,0.2,0.1c-0.1,0-0.1,0-0.2-0.1      c0.5,3,1.1,6,2,9c5.3,1.3,10.8,2,16.4,2c5.7,0,11.2-0.7,16.4-2c0.9-3,1.6-6,2-9c-0.1,0-0.1,0-0.2,0.1c0.1,0,0.1,0,0.2-0.1      c0.5-3.2,0.7-6.5,0.7-9.8C263.3,290.5,256,274.1,256,256C256,274.1,248.7,290.5,236.8,302.3z" id="XMLID_17_"/><path class="st1" d="M236.8,209.7c-2.3-2.3-4.8-4.4-7.4-6.4c-0.1,0-0.1,0.1-0.2,0.1c0.1,0,0.1-0.1,0.2-0.1      c-2.5-1.8-5.1-3.5-7.8-4.9c-9.5,5.7-17.5,13.7-23.3,23.3c1.5,2.7,3.1,5.3,4.9,7.8c0-0.1,0.1-0.1,0.1-0.2c0,0.1-0.1,0.1-0.1,0.2      c1.9,2.6,4.1,5.1,6.4,7.4c16.8,0,33.5,6.4,46.3,19.2C243.2,243.2,236.8,226.4,236.8,209.7z" id="XMLID_16_"/></g><path class="st1" d="M200.2,275.4c-0.1-0.3-0.2-0.6-0.3-0.9c0,0,0,0,0,0C200,274.8,200.1,275.1,200.2,275.4z" id="XMLID_15_"/><path class="st1" d="M229.4,203.3L229.4,203.3c0.3-0.1,0.6-0.3,0.9-0.4C230,203,229.7,203.2,229.4,203.3z" id="XMLID_14_"/><path class="st1" d="M309.1,281.7c-0.1,0.3-0.3,0.6-0.4,0.9l0,0C308.8,282.3,309,282,309.1,281.7z" id="XMLID_13_"/></g><g><path class="st1" d="M256.8,150.3h-3.4v-14.1h-3.5v-2.6l6.9-0.6V150.3z"/><path class="st1" d="M341.5,184.2h-11.4V182l5.3-6c0.8-0.9,1.3-1.7,1.7-2.4c0.3-0.6,0.5-1.2,0.5-1.8c0-0.7-0.2-1.3-0.5-1.7     c-0.4-0.4-0.9-0.6-1.6-0.6c-0.7,0-1.3,0.3-1.7,0.8c-0.4,0.5-0.6,1.2-0.6,2.1h-3.3l0-0.1c0-1.5,0.5-2.8,1.5-3.8     c1-1.1,2.4-1.6,4.2-1.6c1.8,0,3.1,0.4,4.1,1.3c1,0.9,1.5,2.1,1.5,3.6c0,1-0.3,2-0.8,2.8c-0.5,0.8-1.5,2-2.8,3.5l-2.8,3.4l0,0.1h7     V184.2z"/><path class="st1" d="M367.9,256.1c0.8,0,1.4-0.2,1.8-0.6c0.4-0.4,0.6-1,0.6-1.8c0-0.6-0.2-1.2-0.6-1.6c-0.4-0.4-1-0.6-1.7-0.6     c-0.6,0-1.2,0.2-1.6,0.6c-0.4,0.4-0.6,0.9-0.6,1.5h-3.3l0-0.1c0-1.3,0.5-2.4,1.5-3.3c1.1-0.9,2.4-1.3,4-1.3     c1.8,0,3.2,0.4,4.2,1.2c1,0.8,1.6,2,1.6,3.6c0,0.8-0.2,1.5-0.7,2.2c-0.4,0.7-1.1,1.2-1.8,1.5c0.9,0.3,1.6,0.8,2.1,1.5     c0.5,0.7,0.7,1.5,0.7,2.5c0,1.6-0.6,2.8-1.7,3.7c-1.1,0.9-2.6,1.3-4.3,1.3c-1.6,0-2.9-0.4-4.1-1.3c-1.2-0.8-1.7-2-1.7-3.6l0-0.1     h3.3c0,0.6,0.2,1.2,0.7,1.6c0.4,0.4,1,0.7,1.7,0.7c0.8,0,1.4-0.2,1.9-0.7c0.5-0.5,0.7-1,0.7-1.7c0-0.9-0.2-1.6-0.7-2     c-0.5-0.4-1.1-0.7-2-0.7H366v-2.6H367.9z"/><path class="st1" d="M342.4,337.7h1.9v2.6h-1.9v3.7H339v-3.7H332l-0.2-2.1l7.1-11.3h3.5V337.7z M335,337.7h4v-6.2l-0.1,0     l-0.4,0.8L335,337.7z"/><path class="st1" d="M250.6,371.2l1-9.5h9.5v2.7h-6.7l-0.5,4c0.3-0.2,0.7-0.4,1.2-0.6c0.5-0.2,1-0.2,1.6-0.3     c1.6,0,2.8,0.5,3.7,1.5c0.9,1,1.3,2.4,1.3,4.2c0,1.7-0.5,3-1.4,4.1c-0.9,1.1-2.4,1.6-4.3,1.6c-1.6,0-2.9-0.4-4-1.2     s-1.7-2-1.6-3.4l0-0.1l3.3-0.2c0,0.7,0.2,1.3,0.6,1.7c0.4,0.4,1,0.6,1.7,0.6c0.8,0,1.4-0.3,1.8-0.8c0.4-0.5,0.6-1.3,0.6-2.3     c0-1-0.2-1.8-0.6-2.3c-0.4-0.6-1-0.9-1.8-0.9c-0.7,0-1.2,0.1-1.5,0.4c-0.3,0.2-0.6,0.6-0.7,1L250.6,371.2z"/><path class="st1" d="M181.7,332.2c0.7,0,1.3,0.1,1.8,0.2c0.6,0.1,1.1,0.3,1.7,0.5l-0.6,2.5c-0.5-0.2-1-0.3-1.4-0.4     c-0.4-0.1-0.9-0.1-1.5-0.1c-1,0-1.8,0.4-2.4,1.1c-0.6,0.8-0.9,1.8-0.9,3.2v0.6c0.5-0.4,1-0.8,1.6-1c0.6-0.2,1.3-0.4,2.1-0.4     c1.5,0,2.6,0.5,3.4,1.6c0.8,1,1.2,2.4,1.2,4c0,1.7-0.5,3.1-1.6,4.2s-2.4,1.6-4.2,1.6c-1.8,0-3.2-0.6-4.4-1.8     c-1.1-1.2-1.7-2.9-1.7-5v-3.6c0-2.2,0.6-3.9,1.9-5.2C178.2,332.8,179.8,332.2,181.7,332.2z M181,340.9c-0.6,0-1.1,0.1-1.6,0.3     s-0.8,0.5-1,0.8v0.9c0,1.3,0.2,2.3,0.7,3c0.5,0.7,1.1,1.1,1.9,1.1c0.7,0,1.3-0.3,1.7-0.9c0.4-0.6,0.6-1.3,0.6-2.3     c0-0.9-0.2-1.7-0.6-2.2C182.3,341.2,181.7,340.9,181,340.9z"/><path class="st1" d="M150,254.3c-1.9,2.3-3.2,4.3-3.9,6.1c-0.7,1.8-1,3.9-1,6.2v2.1h-3.4v-2.1c0-2.4,0.4-4.5,1.3-6.5     c0.9-2,2.1-3.9,3.8-5.8H138v-2.6h12V254.3z"/><path class="st1" d="M179.2,176c0,0.8-0.2,1.6-0.7,2.2c-0.4,0.7-1,1.2-1.8,1.5c0.9,0.4,1.7,0.9,2.2,1.6c0.5,0.7,0.8,1.5,0.8,2.5     c0,1.6-0.5,2.8-1.6,3.7c-1.1,0.9-2.5,1.3-4.2,1.3c-1.8,0-3.3-0.4-4.4-1.3c-1.1-0.9-1.7-2.1-1.7-3.7c0-0.9,0.3-1.7,0.8-2.5     c0.6-0.7,1.3-1.3,2.3-1.6c-0.8-0.4-1.4-0.9-1.9-1.5c-0.5-0.7-0.7-1.4-0.7-2.2c0-1.5,0.5-2.7,1.5-3.5c1-0.8,2.4-1.2,4-1.2     c1.6,0,2.8,0.4,3.8,1.2C178.7,173.3,179.2,174.5,179.2,176z M176.4,183.7c0-0.8-0.2-1.4-0.7-1.9c-0.5-0.5-1.1-0.7-1.8-0.7     c-0.8,0-1.4,0.2-1.9,0.7c-0.5,0.5-0.8,1.1-0.8,1.9c0,0.8,0.3,1.4,0.8,1.9c0.5,0.5,1.2,0.7,1.9,0.7c0.7,0,1.3-0.2,1.7-0.7     C176.1,185.1,176.4,184.4,176.4,183.7z M175.8,176.1c0-0.7-0.2-1.2-0.5-1.6c-0.4-0.4-0.8-0.6-1.4-0.6c-0.6,0-1.2,0.2-1.5,0.6     c-0.4,0.4-0.6,0.9-0.6,1.6c0,0.7,0.2,1.3,0.6,1.7c0.4,0.4,0.9,0.6,1.5,0.6c0.6,0,1-0.2,1.4-0.6     C175.6,177.4,175.8,176.8,175.8,176.1z"/></g></g></g></svg>