<?xml version="1.0" ?><svg id="Layer_1" style="enable-background:new 0 0 512 512;" version="1.1" viewBox="0 0 512 512" xml:space="preserve" xmlns="http://www.w3.org/2000/svg" xmlns:xlink="http://www.w3.org/1999/xlink"><style type="text/css">
	.st0{fill:#54A27C;}
	.st1{fill:#FFFFFF;}
</style><g><circle class="st0" cx="256" cy="256" id="XMLID_22_" r="256"/><g><g><path class="st1" d="M392.6,199.4c0,20.5-7.8,40.9-23.4,56.6c15.6,15.6,23.4,36.1,23.4,56.6     C407,298.1,416,278.1,416,256C416,233.9,407,213.9,392.6,199.4z" id="XMLID_21_"/><path class="st1" d="M119.4,199.4C105,213.9,96,233.9,96,256c0,22.1,9,42.1,23.4,56.6c0-20.5,7.8-40.9,23.4-56.6     C127.2,240.4,119.4,219.9,119.4,199.4z" id="XMLID_20_"/><path class="st1" d="M256,369.1c-15.6,15.6-36.1,23.4-56.6,23.4C213.9,407,233.9,416,256,416s42.1-9,56.6-23.4     C292.1,392.6,271.6,384.8,256,369.1z" id="XMLID_19_"/><path class="st1" d="M312.6,119.4C298.1,105,278.1,96,256,96s-42.1,9-56.6,23.4c20.5,0,40.9,7.8,56.6,23.4     C271.6,127.2,292.1,119.4,312.6,119.4z" id="XMLID_18_"/><path class="st1" d="M312.6,392.6c20.5,0,40.9-7.8,56.6-23.4c15.6-15.6,23.4-36.1,23.4-56.6     C378.1,327,358.1,336,336,336C336,358.1,327,378.1,312.6,392.6z" id="XMLID_17_"/><path class="st1" d="M199.4,119.4c-20.5,0-40.9,7.8-56.6,23.4c-15.6,15.6-23.4,36.1-23.4,56.6     C133.9,185,153.9,176,176,176C176,153.9,185,133.9,199.4,119.4z" id="XMLID_16_"/><path class="st1" d="M119.4,312.6c0,20.5,7.8,40.9,23.4,56.6c15.6,15.6,36.1,23.4,56.6,23.4     C185,378.1,176,358.1,176,336C153.9,336,133.9,327,119.4,312.6z" id="XMLID_15_"/><path class="st1" d="M392.6,199.4c0-20.5-7.8-40.9-23.4-56.6c-15.6-15.6-36.1-23.4-56.6-23.4     C327,133.9,336,153.9,336,176C358.1,176,378.1,185,392.6,199.4z" id="XMLID_14_"/></g><g><path class="st1" d="M183.3,189.6c-0.7,0-1.2,0.2-1.7,0.6c-0.5,0.4-0.7,1-0.7,1.7c0,0.7,0.2,1.2,0.7,1.6     c0.4,0.4,1,0.6,1.7,0.6c0.6,0,1.1-0.2,1.5-0.6c0.4-0.4,0.6-1,0.6-1.6c0-0.7-0.2-1.2-0.6-1.7C184.4,189.8,183.9,189.6,183.3,189.6     z" id="XMLID_13_"/><path class="st1" d="M183.3,187.3c0.5,0,0.9-0.2,1.2-0.6c0.3-0.4,0.5-0.9,0.5-1.5c0-0.6-0.2-1.1-0.5-1.4     c-0.3-0.3-0.7-0.5-1.2-0.5c-0.6,0-1,0.2-1.4,0.5c-0.3,0.3-0.5,0.8-0.5,1.4c0,0.6,0.2,1.1,0.5,1.5     C182.3,187.1,182.7,187.3,183.3,187.3z" id="XMLID_12_"/><polygon class="st1" id="XMLID_11_" points="329.1,323.5 326,328.4 329.5,328.4 329.5,322.9 329.5,322.9    "/><path class="st1" d="M189.5,331.3c-0.5,0-1,0.1-1.4,0.3c-0.4,0.2-0.7,0.4-0.9,0.7v0.8c0,1.2,0.2,2.1,0.6,2.7     c0.4,0.6,1,1,1.7,1c0.6,0,1.1-0.3,1.5-0.8c0.4-0.5,0.6-1.2,0.6-2c0-0.8-0.2-1.5-0.6-2C190.7,331.5,190.2,331.3,189.5,331.3z" id="XMLID_10_"/><path class="st1" d="M256,143.5c-62.2,0-112.5,50.4-112.5,112.5S193.8,368.5,256,368.5S368.5,318.2,368.5,256     S318.2,143.5,256,143.5z M162.1,254.5c-1.7,2-2.9,3.8-3.5,5.4c-0.6,1.6-0.9,3.4-0.9,5.5v1.9h-3v-1.9c0-2.1,0.4-4,1.2-5.8     c0.8-1.7,1.9-3.5,3.4-5.2h-7.7v-2.3h10.6V254.5z M179.4,195.3c-1-0.8-1.5-1.9-1.5-3.3c0-0.8,0.3-1.5,0.8-2.2     c0.5-0.6,1.2-1.1,2-1.5c-0.7-0.3-1.3-0.8-1.7-1.4c-0.4-0.6-0.6-1.2-0.6-2c0-1.3,0.5-2.4,1.4-3.1c0.9-0.7,2.1-1.1,3.5-1.1     c1.4,0,2.5,0.4,3.4,1.1c0.9,0.7,1.3,1.7,1.3,3.1c0,0.7-0.2,1.4-0.6,2c-0.4,0.6-0.9,1-1.6,1.4c0.8,0.3,1.5,0.8,2,1.5     c0.5,0.6,0.7,1.4,0.7,2.2c0,1.4-0.5,2.5-1.5,3.3c-1,0.8-2.2,1.2-3.7,1.2C181.7,196.5,180.4,196.1,179.4,195.3z M193.3,337.6     c-0.9,0.9-2.2,1.4-3.7,1.4c-1.6,0-2.9-0.5-3.9-1.6c-1-1.1-1.5-2.6-1.5-4.4v-3.2c0-1.9,0.6-3.5,1.7-4.6c1.1-1.2,2.5-1.7,4.3-1.7     c0.6,0,1.1,0.1,1.6,0.2c0.5,0.1,1,0.3,1.5,0.5l-0.5,2.2c-0.5-0.2-0.9-0.3-1.3-0.4c-0.4-0.1-0.8-0.1-1.3-0.1c-0.9,0-1.6,0.3-2.1,1     c-0.5,0.7-0.8,1.6-0.8,2.8v0.5c0.4-0.4,0.9-0.7,1.4-0.9c0.6-0.2,1.2-0.3,1.9-0.3c1.3,0,2.3,0.5,3,1.4c0.7,0.9,1.1,2.1,1.1,3.6     C194.7,335.5,194.2,336.7,193.3,337.6z M250.5,147.6l6.1-0.5v15.3h-3v-12.5h-3.1V147.6z M259.8,363.5c-0.8,0.9-2.1,1.4-3.8,1.4     c-1.4,0-2.6-0.4-3.6-1.1c-1-0.7-1.5-1.7-1.4-3l0-0.1l2.9-0.1c0,0.6,0.2,1.1,0.6,1.5c0.4,0.4,0.9,0.5,1.5,0.5     c0.7,0,1.2-0.2,1.6-0.7c0.3-0.5,0.5-1.1,0.5-2s-0.2-1.6-0.5-2.1c-0.4-0.5-0.9-0.8-1.6-0.8c-0.6,0-1,0.1-1.3,0.3     c-0.3,0.2-0.5,0.5-0.7,0.9l-2.7-0.2l0.9-8.5h8.4v2.4h-5.9l-0.4,3.5c0.3-0.2,0.6-0.4,1.1-0.5c0.4-0.1,0.9-0.2,1.4-0.2     c1.4,0,2.5,0.4,3.3,1.3c0.8,0.9,1.2,2.1,1.2,3.7C261.1,361.4,260.6,362.6,259.8,363.5z M327.8,180c-0.3-0.4-0.8-0.6-1.4-0.6     c-0.7,0-1.2,0.2-1.5,0.7c-0.4,0.5-0.5,1.1-0.5,1.8h-2.9l0-0.1c0-1.3,0.4-2.5,1.3-3.4c0.9-0.9,2.2-1.4,3.7-1.4     c1.6,0,2.8,0.4,3.6,1.2c0.9,0.8,1.3,1.9,1.3,3.2c0,0.9-0.2,1.7-0.7,2.5c-0.5,0.7-1.3,1.8-2.5,3.1l-2.5,3l0,0.1h6.2v2.3h-10.1v-2     l4.7-5.3c0.7-0.8,1.2-1.5,1.5-2.1c0.3-0.6,0.4-1.1,0.4-1.6C328.3,180.8,328.1,180.3,327.8,180z M334.3,330.7h-1.7v3.3h-3v-3.3     h-6.2l-0.1-1.8l6.3-10h3.1v9.5h1.7V330.7z M359.1,264c-1,0.8-2.3,1.2-3.8,1.2c-1.4,0-2.6-0.4-3.6-1.1s-1.5-1.8-1.5-3.1l0-0.1h2.9     c0,0.6,0.2,1,0.6,1.4c0.4,0.4,0.9,0.6,1.5,0.6c0.7,0,1.3-0.2,1.7-0.6c0.4-0.4,0.6-0.9,0.6-1.5c0-0.8-0.2-1.4-0.6-1.8     c-0.4-0.4-1-0.6-1.8-0.6h-1.7v-2.3h1.7c0.7,0,1.3-0.2,1.6-0.6c0.3-0.4,0.5-0.9,0.5-1.6c0-0.6-0.2-1-0.6-1.4     c-0.4-0.4-0.9-0.6-1.5-0.6c-0.6,0-1,0.2-1.4,0.5c-0.4,0.3-0.6,0.8-0.6,1.3h-2.9l0-0.1c0-1.2,0.4-2.2,1.4-2.9     c1-0.8,2.1-1.2,3.5-1.2c1.6,0,2.8,0.4,3.7,1.1c0.9,0.7,1.4,1.8,1.4,3.2c0,0.7-0.2,1.3-0.6,1.9c-0.4,0.6-0.9,1-1.6,1.4     c0.8,0.3,1.4,0.7,1.8,1.4c0.4,0.6,0.6,1.3,0.6,2.2C360.6,262.1,360.1,263.2,359.1,264z"/></g></g></g></svg>