<?xml version="1.0" ?><svg id="Layer_1" style="enable-background:new 0 0 512 512;" version="1.1" viewBox="0 0 512 512" xml:space="preserve" xmlns="http://www.w3.org/2000/svg" xmlns:xlink="http://www.w3.org/1999/xlink"><style type="text/css">
	.st0{fill:#FCAA3E;}
	.st1{fill:#FFFFFF;}
</style><g><circle class="st0" cx="256" cy="256" id="XMLID_21_" r="256"/><g><g><path class="st1" d="M336,176c43.5,0,78.9,34.7,80,77.9C414.9,167.2,344.8,97.1,258.1,96     C301.3,97.1,336,132.5,336,176z" id="XMLID_20_"/><path class="st1" d="M176,176c0-43.5,34.7-78.9,77.9-80C167.2,97.1,97.1,167.2,96,253.9     C97.1,210.7,132.5,176,176,176z" id="XMLID_19_"/><path class="st1" d="M416,258.1c-1.1,43.2-36.5,77.9-80,77.9c0,43.5-34.7,78.9-77.9,80     C344.8,414.9,414.9,344.8,416,258.1z" id="XMLID_18_"/><path class="st1" d="M176,336c-43.5,0-78.9-34.7-80-77.9c1.1,86.7,71.2,156.8,157.9,157.9     C210.7,414.9,176,379.5,176,336z" id="XMLID_17_"/><path class="st1" d="M416,253.9c0,0.7,0,1.4,0,2.1C416,255.3,416,254.6,416,253.9z" id="XMLID_16_"/><path class="st1" d="M416,256c0,0.7,0,1.4,0,2.1C416,257.4,416,256.7,416,256z" id="XMLID_15_"/><path class="st1" d="M96,256c0-0.7,0-1.4,0-2.1C96,254.6,96,255.3,96,256z" id="XMLID_14_"/><path class="st1" d="M96,258.1c0-0.7,0-1.4,0-2.1C96,256.7,96,257.4,96,258.1z" id="XMLID_13_"/><path class="st1" d="M256,416c-0.7,0-1.4,0-2.1,0C254.6,416,255.3,416,256,416z" id="XMLID_12_"/><path class="st1" d="M258.1,416c-0.7,0-1.4,0-2.1,0C256.7,416,257.4,416,258.1,416z" id="XMLID_11_"/><path class="st1" d="M288.5,320.4c13.3,9.8,29.7,15.6,47.5,15.6c0-17.8-5.8-34.2-15.6-47.5     C313.4,302.2,302.2,313.4,288.5,320.4z" id="XMLID_10_"/><path class="st1" d="M191.6,288.5c-9.8,13.3-15.6,29.7-15.6,47.5c17.8,0,34.2-5.8,47.5-15.6     C209.8,313.4,198.6,302.2,191.6,288.5z" id="XMLID_9_"/><path class="st1" d="M256,96c0.7,0,1.4,0,2.1,0C257.4,96,256.7,96,256,96z" id="XMLID_8_"/><path class="st1" d="M253.9,96c0.7,0,1.4,0,2.1,0C255.3,96,254.6,96,253.9,96z" id="XMLID_7_"/><path class="st1" d="M320.4,223.5c9.8-13.3,15.6-29.7,15.6-47.5c-17.8,0-34.2,5.8-47.5,15.6     C302.2,198.6,313.4,209.8,320.4,223.5z" id="XMLID_6_"/><path class="st1" d="M223.5,191.6c-13.3-9.8-29.7-15.6-47.5-15.6c0,17.8,5.8,34.2,15.6,47.5     C198.6,209.8,209.8,198.6,223.5,191.6z" id="XMLID_5_"/><path class="st1" d="M256,256c26.4,0,49.8,12.8,64.4,32.5c4.9-9.8,7.7-20.8,7.7-32.5c0-11.7-2.8-22.7-7.7-32.5     C305.8,243.2,282.4,256,256,256z" id="XMLID_4_"/><path class="st1" d="M256,256c-26.4,0-49.8-12.8-64.4-32.5c-4.9,9.8-7.7,20.8-7.7,32.5c0,11.7,2.8,22.7,7.7,32.5     C206.2,268.8,229.6,256,256,256z" id="XMLID_3_"/><path class="st1" d="M256,256c0,26.4-12.8,49.8-32.5,64.4c9.8,4.9,20.8,7.7,32.5,7.7c11.7,0,22.7-2.8,32.5-7.7     C268.8,305.8,256,282.4,256,256z" id="XMLID_2_"/><path class="st1" d="M256,256c0-26.4,12.8-49.8,32.5-64.4c-9.8-4.9-20.8-7.7-32.5-7.7c-11.7,0-22.7,2.8-32.5,7.7     C243.2,206.2,256,229.6,256,256z" id="XMLID_1_"/></g><g><path class="st1" d="M268.7,163.5h-12.1l-2.9,8.3h-4.4l11.6-32.2h3.7l11.4,32.2h-4.4L268.7,163.5z M257.9,159.9     h9.6l-4.7-13.8h-0.1L257.9,159.9z" id="XMLID_1906_"/><path class="st1" d="M340.5,270v-32.2H351c3.4,0,6,0.7,7.9,2.2c1.9,1.5,2.9,3.6,2.9,6.5c0,1.4-0.4,2.6-1.3,3.7     c-0.9,1.1-2,1.9-3.4,2.5c2.1,0.3,3.8,1.2,5,2.7c1.2,1.5,1.8,3.3,1.8,5.4c0,2.9-1,5.2-2.9,6.8c-1.9,1.6-4.5,2.3-7.8,2.3H340.5z      M344.9,251.5h7c1.6,0,2.9-0.4,4-1.3c1-0.9,1.5-2.1,1.5-3.7c0-1.7-0.5-3-1.6-3.9c-1.1-0.9-2.7-1.3-4.7-1.3h-6.1V251.5z      M344.9,254.9v11.7h8.4c2,0,3.5-0.5,4.6-1.5c1.1-1,1.6-2.4,1.6-4.2c0-1.8-0.6-3.2-1.7-4.3c-1.1-1.1-2.6-1.7-4.5-1.7h-0.3H344.9z" id="XMLID_1899_"/><path class="st1" d="M274.4,361.9l0,0.1c0.1,2.9-1,5.4-3.1,7.4c-2.1,2-4.9,3-8.4,3c-3.5,0-6.4-1.3-8.6-3.8     c-2.2-2.5-3.3-5.7-3.3-9.5v-5.6c0-3.9,1.1-7,3.3-9.5c2.2-2.5,5.1-3.8,8.6-3.8c3.5,0,6.4,0.9,8.4,2.8c2.1,1.9,3.1,4.4,3,7.5l0,0.1     h-4.1c0-2.2-0.6-3.9-1.9-5.2c-1.3-1.3-3.1-1.9-5.5-1.9c-2.4,0-4.2,1-5.6,2.9c-1.4,1.9-2.1,4.3-2.1,7.1v5.6c0,2.8,0.7,5.2,2.1,7.1     c1.4,1.9,3.3,2.9,5.6,2.9c2.3,0,4.2-0.6,5.5-1.9c1.3-1.3,1.9-3,1.9-5.3H274.4z" id="XMLID_1897_"/><path class="st1" d="M148.1,269.8v-32.2h10.1c4.2,0,7.6,1.3,10.1,3.9c2.6,2.6,3.8,5.9,3.8,10v4.4     c0,4.1-1.3,7.5-3.8,10c-2.6,2.6-5.9,3.9-10.1,3.9H148.1z M152.4,241.1v25.3h5.8c3,0,5.3-1,7-2.9c1.7-2,2.6-4.5,2.6-7.5v-4.4     c0-3-0.9-5.5-2.6-7.5c-1.7-2-4.1-2.9-7-2.9H152.4z" id="XMLID_1894_"/></g></g></g></svg>