<?xml version="1.0" ?><svg id="Layer_1" style="enable-background:new 0 0 512 512;" version="1.1" viewBox="0 0 512 512" xml:space="preserve" xmlns="http://www.w3.org/2000/svg" xmlns:xlink="http://www.w3.org/1999/xlink"><style type="text/css">
	.st0{fill:#51647F;}
	.st1{fill:#FFFFFF;}
</style><g><circle class="st0" cx="256" cy="256" id="XMLID_33_" r="256"/><g><g><path class="st1" d="M256,96c-88.4,0-160,71.6-160,160s71.6,160,160,160c88.4,0,160-71.6,160-160S344.4,96,256,96z M354.9,354.9     c-13.7,13.7-31.6,20.5-49.5,20.5c-12.7,12.7-30.1,20.5-49.5,20.5s-36.8-7.8-49.5-20.5c-17.9,0-35.8-6.8-49.5-20.5     c-13.7-13.7-20.5-31.6-20.5-49.5c-12.7-12.7-20.5-30.1-20.5-49.5s7.8-36.8,20.5-49.5c0-17.9,6.8-35.8,20.5-49.5     c13.7-13.7,31.6-20.5,49.5-20.5c12.7-12.7,30.1-20.5,49.5-20.5s36.8,7.8,49.5,20.5c17.9,0,35.8,6.8,49.5,20.5     c13.7,13.7,20.5,31.6,20.5,49.5c12.7,12.7,20.5,30.1,20.5,49.5s-7.8,36.8-20.5,49.5C375.4,323.4,368.6,341.3,354.9,354.9z"/><path class="st1" d="M256,409.6c-41,0-79.6-16-108.6-45c-29-29-45-67.6-45-108.6s16-79.6,45-108.6c29-29,67.6-45,108.6-45     s79.6,16,108.6,45c29,29,45,67.6,45,108.6s-16,79.6-45,108.6C335.6,393.6,297,409.6,256,409.6z M203.9,381.8     c14.2,13.3,32.6,20.5,52.1,20.5c19.5,0,37.9-7.3,52.1-20.5c19.4-0.7,37.6-8.5,51.4-22.3c13.8-13.8,21.7-31.9,22.3-51.4     c13.3-14.2,20.5-32.6,20.5-52.1s-7.3-37.9-20.5-52.1c-0.7-19.4-8.5-37.6-22.3-51.4c-13.8-13.8-31.9-21.7-51.4-22.3     c-14.2-13.3-32.6-20.5-52.1-20.5c-19.5,0-37.9,7.3-52.1,20.5c-19.4,0.7-37.6,8.5-51.4,22.3c-13.8,13.8-21.7,31.9-22.3,51.4     c-13.3,14.2-20.5,32.6-20.5,52.1c0,19.5,7.3,37.9,20.5,52.1c0.7,19.4,8.5,37.6,22.3,51.4C166.4,373.2,184.5,381.1,203.9,381.8z"/><path class="st1" d="M354.9,256c-13.7,13.7-31.6,20.5-49.5,20.5c12.7,12.7,20.5,30.1,20.5,49.5     c19.3,0,36.8-7.8,49.5-20.5C375.4,287.6,368.6,269.7,354.9,256z" id="XMLID_28_"/><path class="st1" d="M276.5,305.5c0,17.9-6.8,35.8-20.5,49.5c13.7,13.7,31.6,20.5,49.5,20.5     c12.7-12.7,20.5-30.1,20.5-49.5C306.6,325.9,289.1,318.1,276.5,305.5z" id="XMLID_27_"/><path class="st1" d="M157.1,256c13.7-13.7,31.6-20.5,49.5-20.5c-12.7-12.7-20.5-30.1-20.5-49.5     c-19.3,0-36.8,7.8-49.5,20.5C136.6,224.4,143.4,242.3,157.1,256z" id="XMLID_26_"/><path class="st1" d="M235.5,206.5c0-17.9,6.8-35.8,20.5-49.5c-13.7-13.7-31.6-20.5-49.5-20.5     c-12.7,12.7-20.5,30.1-20.5,49.5C205.4,186.1,222.9,193.9,235.5,206.5z" id="XMLID_25_"/><path class="st1" d="M206.5,276.5c-17.9,0-35.8-6.8-49.5-20.5c-13.7,13.7-20.5,31.6-20.5,49.5     c12.7,12.7,30.1,20.5,49.5,20.5C186.1,306.6,193.9,289.1,206.5,276.5z" id="XMLID_24_"/><path class="st1" d="M256,354.9c-13.7-13.7-20.5-31.6-20.5-49.5c-12.7,12.7-30.1,20.5-49.5,20.5     c0,19.3,7.8,36.8,20.5,49.5C224.4,375.4,242.3,368.6,256,354.9z" id="XMLID_23_"/><path class="st1" d="M256,256c0,19.3,7.8,36.8,20.5,49.5C276.5,287.6,269.7,269.7,256,256z" id="XMLID_22_"/><path class="st1" d="M235.5,305.5c12.7-12.7,20.5-30.1,20.5-49.5C242.3,269.7,235.5,287.6,235.5,305.5z" id="XMLID_21_"/><path class="st1" d="M206.5,276.5c17.9,0,35.8-6.8,49.5-20.5C236.7,256,219.2,263.8,206.5,276.5z" id="XMLID_20_"/><path class="st1" d="M256,256c-13.7-13.7-31.6-20.5-49.5-20.5C219.2,248.2,236.7,256,256,256z" id="XMLID_19_"/><path class="st1" d="M305.5,235.5c17.9,0,35.8,6.8,49.5,20.5c13.7-13.7,20.5-31.6,20.5-49.5     c-12.7-12.7-30.1-20.5-49.5-20.5C325.9,205.4,318.1,222.9,305.5,235.5z" id="XMLID_18_"/><path class="st1" d="M276.5,206.5c12.7-12.7,30.1-20.5,49.5-20.5c0-19.3-7.8-36.8-20.5-49.5     c-17.9,0-35.8,6.8-49.5,20.5C269.7,170.7,276.5,188.6,276.5,206.5z" id="XMLID_17_"/><path class="st1" d="M305.5,276.5C292.8,263.8,275.3,256,256,256C269.7,269.7,287.6,276.5,305.5,276.5z" id="XMLID_16_"/><path class="st1" d="M256,256c19.3,0,36.8-7.8,49.5-20.5C287.6,235.5,269.7,242.3,256,256z" id="XMLID_15_"/><path class="st1" d="M256,256c13.7-13.7,20.5-31.6,20.5-49.5C263.8,219.2,256,236.7,256,256z" id="XMLID_14_"/><path class="st1" d="M235.5,206.5c0,17.9,6.8,35.8,20.5,49.5C256,236.7,248.2,219.2,235.5,206.5z" id="XMLID_13_"/></g><g><path class="st1" d="M256.8,140.4h-3.7V125h-3.9v-2.9l7.6-0.7V140.4z"/><path class="st1" d="M349.6,177.5h-12.5V175l5.8-6.5c0.9-1,1.5-1.9,1.8-2.6c0.4-0.7,0.5-1.4,0.5-1.9c0-0.8-0.2-1.4-0.6-1.8     c-0.4-0.5-1-0.7-1.7-0.7c-0.8,0-1.4,0.3-1.9,0.9s-0.7,1.3-0.7,2.2h-3.6l0-0.1c0-1.7,0.5-3.1,1.6-4.2c1.1-1.1,2.7-1.7,4.6-1.7     c1.9,0,3.4,0.5,4.5,1.5c1.1,1,1.6,2.3,1.6,3.9c0,1.1-0.3,2.1-0.9,3.1c-0.6,0.9-1.6,2.2-3.1,3.8l-3.1,3.7l0,0.1h7.6V177.5z"/><path class="st1" d="M378.5,256.1c0.9,0,1.5-0.2,2-0.7c0.4-0.5,0.6-1.1,0.6-1.9c0-0.7-0.2-1.3-0.7-1.7c-0.5-0.5-1.1-0.7-1.9-0.7     c-0.7,0-1.3,0.2-1.7,0.6c-0.5,0.4-0.7,1-0.7,1.6h-3.6l0-0.1c-0.1-1.5,0.5-2.7,1.7-3.6c1.2-0.9,2.6-1.4,4.4-1.4     c1.9,0,3.5,0.5,4.6,1.4c1.1,0.9,1.7,2.2,1.7,3.9c0,0.9-0.2,1.6-0.7,2.4c-0.5,0.7-1.2,1.3-2,1.7c1,0.4,1.7,0.9,2.3,1.7     c0.5,0.7,0.8,1.7,0.8,2.7c0,1.7-0.6,3.1-1.9,4c-1.2,1-2.8,1.5-4.8,1.5c-1.7,0-3.2-0.5-4.5-1.4c-1.3-0.9-1.9-2.2-1.8-3.9l0-0.1     h3.6c0,0.7,0.2,1.3,0.7,1.8c0.5,0.5,1.1,0.7,1.9,0.7c0.9,0,1.5-0.3,2.1-0.8c0.5-0.5,0.8-1.1,0.8-1.9c0-1-0.2-1.7-0.7-2.2     c-0.5-0.5-1.2-0.7-2.2-0.7h-2.1v-2.8H378.5z"/><path class="st1" d="M350.5,345.4h2.1v2.9h-2.1v4.1h-3.7v-4.1h-7.6L339,346l7.7-12.4h3.8V345.4z M342.4,345.4h4.4v-6.8l-0.1,0     l-0.4,0.8L342.4,345.4z"/><path class="st1" d="M250.1,382l1.1-10.4h10.4v3h-7.3l-0.5,4.4c0.4-0.3,0.8-0.5,1.3-0.6c0.5-0.2,1.1-0.3,1.7-0.3     c1.7,0,3.1,0.5,4,1.6c1,1.1,1.4,2.6,1.4,4.6c0,1.8-0.5,3.3-1.6,4.5c-1,1.2-2.6,1.8-4.7,1.8c-1.7,0-3.2-0.5-4.4-1.4     c-1.2-0.9-1.8-2.2-1.8-3.8l0-0.1l3.6-0.2c0,0.8,0.2,1.4,0.7,1.8c0.5,0.4,1.1,0.7,1.8,0.7c0.9,0,1.5-0.3,1.9-0.9     c0.4-0.6,0.6-1.4,0.6-2.5c0-1.1-0.2-1.9-0.7-2.6c-0.4-0.6-1.1-1-2-1c-0.7,0-1.3,0.1-1.6,0.4c-0.4,0.3-0.7,0.6-0.8,1.1L250.1,382z     "/><path class="st1" d="M174.7,339.4c0.7,0,1.4,0.1,2,0.2c0.6,0.1,1.2,0.3,1.8,0.6l-0.7,2.7c-0.6-0.2-1.1-0.3-1.6-0.4     c-0.5-0.1-1-0.1-1.6-0.1c-1.1,0-2,0.4-2.6,1.3c-0.7,0.8-1,2-1,3.5v0.6c0.5-0.5,1.1-0.9,1.8-1.1c0.7-0.3,1.5-0.4,2.3-0.4     c1.6,0,2.8,0.6,3.7,1.7c0.9,1.1,1.3,2.6,1.3,4.4c0,1.9-0.6,3.4-1.7,4.6c-1.2,1.2-2.7,1.8-4.6,1.8c-1.9,0-3.5-0.7-4.8-2     c-1.2-1.3-1.8-3.2-1.8-5.5v-3.9c0-2.4,0.7-4.3,2.1-5.7C170.8,340.1,172.6,339.4,174.7,339.4z M173.9,349c-0.7,0-1.3,0.1-1.7,0.3     c-0.5,0.2-0.8,0.5-1.1,0.9v1c0,1.4,0.3,2.5,0.8,3.3c0.5,0.8,1.2,1.2,2.1,1.2c0.8,0,1.4-0.3,1.9-1c0.5-0.7,0.7-1.5,0.7-2.5     c0-1-0.2-1.8-0.7-2.4C175.3,349.2,174.7,349,173.9,349z"/><path class="st1" d="M140,254.2c-2.1,2.5-3.5,4.7-4.3,6.7c-0.8,2-1.1,4.2-1.1,6.8v2.3h-3.7v-2.3c0-2.6,0.5-5,1.4-7.1     c1-2.1,2.3-4.3,4.2-6.4h-9.5v-2.9H140V254.2z"/><path class="st1" d="M172,168.4c0,0.9-0.2,1.7-0.7,2.5c-0.5,0.7-1.1,1.3-2,1.7c1,0.4,1.8,1,2.4,1.8c0.6,0.8,0.9,1.7,0.9,2.7     c0,1.7-0.6,3.1-1.8,4c-1.2,1-2.7,1.4-4.6,1.4c-2,0-3.6-0.5-4.8-1.4c-1.3-1-1.9-2.3-1.9-4c0-1,0.3-1.9,0.9-2.7     c0.6-0.8,1.5-1.4,2.5-1.8c-0.9-0.4-1.6-1-2.1-1.7c-0.5-0.7-0.8-1.5-0.8-2.5c0-1.6,0.6-2.9,1.7-3.8c1.1-0.9,2.6-1.3,4.4-1.3     c1.7,0,3.1,0.4,4.2,1.3C171.5,165.5,172,166.8,172,168.4z M168.9,176.9c0-0.8-0.3-1.5-0.8-2c-0.5-0.5-1.2-0.8-1.9-0.8     c-0.8,0-1.5,0.3-2.1,0.8c-0.6,0.5-0.8,1.2-0.8,2c0,0.8,0.3,1.5,0.8,2c0.6,0.5,1.3,0.8,2.1,0.8c0.8,0,1.4-0.3,1.9-0.8     C168.6,178.4,168.9,177.7,168.9,176.9z M168.3,168.6c0-0.7-0.2-1.3-0.6-1.8c-0.4-0.4-0.9-0.6-1.5-0.6c-0.7,0-1.3,0.2-1.7,0.6     c-0.4,0.4-0.6,1-0.6,1.8c0,0.8,0.2,1.4,0.6,1.8c0.4,0.5,1,0.7,1.7,0.7c0.6,0,1.1-0.2,1.5-0.7C168.1,170,168.3,169.4,168.3,168.6z     "/></g></g></g></svg>