<?xml version="1.0" ?><svg id="Layer_1" style="enable-background:new 0 0 512 512;" version="1.1" viewBox="0 0 512 512" xml:space="preserve" xmlns="http://www.w3.org/2000/svg" xmlns:xlink="http://www.w3.org/1999/xlink"><style type="text/css">
	.st0{fill:#54A27C;}
	.st1{fill:#FFFFFF;}
</style><g><circle class="st0" cx="256" cy="256" id="XMLID_7_" r="256"/><g><g><path class="st1" d="M303,138.1v141.1c0,10.2-8.3,18.5-18.5,18.5h0c-10.2,0-18.5-8.3-18.5-18.5V138.1     c0-10.2,8.3-18.5,18.5-18.5h0C294.7,119.6,303,127.9,303,138.1z" id="XMLID_6_"/><path class="st1" d="M221.5,229.3h-7.8l-1.9,5.3H209l7.5-20.8h2.4l7.3,20.8h-2.9L221.5,229.3z M214.5,227h6.2     l-3-8.9h-0.1L214.5,227z" id="XMLID_2011_"/><path class="st1" d="M229.3,195.7V175h6.8c2.2,0,3.9,0.5,5.1,1.4c1.2,0.9,1.8,2.3,1.8,4.2     c0,0.9-0.3,1.7-0.8,2.4c-0.6,0.7-1.3,1.2-2.2,1.6c1.4,0.2,2.4,0.8,3.2,1.8c0.8,1,1.2,2.2,1.2,3.5c0,1.9-0.6,3.4-1.9,4.4     c-1.2,1-2.9,1.5-5,1.5H229.3z M232.1,183.8h4.5c1,0,1.9-0.3,2.6-0.9c0.7-0.6,1-1.4,1-2.4c0-1.1-0.4-2-1.1-2.5     c-0.7-0.6-1.7-0.8-3.1-0.8h-4V183.8z M232.1,186v7.5h5.4c1.3,0,2.3-0.3,3-0.9c0.7-0.6,1.1-1.5,1.1-2.7c0-1.1-0.4-2.1-1.1-2.8     c-0.7-0.7-1.7-1.1-2.9-1.1h-0.2H232.1z" id="XMLID_2003_"/><path class="st1" d="M261.9,152.2L261.9,152.2c0.1,2-0.6,3.6-2,4.8c-1.4,1.3-3.2,1.9-5.4,1.9     c-2.3,0-4.1-0.8-5.6-2.4c-1.4-1.6-2.2-3.7-2.2-6.2v-3.6c0-2.5,0.7-4.5,2.2-6.2c1.4-1.6,3.3-2.4,5.6-2.4c2.3,0,4.1,0.6,5.4,1.8     c1.3,1.2,2,2.8,2,4.8l0,0.1h-2.6c0-1.4-0.4-2.5-1.2-3.4c-0.8-0.8-2-1.2-3.5-1.2c-1.5,0-2.7,0.6-3.6,1.8c-0.9,1.2-1.4,2.8-1.4,4.6     v3.6c0,1.8,0.5,3.4,1.4,4.6c0.9,1.2,2.1,1.8,3.6,1.8c1.5,0,2.7-0.4,3.5-1.2c0.8-0.8,1.2-1.9,1.2-3.4H261.9z" id="XMLID_1999_"/><path class="st1" d="M277.9,116.8V96h6.5c2.7,0,4.9,0.8,6.5,2.5c1.6,1.7,2.5,3.8,2.5,6.5v2.8     c0,2.7-0.8,4.8-2.5,6.5c-1.6,1.7-3.8,2.5-6.5,2.5H277.9z M280.7,98.2v16.3h3.7c1.9,0,3.4-0.6,4.5-1.9c1.1-1.3,1.7-2.9,1.7-4.9     v-2.9c0-2-0.6-3.6-1.7-4.8c-1.1-1.3-2.6-1.9-4.5-1.9H280.7z" id="XMLID_1993_"/></g><path class="st1" d="M284.4,302.5c-12.8,0-23.3-10.4-23.3-23.3V159.6c-7.9,2.1-13.8,9.3-13.8,17.9v141.1    c0,10.2,8.3,18.5,18.5,18.5h0c10.2,0,18.5-8.3,18.5-18.5V302.5L284.4,302.5z" id="XMLID_5_"/><g><polygon class="st1" id="XMLID_4_" points="265.9,279.2 265.9,279.2 265.9,217 265.9,216.9    "/><path class="st1" d="M242.6,318.6V199c-7.9,2.1-13.8,9.3-13.8,17.9V358c0,10.2,8.3,18.5,18.5,18.5l0,0     c10.2,0,18.5-8.3,18.5-18.5v-16.1C253.1,341.9,242.6,331.5,242.6,318.6z" id="XMLID_3_"/></g><g><path class="st1" d="M247.4,381.3c-12.8,0-23.3-10.4-23.3-23.3V238.4c-7.9,2.1-13.8,9.3-13.8,17.9v141.1     c0,10.2,8.3,18.5,18.5,18.5h0c10.2,0,18.5-8.3,18.5-18.5L247.4,381.3L247.4,381.3z" id="XMLID_2_"/><polygon class="st1" id="XMLID_1_" points="247.4,318.6 247.4,318.6 247.4,256.4 247.4,256.4    "/></g></g></g></svg>